<svg width="151" height="166" viewBox="0 0 151 166" fill="none" xmlns="http://www.w3.org/2000/svg">
<g clip-path="url(#clip0_6753_1319)">
<path d="M59.2274 40.0532H61.1708V41.2157H57.9647V36.215H61.1162V37.3432H59.2274V38.0725H60.9943V39.201H59.2274V40.0528V40.0532ZM67.1488 37.3366H68.4193V41.2157H69.6412V37.3366H70.905V36.215H67.1488V37.3366ZM64.7217 38.1278C64.0647 37.9725 63.9022 37.8735 63.9022 37.6477C63.9022 37.4713 64.0581 37.3159 64.3761 37.3159C64.7962 37.3159 65.27 37.4853 65.7033 37.8031L66.3603 36.8354C65.8456 36.4047 65.2158 36.1785 64.41 36.1785C63.2722 36.1785 62.5746 36.8424 62.5746 37.7606C62.5746 38.8043 63.3532 39.0885 64.3625 39.3284C65.0058 39.4838 65.1617 39.6111 65.1617 39.8155C65.1617 40.02 64.9719 40.1547 64.62 40.1547C64.0714 40.1547 63.55 39.9499 63.0828 39.5613L62.3513 40.4721C62.9339 41.0161 63.7327 41.2914 64.5725 41.2914C65.7236 41.2914 66.4889 40.6913 66.4889 39.6812C66.4889 38.756 65.8117 38.3747 64.7214 38.1275L64.7217 38.1278ZM73.2813 36.215C74.3532 36.215 74.914 37.0468 74.914 37.8684C74.9214 38.3323 74.7526 38.7759 74.4509 39.0837C74.155 39.3852 73.7504 39.5446 73.2813 39.5446H72.0248V36.215H73.2813ZM72.977 38.5995H73.3112C73.7611 38.5995 73.9623 38.2352 73.9623 37.8743C73.9623 37.5133 73.7585 37.1598 73.3112 37.1598H72.977V38.5995ZM72.6166 40.7164C72.6166 41.0297 72.8701 41.2837 73.1829 41.2837C73.4958 41.2837 73.7496 41.0297 73.7496 40.7164C73.7496 40.4031 73.4961 40.1492 73.1829 40.1492C72.8697 40.1492 72.6166 40.4034 72.6166 40.7164ZM77.979 36.215V37.248H78.6857V41.2157H79.8939V36.2146H77.979V36.215ZM85.1833 39.7465C85.1833 39.9953 85.1306 40.2274 85.026 40.4429C84.921 40.6588 84.792 40.8253 84.6391 40.943C84.4862 41.0604 84.2957 41.1467 84.068 41.2021C83.8402 41.2575 83.5974 41.2851 83.3391 41.2851C82.8542 41.2851 82.4839 41.2228 82.2282 41.0988C81.9721 40.9744 81.7779 40.7913 81.6445 40.55C81.5111 40.3082 81.4448 40.0381 81.4448 39.7399C81.4448 39.4417 81.5071 39.2018 81.632 38.9992C81.7569 38.7969 81.9492 38.6408 82.2094 38.5301C82.0097 38.4146 81.8641 38.2862 81.7724 38.1437C81.6475 37.9492 81.5852 37.7256 81.5852 37.4727C81.5852 37.0572 81.7654 36.7169 82.1254 36.4527C82.4062 36.2493 82.7776 36.1478 83.2393 36.1478C83.8509 36.1478 84.303 36.274 84.5952 36.5272C84.8874 36.7804 85.0337 37.0989 85.0337 37.4827C85.0337 37.7064 84.9755 37.9156 84.8591 38.1097C84.7717 38.254 84.6343 38.3943 84.4471 38.5301C84.6947 38.6589 84.8793 38.8294 85.0013 39.042C85.1229 39.2542 85.1837 39.4893 85.1837 39.7465H85.1833ZM82.7905 37.5569C82.7905 37.8433 83.0215 38.0758 83.3063 38.0758C83.5912 38.0758 83.8222 37.8433 83.8222 37.5569C83.8222 37.2705 83.5912 37.038 83.3063 37.038C83.0215 37.038 82.7905 37.2705 82.7905 37.5569ZM83.9128 39.6897C83.9128 39.3457 83.6413 39.0671 83.3067 39.0671C82.9721 39.0671 82.7006 39.3457 82.7006 39.6897C82.7006 40.0336 82.9721 40.3123 83.3067 40.3123C83.6413 40.3123 83.9128 40.0336 83.9128 39.6897ZM90.1861 39.566C90.1861 40.6256 89.4506 41.2837 88.2674 41.2837C87.0843 41.2837 86.3621 40.6253 86.3621 39.566C86.3621 39.211 86.4833 38.8058 86.686 38.4821L88.0994 36.1807H89.49L88.4399 37.9093C88.9624 37.8909 89.3975 38.0444 89.7155 38.3515C90.0236 38.6493 90.1864 39.0693 90.1864 39.566H90.1861ZM88.9517 39.5531C88.9517 39.1959 88.6459 38.9062 88.2689 38.9062C87.892 38.9062 87.5861 39.1959 87.5861 39.5531C87.5861 39.9104 87.892 40.2001 88.2689 40.2001C88.6459 40.2001 88.9517 39.9104 88.9517 39.5531ZM94.9954 37.8713C94.9884 38.2795 94.8852 38.6113 94.6508 38.9829L93.2436 41.2161H91.853L92.9481 39.528C92.9455 39.528 92.943 39.528 92.9404 39.528C92.4035 39.5432 91.9499 39.393 91.6294 39.083C91.325 38.7884 91.164 38.3696 91.164 37.8717C91.164 36.8081 91.8995 36.1471 93.083 36.1471C94.2665 36.1471 94.995 36.8081 94.995 37.8717L94.9954 37.8713ZM93.7654 37.8809C93.7654 37.5237 93.4596 37.234 93.0826 37.234C92.7057 37.234 92.3998 37.5237 92.3998 37.8809C92.3998 38.2382 92.7057 38.5279 93.0826 38.5279C93.4596 38.5279 93.7654 38.2382 93.7654 37.8809ZM69.1301 22.1309C69.132 21.9667 68.9485 21.7726 68.7499 21.9176C68.2535 22.2295 67.1643 22.8111 65.6035 22.9632L59.9025 23.6061L59.0005 17.0014C60.6833 16.7799 62.3823 16.5766 63.4461 16.4699C64.6219 16.3522 65.3883 16.5139 65.836 16.646C66.1503 16.7608 66.301 16.5666 66.277 16.3566L65.8257 10.9558C65.7881 10.6595 65.5869 10.6609 65.3794 10.7827C64.994 11.0097 64.3894 11.195 62.9074 11.3452C61.4998 11.4876 59.8745 11.6718 58.3004 11.8755L57.5369 6.28759C58.2171 6.17945 60.4979 5.77423 63.2762 5.48636C65.3098 5.26898 66.4948 5.51182 66.9079 5.63989C67.1566 5.73474 67.2682 5.56312 67.2601 5.40923L66.9665 0.277454C61.1487 0.679729 56.0711 1.43113 50.7876 2.37888C50.4829 2.43387 50.4346 2.64202 50.5628 2.86013C51.0813 3.71524 51.2747 4.89254 51.501 6.42894L54.2638 25.2558C54.528 26.7678 54.6643 27.9429 54.5287 28.9748C54.4708 29.2818 54.7159 29.3782 54.9469 29.3383C59.5893 28.5341 64.7667 27.8886 69.4769 27.6344L69.1301 22.1302V22.1309ZM72.2131 27.5447C74.4682 27.4583 76.3813 27.4292 78.7244 27.4775C78.9451 27.4819 78.9613 27.3133 78.902 27.1535C78.5542 26.2341 78.4889 24.4612 78.497 23.2614L78.5243 3.8577C78.5718 2.61065 78.5405 1.83452 78.969 0.426554C79.0029 0.313622 79.0413 0.0501136 78.7174 0.040518C76.7059 -0.0122575 73.8989 0.034244 72.2201 0.0969841C71.915 0.109163 71.9504 0.336135 71.9832 0.445007C72.3454 1.6164 72.4552 2.84057 72.4769 4.03669L72.502 23.2776C72.4939 24.652 72.4954 26.0585 72.0495 27.2062C71.9615 27.4 72.0223 27.5521 72.2131 27.545V27.5447ZM104.701 7.28257C105.07 5.71481 105.217 4.81836 105.913 3.84774C106.06 3.69162 106.022 3.51558 105.842 3.47646C104.106 3.09633 101.659 2.58297 100.043 2.29473C99.7667 2.25118 99.6897 2.40398 99.7243 2.58518C99.9016 3.57242 99.8238 4.54009 99.413 6.33446L97.2994 17.9986L92.0111 1.04104C90.4539 0.832151 87.9616 0.562368 85.879 0.389648C85.5805 0.36529 85.4483 0.547975 85.5164 0.78934C85.8189 1.99727 85.6225 3.36796 85.5157 4.33932L83.2861 23.7149C83.1637 24.6915 82.9415 26.1987 82.4202 27.245C82.3896 27.3077 82.2816 27.6056 82.5845 27.6233C84.1726 27.7196 86.5179 27.9237 88.3831 28.1455C88.5685 28.1669 88.6974 28.1016 88.6344 27.8521C88.2892 26.6977 88.4653 25.1772 88.5817 24.1825L89.9978 11.939C90.0479 12.0848 94.46 26.4353 95.3167 29.0999C96.7721 29.3575 98.3558 29.6782 100.42 30.1122C100.732 30.1787 100.805 29.9255 100.774 29.766C100.617 28.6316 100.669 27.5816 100.879 26.5091C100.879 26.5091 104.705 7.27704 104.701 7.28257ZM120.256 29.7834C119.117 29.8613 117.544 29.5952 116.463 29.2228C114.015 28.4208 113.182 28.1588 111.674 27.6849L126.092 14.7885L126.002 9.8062C119.646 7.3324 115.511 6.07612 111.234 4.83792L109.693 9.9291C109.633 10.1088 109.739 10.3037 110.012 10.2926C111.134 10.2476 112.925 10.6986 113.853 10.9765C114.943 11.3031 119.051 12.6284 119.907 12.9465L104.595 26.7623L104.675 31.1426C109.09 32.2627 113.875 33.7382 118.004 35.3311L120.566 30.2591C120.673 30.0469 120.622 29.7638 120.256 29.7841L120.256 29.7834ZM51.7025 29.5151C51.0293 28.5415 50.5665 27.2786 50.2673 25.9363L45.0037 7.64093C44.7296 6.54298 44.5232 5.26529 44.6341 4.07397C44.6647 3.91306 44.4856 3.79976 44.3574 3.83039C42.8581 4.19096 40.0135 4.94421 38.1494 5.48451C37.9489 5.54393 37.841 5.69857 37.9648 5.92739C38.4611 6.7371 38.9409 7.94393 39.2611 9.28287L41.0305 15.2557C39.3484 15.6772 36.2168 16.6087 34.4835 17.1357L32.5965 11.3839C32.0991 10.021 31.9336 9.09096 31.9053 7.91219C31.9053 7.91219 31.9447 7.4719 31.56 7.59111C29.7659 8.18788 27.2025 9.18249 25.3303 9.904C25.0955 9.99442 25.093 10.1952 25.265 10.3941C26.0587 11.374 26.54 12.4531 26.9342 13.6337L32.8069 31.1201C33.2406 32.3118 33.6253 33.4478 33.5896 34.7421C33.5855 34.8565 33.6338 35.1281 33.9256 35.0152C35.6593 34.3974 38.1483 33.512 40.0091 32.9414C40.1815 32.889 40.2368 32.6927 40.0842 32.5347C39.4287 31.7353 38.8388 30.3982 38.544 29.5136L36.0918 22.0379C38.7272 21.2445 40.0105 20.871 42.4966 20.2052L44.6061 27.3266C45.0531 29.1512 45.1445 30.1185 45.0461 31.1548C45.031 31.2917 45.1537 31.47 45.3626 31.4146C47.1445 30.9301 49.3649 30.389 51.5647 29.9229C51.8215 29.8679 51.7876 29.6284 51.7025 29.5151Z" fill="white"/>
</g>
<g clip-path="url(#clip1_6753_1319)">
<path d="M143.175 113.753C147.427 113.753 150.6 110.516 150.6 106.262C150.6 102.008 147.489 98.644 143.301 98.644C142.159 98.644 141.08 98.834 140.128 99.216C139.493 98.834 138.796 98.644 138.097 98.644H136.32C136.32 97.882 136.194 97.2481 136.066 96.7401C136.256 96.2961 136.32 95.8522 136.32 95.3442V92.4883C136.32 92.2343 136.32 91.9163 136.256 91.6623C136.32 91.4083 136.32 91.1543 136.32 90.8363V88.2964C136.32 78.2028 130.736 68.2372 121.025 60.9995C110.237 53.0039 95.3218 48.75 77.8692 48.75C39.4726 48.75 18.7189 69.1272 18.7189 88.2985V88.8705C13.1344 92.1724 9.77132 96.9962 9.7072 102.074C5.07413 102.9 0.631348 106.518 0.631348 111.088C0.631348 113.373 1.6469 115.149 3.35948 116.165L2.40805 120.481C2.15364 121.751 2.47217 123.021 3.35948 123.973C4.18475 124.925 5.4547 125.369 6.66054 125.243H6.72466C7.2314 125.243 8.50136 126.259 9.26251 126.831C10.1519 127.529 11.1674 128.291 12.3092 128.925C11.9286 129.559 11.6742 130.385 11.7383 131.211L11.8024 132.925C11.548 133.497 11.3577 134.195 11.4219 134.829L11.548 137.748C11.6121 138.828 12.0548 139.78 12.88 140.478C13.6412 141.176 14.6567 141.558 15.7364 141.494L17.6413 141.366H17.8957C18.2122 141.366 18.2763 141.366 18.721 141.62V142.064C18.721 162.949 37.063 162.949 53.1836 162.949H101.798C117.98 162.949 136.26 162.949 136.26 142.064V139.524C136.26 138.762 136.07 138.064 135.689 137.43C136.959 136.797 137.911 136.097 138.672 135.527C139.392 135.019 139.963 134.743 140.387 134.701L142.29 134.573C143.369 134.509 144.321 134.065 145.018 133.239C145.715 132.477 146.097 131.399 146.033 130.383L145.907 127.463C145.843 126.765 145.653 126.129 145.336 125.559L145.272 123.845C145.208 122.765 144.765 121.813 143.94 121.115C143.179 120.417 142.099 120.035 141.084 120.099L139.688 120.163C139.243 120.163 138.798 120.227 138.356 120.291L139.942 112.799C141.022 113.625 142.29 113.751 143.179 113.751L143.175 113.753Z" fill="white"/>
<path d="M132.334 88.3006C132.334 71.4152 113.928 52.752 77.8811 52.752C41.8342 52.752 22.729 71.4772 22.729 88.3006V90.8405H132.334V88.3006Z" fill="#AB7029"/>
<path d="M66.0666 57.7031H62.5131C62.3228 57.7031 62.1966 57.8291 62.1325 57.9571C62.0684 58.0831 62.0063 58.3371 62.0063 58.7191C62.0063 59.1012 62.0705 59.3531 62.1325 59.4811C62.1966 59.6711 62.3869 59.7351 62.5131 59.7351H66.0666C66.2569 59.7351 66.3831 59.6092 66.4472 59.4811C66.5114 59.3552 66.5734 59.1012 66.5734 58.7191C66.5734 58.3371 66.5093 58.0852 66.4472 57.9571C66.3831 57.7671 66.1928 57.7031 66.0666 57.7031Z" fill="#9C6226"/>
<path d="M79.3884 57.7031H75.8349C75.6446 57.7031 75.5184 57.8291 75.4543 57.9571C75.3902 58.0831 75.3281 58.3371 75.3281 58.7191C75.3281 59.1012 75.3922 59.3531 75.4543 59.4811C75.5184 59.6711 75.7087 59.7351 75.8349 59.7351H79.3884C79.5787 59.7351 79.7049 59.6092 79.769 59.4811C79.8331 59.3552 79.8952 59.1012 79.8952 58.7191C79.8952 58.3371 79.8311 58.0852 79.769 57.9571C79.7049 57.7671 79.5146 57.7031 79.3884 57.7031Z" fill="#9C6226"/>
<path d="M92.6516 57.7031H89.0981C88.9078 57.7031 88.7816 57.8291 88.7175 57.9571C88.6534 58.0831 88.5913 58.3371 88.5913 58.7191C88.5913 59.1012 88.6554 59.3531 88.7175 59.4811C88.7816 59.6711 88.9719 59.7351 89.0981 59.7351H92.6516C92.8419 59.7351 92.9681 59.6092 93.0322 59.4811C93.0963 59.3552 93.1584 59.1012 93.1584 58.7191C93.1584 58.3371 93.0942 58.0852 93.0322 57.9571C93.0322 57.7671 92.8419 57.7031 92.6516 57.7031Z" fill="#9C6226"/>
<path d="M59.3342 65.6367H55.7807C55.5904 65.6367 55.4642 65.7627 55.4001 65.8907C55.336 66.0167 55.2739 66.2707 55.2739 66.6527C55.2739 67.0348 55.338 67.2867 55.4001 67.4147C55.4642 67.6047 55.6545 67.6687 55.7807 67.6687H59.3342C59.5245 67.6687 59.6507 67.5428 59.7148 67.4147C59.7789 67.2888 59.841 67.0348 59.841 66.6527C59.841 66.2707 59.7769 66.0188 59.7148 65.8907C59.7148 65.7648 59.5245 65.6367 59.3342 65.6367Z" fill="#9C6226"/>
<path d="M72.6672 65.6367H69.1137C68.9234 65.6367 68.7972 65.7627 68.7331 65.8907C68.669 66.0167 68.6069 66.2707 68.6069 66.6527C68.6069 67.0348 68.6711 67.2867 68.7331 67.4147C68.7972 67.6047 68.9875 67.6687 69.1137 67.6687H72.6672C72.8575 67.6687 72.9837 67.5428 73.0478 67.4147C73.1119 67.2888 73.174 67.0348 73.174 66.6527C73.174 66.2707 73.1099 66.0188 73.0478 65.8907C72.9837 65.7648 72.8575 65.6367 72.6672 65.6367Z" fill="#9C6226"/>
<path d="M46.0784 65.6367H42.5248C42.3345 65.6367 42.2084 65.7627 42.1442 65.8907C42.0801 66.0167 42.0181 66.2707 42.0181 66.6527C42.0181 67.0348 42.0822 67.2867 42.1442 67.4147C42.2084 67.6047 42.3987 67.6687 42.5248 67.6687H46.0784C46.2687 67.6687 46.3948 67.5428 46.4589 67.4147C46.5231 67.2888 46.5851 67.0348 46.5851 66.6527C46.5851 66.2707 46.521 66.0188 46.4589 65.8907C46.4589 65.7648 46.2687 65.6367 46.0784 65.6367Z" fill="#9C6226"/>
<path d="M86.0046 65.6367H82.4511C82.2608 65.6367 82.1346 65.7627 82.0705 65.8907C82.0064 66.0167 81.9443 66.2707 81.9443 66.6527C81.9443 67.0348 82.0085 67.2867 82.0705 67.4147C82.1346 67.6047 82.3249 67.6687 82.4511 67.6687H86.0046C86.1949 67.6687 86.3211 67.5428 86.3852 67.4147C86.4493 67.2888 86.5114 67.0348 86.5114 66.6527C86.5114 66.2707 86.4473 66.0188 86.3852 65.8907C86.3211 65.7648 86.1949 65.6367 86.0046 65.6367Z" fill="#9C6226"/>
<path d="M99.3259 65.6367H95.7724C95.5821 65.6367 95.4559 65.7627 95.3918 65.8907C95.3277 66.0167 95.2656 66.2707 95.2656 66.6527C95.2656 67.0348 95.3297 67.2867 95.3918 67.4147C95.4559 67.6047 95.6462 67.6687 95.7724 67.6687H99.3259C99.5162 67.6687 99.6424 67.5428 99.7065 67.4147C99.7706 67.2888 99.8327 67.0348 99.8327 66.6527C99.8327 66.2707 99.7686 66.0188 99.7065 65.8907C99.6445 65.7627 99.5162 65.6367 99.3259 65.6367Z" fill="#9C6226"/>
<path d="M112.648 65.6367H109.094C108.904 65.6367 108.778 65.7627 108.714 65.8907C108.649 66.0167 108.587 66.2707 108.587 66.6527C108.587 67.0348 108.652 67.2867 108.714 67.4147C108.778 67.6047 108.968 67.6687 109.094 67.6687H112.648C112.838 67.6687 112.964 67.5428 113.028 67.4147C113.092 67.2888 113.154 67.0348 113.154 66.6527C113.154 66.2707 113.09 66.0188 113.028 65.8907C112.964 65.7648 112.838 65.6367 112.648 65.6367Z" fill="#9C6226"/>
<path d="M66.0666 73.9512H62.5131C62.3228 73.9512 62.1966 74.0792 62.1325 74.2052C62.0684 74.3311 62.0063 74.5851 62.0063 74.9672C62.0063 75.3492 62.0705 75.6012 62.1325 75.7292C62.1966 75.9192 62.3869 75.9832 62.5131 75.9832H66.0666C66.2569 75.9832 66.3831 75.8552 66.4472 75.7292C66.5114 75.6032 66.5734 75.3492 66.5734 74.9672C66.5734 74.5851 66.5093 74.3311 66.4472 74.2052C66.3831 74.0152 66.1928 73.9512 66.0666 73.9512Z" fill="#9C6226"/>
<path d="M79.3884 73.9512H75.8349C75.6446 73.9512 75.5184 74.0792 75.4543 74.2052C75.3902 74.3311 75.3281 74.5851 75.3281 74.9672C75.3281 75.3492 75.3922 75.6012 75.4543 75.7292C75.5184 75.9192 75.7087 75.9832 75.8349 75.9832H79.3884C79.5787 75.9832 79.7049 75.8552 79.769 75.7292C79.8331 75.6032 79.8952 75.3492 79.8952 74.9672C79.8952 74.5851 79.8311 74.3311 79.769 74.2052C79.7049 74.0152 79.5146 73.9512 79.3884 73.9512Z" fill="#9C6226"/>
<path d="M92.6516 73.9512H89.0981C88.9078 73.9512 88.7816 74.0792 88.7175 74.2052C88.6534 74.3311 88.5913 74.5851 88.5913 74.9672C88.5913 75.3492 88.6554 75.6012 88.7175 75.7292C88.7816 75.9192 88.9719 75.9832 89.0981 75.9832H92.6516C92.8419 75.9832 92.9681 75.8552 93.0322 75.7292C93.0963 75.6032 93.1584 75.3492 93.1584 74.9672C93.1584 74.5851 93.0942 74.3311 93.0322 74.2052C93.0322 74.0152 92.8419 73.9512 92.6516 73.9512Z" fill="#9C6226"/>
<path d="M72.6672 81.8887H69.1137C68.9234 81.8887 68.7972 82.0167 68.7331 82.1427C68.669 82.2686 68.6069 82.5226 68.6069 82.9047C68.6069 83.2867 68.6711 83.5387 68.7331 83.6667C68.7972 83.8567 68.9875 83.9207 69.1137 83.9207H72.6672C72.8575 83.9207 72.9837 83.7927 73.0478 83.6667C73.1119 83.5387 73.174 83.2867 73.174 82.9047C73.174 82.5226 73.1099 82.2707 73.0478 82.1427C72.9837 82.0146 72.8575 81.8887 72.6672 81.8887Z" fill="#9C6226"/>
<path d="M86.0046 81.8887H82.4511C82.2608 81.8887 82.1346 82.0167 82.0705 82.1427C82.0064 82.2686 81.9443 82.5226 81.9443 82.9047C81.9443 83.2867 82.0085 83.5387 82.0705 83.6667C82.1346 83.8567 82.3249 83.9207 82.4511 83.9207H86.0046C86.1949 83.9207 86.3211 83.7927 86.3852 83.6667C86.4493 83.5387 86.5114 83.2867 86.5114 82.9047C86.5114 82.5226 86.4473 82.2707 86.3852 82.1427C86.3211 82.0146 86.1949 81.8887 86.0046 81.8887Z" fill="#9C6226"/>
<path d="M105.929 73.9512H102.501C102.311 73.9512 102.185 74.0792 102.121 74.2052C102.057 74.3311 101.995 74.5851 101.995 74.9672C101.995 75.3492 102.059 75.6012 102.121 75.7292C102.185 75.9192 102.375 75.9832 102.501 75.9832H105.929C106.119 75.9832 106.245 75.8552 106.309 75.7292C106.373 75.6032 106.436 75.3492 106.436 74.9672C106.436 74.5851 106.371 74.3311 106.309 74.2052C106.245 74.0152 106.055 73.9512 105.929 73.9512Z" fill="#9C6226"/>
<path d="M119.641 74.2052C119.576 74.0152 119.386 73.9512 119.26 73.9512H115.706C115.516 73.9512 115.39 74.0792 115.326 74.2052C115.262 74.3311 115.2 74.5851 115.2 74.9672C115.2 75.3492 115.264 75.6012 115.326 75.7292C115.39 75.9192 115.58 75.9832 115.706 75.9832H119.26C119.45 75.9832 119.576 75.8552 119.641 75.7292C119.705 75.6032 119.767 75.3492 119.767 74.9672C119.767 74.5851 119.703 74.3311 119.641 74.2052Z" fill="#9C6226"/>
<path d="M112.655 81.8887H108.974C108.783 81.8887 108.657 82.0167 108.593 82.1427C108.529 82.2686 108.467 82.5226 108.467 82.9047C108.467 83.2867 108.531 83.5387 108.593 83.6667C108.657 83.8567 108.847 83.9207 108.974 83.9207H112.655C112.846 83.9207 112.972 83.7927 113.036 83.6667C113.1 83.5387 113.162 83.2867 113.162 82.9047C113.162 82.5226 113.098 82.2707 113.036 82.1427C112.972 82.0146 112.846 81.8887 112.655 81.8887Z" fill="#9C6226"/>
<path d="M99.2639 81.8887H95.7724C95.5821 81.8887 95.4559 82.0167 95.3918 82.1427C95.3277 82.2686 95.2656 82.5226 95.2656 82.9047C95.2656 83.2867 95.3297 83.5387 95.3918 83.6667C95.4559 83.8567 95.6462 83.9207 95.7724 83.9207H99.2639C99.4542 83.9207 99.5803 83.7927 99.6445 83.6667C99.7086 83.5387 99.7706 83.2867 99.7706 82.9047C99.7706 82.5226 99.7065 82.2707 99.6445 82.1427C99.6445 82.0146 99.4542 81.8887 99.2639 81.8887Z" fill="#9C6226"/>
<path d="M39.408 73.9512H35.8544C35.6641 73.9512 35.538 74.0792 35.4738 74.2052C35.4097 74.3311 35.3477 74.5851 35.3477 74.9672C35.3477 75.3492 35.4118 75.6012 35.4738 75.7292C35.538 75.9192 35.7282 75.9832 35.8544 75.9832H39.408C39.5982 75.9832 39.7244 75.8552 39.7885 75.7292C39.8527 75.6032 39.9147 75.3492 39.9147 74.9672C39.9147 74.5851 39.8506 74.3311 39.7885 74.2052C39.7244 74.0152 39.5341 73.9512 39.408 73.9512Z" fill="#9C6226"/>
<path d="M52.7336 73.9512H49.1801C48.9898 73.9512 48.8636 74.0792 48.7995 74.2052C48.7354 74.3311 48.6733 74.5851 48.6733 74.9672C48.6733 75.3492 48.7375 75.6012 48.7995 75.7292C48.8636 75.9192 49.0539 75.9832 49.1801 75.9832H52.7336C52.9239 75.9832 53.0501 75.8552 53.1142 75.7292C53.1783 75.6032 53.2404 75.3492 53.2404 74.9672C53.2404 74.5851 53.1763 74.3311 53.1142 74.2052C53.0501 74.0152 52.8598 73.9512 52.7336 73.9512Z" fill="#9C6226"/>
<path d="M46.0046 81.8887H42.5131C42.3228 81.8887 42.1966 82.0167 42.1325 82.1427C42.0684 82.2686 42.0063 82.5226 42.0063 82.9047C42.0063 83.2867 42.0705 83.5387 42.1325 83.6667C42.1966 83.8567 42.3869 83.9207 42.5131 83.9207H46.0046C46.1949 83.9207 46.3211 83.7927 46.3852 83.6667C46.4493 83.5387 46.5114 83.2867 46.5114 82.9047C46.5114 82.5226 46.4472 82.2707 46.3852 82.1427C46.3211 82.0146 46.1949 81.8887 46.0046 81.8887Z" fill="#9C6226"/>
<path d="M59.5886 81.9527C59.5245 81.8887 59.3983 81.8887 59.3342 81.8887H55.7807C55.5904 81.8887 55.4642 82.0167 55.4001 82.1427C55.336 82.2686 55.2739 82.5226 55.2739 82.9047C55.2739 83.2867 55.338 83.5387 55.4001 83.6667C55.4642 83.8567 55.6545 83.9207 55.7807 83.9207H59.3342C59.5245 83.9207 59.6507 83.7927 59.7148 83.6667C59.7789 83.5387 59.841 83.2867 59.841 82.9047C59.841 82.5226 59.7769 82.2707 59.7148 82.1427C59.7148 82.0787 59.6507 82.0146 59.5886 81.9527Z" fill="#9C6226"/>
<path d="M132.334 102.584C132.334 103.664 132.334 104.488 131.255 104.488H23.8087C22.729 104.488 22.729 103.662 22.729 102.584V98.902C22.729 97.822 22.729 96.998 23.8087 96.998H131.257C132.336 96.998 132.336 97.824 132.336 98.902V102.584H132.334Z" fill="#B32029"/>
<path d="M132.398 92.4258H22.729V95.2816H132.398V92.4258Z" fill="#FAA21E"/>
<path d="M93.6763 93.4414L77.8101 102.963L61.373 93.4414H93.6763Z" fill="#FAA21E"/>
<path d="M22.729 139.59V142.13C22.729 159.015 36.3738 159.079 53.2556 159.079H101.87C118.751 159.079 132.396 159.015 132.396 142.13V139.59H22.729Z" fill="#AB7029"/>
<path d="M28.178 142.701C28.178 145.367 28.3683 147.209 32.0499 145.367C35.7316 143.527 40.1744 141.113 49.5667 141.305C46.0753 142.321 42.0152 144.161 41.6325 146.575C41.252 149.051 43.6636 150.067 48.9937 148.797C49.6287 151.019 51.8501 153.495 56.5452 149.431C61.2424 145.369 63.9064 143.717 66.1278 142.893C68.3492 142.067 68.9842 143.273 66.5084 144.733C64.0326 146.129 61.8112 146.955 61.4306 148.605C61.0501 150.255 61.4306 152.859 65.4928 151.653C65.4928 154.509 66.3181 156.923 69.7453 156.923C73.1726 156.923 74.6328 155.083 74.6328 151.653C76.8542 152.859 80.1553 153.685 80.3456 149.177C80.5358 144.669 82.5669 142.639 84.598 141.623C86.6292 140.607 87.0097 142.511 85.6136 143.019C83.7728 143.717 83.0116 145.051 82.9475 146.511C82.8834 148.351 86.0562 151.081 89.2932 147.717C89.5476 149.685 93.1651 150.955 94.3709 146.891C95.5768 142.829 95.9573 140.289 99.639 140.161C97.1011 141.113 95.5768 144.859 98.8137 146.065C102.051 147.271 103.701 144.225 104.082 143.209C104.462 142.193 105.478 139.971 108.589 140.161C105.923 141.367 105.923 145.431 108.589 145.685C111.255 145.875 112.27 145.051 114.301 143.209C116.332 141.369 120.395 139.337 125.535 140.161C124.519 142.827 126.36 143.907 128.01 143.589C130.041 143.207 129.851 140.987 130.486 139.527H26.0207V139.591C24.3702 140.671 23.2285 144.923 28.178 142.701Z" fill="#A9AE38"/>
<path d="M17.1924 133.56C19.1594 133.432 19.9847 133.94 21.4449 134.766C23.1595 135.782 25.5071 137.114 29.6955 136.86C33.8839 136.606 36.0411 135.02 37.6917 133.876C39.0237 132.924 39.7869 132.352 41.7539 132.226C43.7209 132.098 44.5461 132.606 46.0064 133.432C47.721 134.448 50.0686 135.78 54.257 135.526C58.4453 135.272 60.6026 133.686 62.2531 132.542C63.5851 131.59 64.3484 131.018 66.3795 130.892C68.3465 130.764 69.2358 131.272 70.632 132.098C72.3466 133.114 74.6942 134.446 78.8826 134.192C83.0709 133.938 85.2282 132.352 86.8787 131.208C88.2107 130.256 88.974 129.684 90.9409 129.558C92.9079 129.43 93.7973 129.938 95.1934 130.764C96.9081 131.78 99.2556 133.112 103.444 132.858C107.632 132.604 109.79 131.018 111.44 129.874C112.772 128.922 113.535 128.35 115.502 128.224C117.469 128.096 118.359 128.604 119.755 129.43C121.468 130.446 123.817 131.778 128.006 131.524C132.194 131.27 134.351 129.684 136.002 128.54C137.334 127.588 138.097 127.016 140.128 126.89L141.524 126.826L141.398 124.16L140.002 124.224C135.687 124.478 133.402 126.128 131.751 127.334C130.481 128.286 129.72 128.794 127.943 128.922C126.103 129.05 125.341 128.604 123.945 127.78C122.169 126.764 119.757 125.368 115.44 125.622C111.124 125.876 108.84 127.526 107.19 128.732C105.92 129.684 105.159 130.192 103.382 130.32C101.541 130.448 100.78 130.002 99.3839 129.178C97.6072 128.162 95.1955 126.766 90.8789 127.02C86.5623 127.274 84.2788 128.924 82.6283 130.13C81.3583 131.082 80.5972 131.59 78.8205 131.718C76.9797 131.844 76.2185 131.4 74.8224 130.576C73.0457 129.56 70.634 128.164 66.3174 128.418C62.0029 128.672 59.7174 130.322 58.0668 131.528C56.7969 132.48 56.0357 132.988 54.259 133.116C52.4182 133.242 51.6571 132.798 50.2609 131.974C48.4842 130.958 46.0726 129.562 41.7559 129.816C37.4393 130.07 35.1559 131.72 33.5054 132.926C32.2354 133.878 31.4743 134.386 29.6976 134.512C27.8567 134.64 27.0956 134.194 25.6995 133.37C23.9228 132.354 21.5111 130.958 17.1945 131.212L15.7983 131.276L15.9245 133.942L17.1945 133.562L17.1924 133.56Z" fill="#B32029"/>
<path d="M136.512 129.371C134.797 130.641 132.45 132.291 128.007 132.545C123.564 132.799 121.026 131.339 119.25 130.323C117.918 129.561 117.219 129.181 115.568 129.243C113.918 129.307 113.283 129.815 112.015 130.703C110.3 131.973 107.953 133.623 103.51 133.877C99.067 134.131 96.5291 132.671 94.7524 131.655C93.4204 130.893 92.7213 130.513 91.0708 130.575C89.4203 130.639 88.7853 131.147 87.5174 132.035C85.8028 133.305 83.4552 134.955 79.0124 135.209C74.5696 135.463 72.0318 134.003 70.2551 132.987C68.9231 132.225 68.224 131.845 66.5735 131.907C64.9229 131.971 64.288 132.479 63.0201 133.367C61.3054 134.637 58.9579 136.287 54.5151 136.541C50.0723 136.795 47.5344 135.335 45.7577 134.319C44.4257 133.557 43.7266 133.177 42.0761 133.239C40.4256 133.303 39.7906 133.811 38.5227 134.699C36.8081 135.969 34.4605 137.619 30.0177 137.873C25.5749 138.127 23.0371 136.667 21.2604 135.651C19.9284 134.889 19.2293 134.509 17.5788 134.571L15.6738 134.699L15.8 137.619L17.7049 137.491C19.5457 137.363 20.3069 137.809 21.703 138.633C23.4797 139.649 25.8914 141.045 30.208 140.791C34.5246 140.537 36.8081 138.887 38.4586 137.681C39.7286 136.729 40.4897 136.221 42.2664 136.093C44.1072 135.965 44.8684 136.411 46.2645 137.235C48.0412 138.251 50.4529 139.647 54.7695 139.393C59.0861 139.139 61.3695 137.489 63.0201 136.283C64.29 135.331 65.0512 134.823 66.8279 134.695C68.6687 134.567 69.4298 135.013 70.826 135.837C72.6027 136.853 75.0143 138.249 79.3309 137.995C83.6455 137.741 85.931 136.091 87.5815 134.885C88.8515 133.933 89.6126 133.425 91.3893 133.297C93.2302 133.171 93.9913 133.615 95.3874 134.439C97.1641 135.455 99.5758 136.851 103.892 136.597C108.209 136.343 110.492 134.693 112.143 133.487C113.413 132.535 114.174 132.027 115.951 131.899C117.792 131.773 118.553 132.217 119.949 133.041C121.726 134.057 124.137 135.453 128.454 135.199C132.77 134.945 135.054 133.295 136.704 132.089C137.974 131.137 138.736 130.629 140.512 130.503L142.415 130.375L142.225 127.455L140.322 127.583C138.355 127.963 137.784 128.409 136.514 129.361L136.512 129.371Z" fill="#B32029"/>
<path d="M46.2597 140.608L50.4481 128.421H53.05V140.608L57.3667 128.421H58.7628L53.2403 143.274H50.3198V133.117L46.3859 143.274H43.4674V129.627C41.3102 130.325 40.2305 131.849 40.2305 134.071C40.2305 135.087 40.4849 135.277 40.4849 135.405C39.0888 135.405 38.3276 134.897 38.3276 133.501C38.3276 130.835 42.0093 128.295 45.3083 128.295C45.5627 128.295 45.8171 128.295 46.1335 128.359L46.2597 140.61V140.608Z" fill="#6D1D0E"/>
<path d="M53.1892 144.922H50.2687C49.3793 144.922 48.6181 144.16 48.6181 143.272V141.812L47.857 143.844C47.6026 144.478 47.0317 144.86 46.3347 144.86H43.4142C42.5248 144.86 41.7637 144.098 41.7637 143.21V136.354C41.7209 136.397 41.6789 136.439 41.6375 136.48C41.3211 136.798 40.8764 136.988 40.4317 136.988C37.0044 136.988 36.688 134.512 36.688 133.432C36.688 129.625 41.3211 126.641 45.3191 126.641C45.6356 126.641 45.9541 126.641 46.2706 126.705C47.0958 126.769 47.7929 127.467 47.7929 128.293L47.857 131.212L48.9987 127.849C49.2531 127.215 49.824 126.769 50.521 126.769H53.123C54.0124 126.769 54.7735 127.531 54.7735 128.419V131.02L55.9152 127.847C56.1696 127.213 56.7405 126.767 57.4375 126.767H58.8336C59.3425 126.767 59.8492 127.021 60.1656 127.465C60.4821 127.909 60.5462 128.481 60.3559 128.989L54.8335 143.842C54.4529 144.476 53.8821 144.922 53.183 144.922H53.1892ZM51.0298 131.654C51.156 131.718 51.2842 131.844 51.4104 131.972V130.576L51.0298 131.656V131.654Z" fill="white"/>
<path d="M60.0435 141.685C61.6299 141.685 62.5814 140.797 63.597 139.653H64.2941C63.1523 141.493 61.4376 143.335 58.8355 143.335C56.9305 143.335 55.7246 142.447 55.7246 140.161C55.7246 137.875 56.9946 133.051 61.119 133.051C62.8958 133.051 63.3405 133.939 63.3405 134.955C63.3405 137.241 61.119 139.017 58.7714 139.145C58.7714 139.399 58.7073 139.717 58.7073 139.971C58.6431 141.367 59.0879 141.685 60.0393 141.685H60.0435ZM61.2493 134.195C60.2338 134.195 59.2823 136.353 58.8376 138.321C60.3599 138.193 61.7561 136.671 61.7561 135.019C61.7561 134.511 61.6299 134.193 61.2493 134.193V134.195Z" fill="#6D1D0E"/>
<path d="M58.7667 144.986C55.7841 144.986 54.0073 143.208 54.0073 140.162C54.0073 136.544 56.1647 131.402 61.0523 131.402C63.4 131.402 64.8603 132.736 64.8603 134.958C64.8603 136.038 64.5438 137.116 63.9088 138.006H64.2253C64.7962 138.006 65.367 138.324 65.6215 138.832C65.9379 139.34 65.8759 139.974 65.5573 140.482C63.8447 143.53 61.495 144.99 58.7667 144.99V144.986Z" fill="white"/>
<path d="M67.7236 141.685C69.3101 141.685 70.2616 140.797 71.2772 139.653H71.9742C70.8325 141.493 69.1177 143.335 66.5157 143.335C64.6107 143.335 63.4048 142.447 63.4048 140.161C63.4048 137.875 64.6748 133.051 68.7992 133.051C70.576 133.051 71.0207 133.939 71.0207 134.955C71.0207 137.241 68.7992 139.017 66.4516 139.145C66.4516 139.399 66.3874 139.717 66.3874 139.971C66.2613 141.367 66.768 141.685 67.7195 141.685H67.7236ZM68.8675 134.195C67.8519 134.195 66.9004 136.353 66.4557 138.321C67.978 138.193 69.3763 136.671 69.3763 135.019C69.3763 134.511 69.2501 134.193 68.8695 134.193L68.8675 134.195Z" fill="#6D1D0E"/>
<path d="M66.4474 144.986C63.4648 144.986 61.688 143.208 61.688 140.162C61.688 136.544 63.8453 131.402 68.733 131.402C71.0807 131.402 72.541 132.736 72.541 134.958C72.541 136.038 72.1604 137.116 71.5254 138.006H71.9059C72.4768 138.006 73.0477 138.324 73.3021 138.832C73.6186 139.34 73.5565 139.974 73.238 140.482C71.4612 143.53 69.1756 144.99 66.4474 144.99V144.986Z" fill="white"/>
<path d="M80.6684 133.304L76.6702 136.098C76.8605 136.034 77.1149 136.034 77.3052 136.034C78.7655 136.034 79.5267 137.114 79.5267 138.382C79.5267 138.636 79.5267 138.89 79.4626 139.144L79.2723 140.16C79.2081 140.35 79.1461 140.604 79.1461 140.794C79.1461 141.174 79.3364 141.556 79.9073 141.556C80.4161 141.556 80.4782 141.492 80.6064 141.428C80.4802 142.824 79.2743 143.46 78.7655 143.46C77.1149 143.46 76.2276 142.634 76.2276 141.174C76.2276 140.856 76.2917 140.54 76.3537 140.158L76.544 139.396C76.6081 139.142 76.6081 138.888 76.6081 138.634C76.6081 138.062 76.4179 137.682 75.909 137.682C75.4643 137.682 75.0196 137.936 74.4487 138.444L73.4331 143.396H70.5767L73.4973 129.81L76.4799 129.43L74.9576 136.476L78.8296 133.428H80.6705V133.3L80.6684 133.304Z" fill="#6D1D0E"/>
<path d="M78.7577 144.986C77.043 144.986 75.7109 144.288 75.0759 143.082L74.9497 143.59C74.7594 144.352 74.1244 144.86 73.3633 144.86H70.5068C70 144.86 69.5553 144.606 69.2368 144.226C68.9203 143.844 68.7921 143.338 68.9203 142.83L71.8409 129.244C71.9671 128.546 72.538 128.038 73.2371 127.974L76.2197 127.594C76.7265 127.53 77.2995 127.722 77.6159 128.102C77.9965 128.484 78.1248 129.054 77.9965 129.562L77.4256 132.164L77.7421 131.91C78.0586 131.656 78.3771 131.53 78.7577 131.53H80.7247C81.4218 131.53 82.0568 131.974 82.3112 132.672C82.5015 133.37 82.2471 134.068 81.6762 134.512L80.28 135.464C80.8509 136.162 81.2315 137.114 81.2315 138.194C81.2315 138.574 81.1674 138.956 81.1053 139.336L81.0412 139.654C81.2315 139.718 81.4218 139.78 81.6121 139.908C82.0568 140.226 82.3112 140.796 82.3112 141.368C82.0568 143.716 80.0897 144.986 78.7577 144.986Z" fill="white"/>
<path d="M46.2597 140.608L50.4481 128.421H53.05V140.608L57.3667 128.421H58.7628L53.2403 143.274H50.3198V133.117L46.3859 143.274H43.4674V129.627C41.3102 130.325 40.2305 131.849 40.2305 134.071C40.2305 135.087 40.4849 135.277 40.4849 135.405C39.0888 135.405 38.3276 134.897 38.3276 133.501C38.3276 130.835 42.0093 128.295 45.3083 128.295C45.5627 128.295 45.8171 128.295 46.1335 128.359L46.2597 140.61V140.608Z" fill="#411F1F"/>
<path d="M60.0435 141.685C61.6299 141.685 62.5814 140.797 63.597 139.653H64.2941C63.1523 141.493 61.4376 143.335 58.8355 143.335C56.9305 143.335 55.7246 142.447 55.7246 140.161C55.7246 137.875 56.9946 133.051 61.119 133.051C62.8958 133.051 63.3405 133.939 63.3405 134.955C63.3405 137.241 61.119 139.017 58.7714 139.145C58.7714 139.399 58.7073 139.717 58.7073 139.971C58.6431 141.367 59.0879 141.685 60.0393 141.685H60.0435ZM61.2493 134.195C60.2338 134.195 59.2823 136.353 58.8376 138.321C60.3599 138.193 61.7561 136.671 61.7561 135.019C61.7561 134.511 61.6299 134.193 61.2493 134.193V134.195Z" fill="#411F1F"/>
<path d="M67.7236 141.685C69.3101 141.685 70.2616 140.797 71.2772 139.653H71.9742C70.8325 141.493 69.1177 143.335 66.5157 143.335C64.6107 143.335 63.4048 142.447 63.4048 140.161C63.4048 137.875 64.6748 133.051 68.7992 133.051C70.576 133.051 71.0207 133.939 71.0207 134.955C71.0207 137.241 68.7992 139.017 66.4516 139.145C66.4516 139.399 66.3874 139.717 66.3874 139.971C66.2613 141.367 66.768 141.685 67.7195 141.685H67.7236ZM68.8675 134.195C67.8519 134.195 66.9004 136.353 66.4557 138.321C67.978 138.193 69.3763 136.671 69.3763 135.019C69.3763 134.511 69.2501 134.193 68.8695 134.193L68.8675 134.195Z" fill="#411F1F"/>
<path d="M80.6684 133.306L76.6702 136.1C76.8605 136.036 77.1149 136.036 77.3052 136.036C78.7655 136.036 79.5267 137.116 79.5267 138.384C79.5267 138.638 79.5267 138.892 79.4626 139.146L79.2723 140.162C79.2081 140.352 79.1461 140.606 79.1461 140.796C79.1461 141.178 79.3364 141.558 79.9073 141.558C80.4161 141.558 80.4782 141.494 80.6064 141.43C80.4802 142.826 79.2743 143.462 78.7655 143.462C77.1149 143.462 76.2276 142.636 76.2276 141.176C76.2276 140.858 76.2917 140.542 76.3537 140.16L76.544 139.398C76.6081 139.144 76.6081 138.89 76.6081 138.636C76.6081 138.064 76.4179 137.684 75.909 137.684C75.4643 137.684 75.0196 137.938 74.4487 138.446L73.4331 143.398H70.5767L73.4973 129.812L76.4799 129.43L74.9576 136.476L78.8296 133.428H80.6705V133.302L80.6684 133.306Z" fill="#411F1F"/>
<path d="M34.394 93.5054L31.792 104.805H32.1084C36.5512 104.805 40.1046 100.361 40.1046 96.5533C40.1046 93.6335 38.0094 91.0935 32.7434 91.0935C26.2054 91.0935 18.7801 95.0294 18.7801 103.409C18.7801 106.011 19.4792 106.393 19.5412 106.837C15.8596 106.837 13.5762 105.567 13.5762 102.139C13.5762 95.1553 23.287 88.6816 33.821 88.6816C42.0075 88.6816 45.6891 92.6175 45.6891 96.7433C45.6891 99.7272 43.7221 102.965 40.1046 104.805C44.8639 105.693 46.7047 109.185 46.7047 112.995C46.7047 117.882 43.7863 127.596 34.5201 127.596C32.1084 127.596 28.9997 126.962 28.9997 123.85C28.9997 123.024 29.2541 122.072 29.6968 120.93C31.0929 122.264 32.1726 122.77 33.4405 122.77C37.5027 122.77 38.9629 117.5 38.9629 113.629C38.9629 110.075 37.7571 107.153 33.6949 107.153C33.2502 107.153 32.1084 107.217 31.157 107.281L26.5881 126.832H18.5919L26.1434 94.5214L34.394 93.5054Z" fill="#6D1D0E"/>
<path d="M34.5908 129.562C31.7986 129.562 29.7034 128.8 28.4355 127.404C28.1811 128.166 27.4199 128.674 26.6588 128.674H18.5985C18.0276 128.674 17.4568 128.42 17.0762 127.976C16.6956 127.532 16.5694 126.896 16.6956 126.326L20.9481 108.171C20.5675 108.553 20.1228 108.743 19.6161 108.743C12.7616 108.743 11.7461 104.617 11.7461 102.141C11.7461 94.1436 22.3442 86.8418 33.8959 86.8418C40.7503 86.8418 47.6668 89.9517 47.6668 96.8074C47.6668 99.6013 46.3969 102.267 44.1755 104.361C47.0319 106.075 48.6183 109.123 48.6183 113.059C48.6183 115.725 47.8571 119.725 45.6978 123.216C43.222 127.342 39.3521 129.564 34.5908 129.564V129.562ZM30.9733 124.166C31.0995 125.246 32.3053 125.754 34.5908 125.754C42.9676 125.754 44.8725 116.359 44.8725 113.059C44.8725 110.583 43.9831 107.535 39.8589 106.775C39.0336 106.647 38.4628 106.013 38.3366 105.187C38.2725 104.805 38.3366 104.489 38.4628 104.171C37.8278 104.743 37.0666 105.313 36.2414 105.695C40.4297 106.965 40.9386 111.535 40.9386 113.693C40.9386 119.024 38.591 124.738 33.5132 124.738C32.6239 124.674 31.7986 124.548 30.9754 124.166H30.9733ZM21.0102 124.864H25.1365L29.389 106.899C29.5151 106.391 29.8337 106.011 30.2142 105.757C29.9598 105.313 29.8978 104.805 30.024 104.361L31.9289 95.7274L27.7405 96.2354L21.0122 124.864H21.0102ZM30.4025 119.15C30.6569 119.214 30.9113 119.404 31.1016 119.594C32.3715 120.8 32.9424 120.928 33.5132 120.928C36.1152 120.928 37.1308 116.485 37.1308 113.691C37.1308 109.691 35.4802 109.183 33.7676 109.183C33.5774 109.183 33.1968 109.183 32.7521 109.247L30.4045 119.15H30.4025ZM23.8024 96.2354C22.0257 97.8853 20.7558 100.235 20.7558 103.345C20.7558 104.741 21.0102 105.185 21.1363 105.503C21.2004 105.693 21.3266 105.885 21.4528 106.137L23.8003 96.2333L23.8024 96.2354ZM19.2955 95.5354C17.01 97.4393 15.5518 99.7892 15.5518 102.137C15.5518 102.899 15.5518 103.977 16.948 104.485C16.948 104.167 16.8838 103.723 16.8838 103.343C16.948 100.423 17.7732 97.7573 19.2955 95.5354ZM40.3656 91.8535C41.5715 93.1875 42.0803 94.9014 42.0803 96.5513C42.0803 98.7732 41.0647 101.249 39.4142 103.153C42.1423 101.693 43.857 99.2812 43.857 96.8053C43.857 94.6474 42.587 92.9335 40.3656 91.8535ZM36.3055 93.6314C36.3055 93.7595 36.3055 93.8214 36.2414 93.9495L34.2744 102.393C36.5599 101.313 38.2084 98.7753 38.2084 96.6174C38.2725 95.0294 37.3831 94.1415 36.3055 93.6335V93.6314Z" fill="white"/>
<path d="M69.1155 102.645L65.6241 119.087C65.498 119.721 65.4338 120.229 65.4338 120.611C65.4338 121.945 66.0688 122.389 67.4008 122.389C69.3037 122.389 70.5737 120.549 71.3348 118.135H73.3659C70.6378 126.007 66.257 127.087 63.6551 127.087C61.0531 127.087 59.1482 125.499 58.8958 122.517C56.4842 126.453 53.756 127.087 51.7249 127.087C48.8044 127.087 46.521 125.373 46.521 121.311C46.521 120.423 46.6472 119.343 46.9016 118.137L50.2026 102.584H57.1833L53.6919 119.025C53.6278 119.533 53.5657 119.913 53.5657 120.359C53.5657 121.501 53.9463 122.327 55.026 122.327C56.9289 122.327 58.1988 120.487 58.8979 118.073L62.199 102.52H69.1176V102.648L69.1155 102.645Z" fill="#6D1D0E"/>
<path d="M63.6469 128.737C61.2352 128.737 59.3303 127.721 58.2527 125.943C56.4118 127.785 54.2546 128.737 51.7147 128.737C48.4136 128.737 44.9243 126.769 44.9243 121.309C44.9243 120.357 45.0505 119.216 45.369 117.818L48.6701 102.264C48.8604 101.502 49.4953 100.994 50.2565 100.994H57.2371C57.7439 100.994 58.1885 101.248 58.5071 101.628C58.8235 102.01 58.9518 102.516 58.8235 103.024L55.3322 119.465C55.2681 119.847 55.206 120.163 55.206 120.481V120.799C56.3477 120.545 57.0468 118.513 57.3012 117.815L60.6023 102.326C60.7926 101.564 61.4276 101.056 62.1887 101.056H69.1693C69.6761 101.056 70.1208 101.31 70.4393 101.69C70.7558 102.072 70.884 102.578 70.7558 103.086L67.2644 119.527C67.1382 120.035 67.0741 120.415 67.0741 120.733V120.861H67.3906C68.7226 120.861 69.5478 118.513 69.7381 117.751C69.9284 117.053 70.5634 116.61 71.3245 116.61H73.3556C73.8624 116.61 74.3712 116.863 74.6877 117.307C75.0041 117.751 75.0682 118.323 74.8779 118.767C72.0216 127.019 67.1982 128.733 63.6448 128.733L63.6469 128.737ZM59.4564 120.993C60.0273 121.247 60.4079 121.755 60.472 122.327C60.6623 124.485 61.6778 125.437 63.6448 125.437C65.1671 125.437 66.5632 124.929 67.7711 123.977H67.3906C64.2177 123.977 63.7731 121.819 63.7731 120.549C63.7731 119.977 63.8372 119.344 64.0275 118.646L67.0741 104.172H63.4566L60.4741 118.392C60.4741 118.434 60.4527 118.477 60.4099 118.52C60.1555 119.6 59.8391 120.36 59.4585 120.996L59.4564 120.993ZM51.5244 104.298L48.5418 118.518C48.2874 119.659 48.1613 120.549 48.1613 121.311C48.1613 124.105 49.3671 125.501 51.7147 125.501C52.7943 125.501 54.1905 125.311 55.5866 124.041C55.3963 124.041 55.206 124.105 55.0157 124.105C53.6196 124.105 51.907 123.153 51.907 120.488C51.907 119.98 51.9711 119.408 52.0973 118.838L55.144 104.364H51.5264V104.3L51.5244 104.298Z" fill="white"/>
<path d="M81.6152 102.643L80.9802 105.626C82.6928 104.167 84.5336 102.643 86.8191 102.643C88.9764 102.643 90.1822 104.421 90.1822 106.26C90.1822 107.974 89.0405 109.816 86.6909 109.816C83.9627 109.816 85.3589 106.642 83.8986 106.642C82.4384 106.642 81.5511 107.34 80.3452 108.484L76.4733 126.894H69.4927L74.6325 102.707H81.6131V102.643H81.6152Z" fill="#6D1D0E"/>
<path d="M76.4737 128.481H69.493C68.9842 128.481 68.5416 128.227 68.2231 127.847C67.9066 127.465 67.7784 126.959 67.9066 126.451L73.0464 102.264C73.2367 101.502 73.8717 100.994 74.6329 100.994H81.6135C82.1202 100.994 82.5649 101.184 82.8834 101.628C83.0096 101.756 83.0737 101.882 83.1378 102.072C84.2175 101.5 85.4234 101.056 86.8195 101.056C89.6759 101.056 91.769 103.342 91.769 106.326C91.769 108.802 89.9923 111.468 86.6292 111.468C83.9011 111.468 83.3281 109.436 83.1378 108.42C82.7573 108.548 82.3767 108.864 81.8058 109.372L78.0622 127.209C77.8719 127.907 77.2369 128.479 76.4757 128.479L76.4737 128.481ZM71.5221 125.181H75.1396L78.7571 108.104C78.8212 107.786 79.0115 107.47 79.2659 107.216C79.4562 107.026 79.6465 106.898 79.8368 106.708C79.4562 106.326 79.328 105.756 79.4562 105.248L79.6465 104.232H76.029L71.5221 125.181ZM86.501 108.168H86.6912C88.4679 108.168 88.5321 106.582 88.5321 106.264C88.5321 106.074 88.4679 104.296 86.8174 104.296C85.9922 104.296 85.1669 104.614 84.4057 105.058C85.866 105.376 86.1824 106.962 86.3086 107.534C86.3727 107.724 86.4348 108.042 86.4989 108.168H86.501Z" fill="white"/>
<path d="M110.744 102.645L105.985 125.116C108.906 124.036 110.744 122.386 112.078 118.196H114.11C112.205 124.608 108.525 126.448 105.543 127.21L104.843 130.702C103.383 137.621 99.323 138.953 96.1482 138.953C93.1656 138.953 90.7539 137.429 90.7539 134.256C90.7539 130.194 95.0064 128.162 98.6239 127.018L99.1948 124.478C97.7987 126.002 95.8937 127.144 93.42 127.144C90.119 127.144 87.0103 125.112 87.0103 119.336C87.0103 112.798 91.0083 102.387 99.4492 102.387C102.177 102.387 103.383 103.467 103.383 104.863V105.181L103.892 102.641H110.746L110.744 102.645ZM95.0064 135.148C96.022 135.148 97.1637 133.688 97.7987 130.832L98.1151 129.436C95.6393 130.388 93.3559 131.594 93.3559 133.562C93.3559 134.26 93.9268 135.148 95.0064 135.148ZM94.1171 118.642C94.1171 122.388 95.6393 122.45 96.5287 122.45C97.8607 122.45 99.7015 121.116 100.401 118.642L102.876 107.153C102.812 106.645 102.432 105.375 100.909 105.375C96.7211 105.439 94.1191 114.134 94.1191 118.642H94.1171Z" fill="#6D1D0E"/>
<path d="M96.1476 140.543C91.9592 140.543 89.1028 138.003 89.1028 134.195C89.1028 132.037 89.9922 130.133 91.831 128.61C88.4679 128.038 85.293 125.372 85.293 119.342C85.293 111.534 90.1804 100.807 99.3825 100.807C100.779 100.807 101.92 101.061 102.746 101.505C103.062 101.251 103.443 101.061 103.825 101.061H110.806C111.315 101.061 111.757 101.315 112.076 101.695C112.392 102.075 112.521 102.583 112.392 103.091L108.394 121.88C109.219 120.992 109.916 119.722 110.551 117.754C110.742 117.056 111.377 116.612 112.138 116.612H114.169C114.678 116.612 115.185 116.866 115.501 117.246C115.817 117.69 115.882 118.198 115.755 118.706C113.788 125.308 110.043 127.53 106.998 128.546L106.491 131.085C104.777 138.893 99.8913 140.543 96.1455 140.543H96.1476ZM92.7845 135.909C93.6097 137.115 95.2603 137.305 96.0855 137.305C101.163 137.305 102.559 133.369 103.194 130.385L103.893 126.894C103.958 126.511 104.21 126.132 104.528 125.942C104.338 125.624 104.274 125.18 104.338 124.8L108.717 104.358H105.099L104.845 105.564C104.781 105.944 104.591 106.262 104.338 106.452C104.402 106.642 104.464 106.896 104.464 107.086V107.594L101.989 119.084V119.148C101.544 120.798 100.592 122.068 99.5769 122.956C99.7031 122.956 99.8313 123.02 99.9575 123.084C100.592 123.402 100.973 124.164 100.783 124.862L100.212 127.402C100.086 127.845 99.8313 128.227 99.4507 128.481C99.7672 128.864 99.8313 129.307 99.7672 129.815L99.4507 131.211C98.6896 134.767 97.039 136.797 95.0721 136.797C94.1206 136.797 93.3595 136.479 92.7865 135.909H92.7845ZM95.0059 133.497C95.0059 133.54 95.0059 133.54 95.0059 133.497ZM95.4485 132.671C95.132 132.989 95.0038 133.179 95.0038 133.369C95.13 133.241 95.3203 133.051 95.4485 132.671ZM99.3204 104.042C91.831 104.106 88.594 114.2 88.594 119.342C88.594 123.342 90.2446 125.5 93.4174 125.5C94.8776 125.5 96.2096 124.992 97.3514 123.976C97.097 124.04 96.7805 124.04 96.5261 124.04C93.86 124.04 92.4639 122.2 92.4639 118.644C92.4639 115.978 93.225 112.486 94.4309 109.694C95.7629 106.646 97.4134 104.742 99.3183 104.045L99.3204 104.042ZM100.845 107.026C98.4331 107.026 95.705 113.946 95.705 118.644C95.705 120.358 96.0855 120.738 96.0855 120.738H96.4661C96.9749 120.738 98.2428 119.976 98.7516 118.198L101.163 107.088C101.099 107.024 100.973 107.024 100.847 107.024L100.845 107.026Z" fill="white"/>
<path d="M120.52 123.085C124.328 123.085 126.676 120.927 129.087 118.197H130.738C128.01 122.641 123.883 127.147 117.409 127.147C112.84 127.147 109.858 124.925 109.858 119.465C109.858 114.005 113.031 102.262 122.932 102.262C127.248 102.262 128.264 104.484 128.264 106.896C128.264 112.481 122.932 116.735 117.157 117.115C117.093 117.813 117.031 118.449 117.031 119.083C117.031 122.257 118.173 123.083 120.522 123.083L120.52 123.085ZM123.312 104.804C120.837 104.804 118.489 110.01 117.538 114.769C121.281 114.515 124.582 110.833 124.582 106.772C124.518 105.566 124.202 104.804 123.312 104.804Z" fill="#6D1D0E"/>
<path d="M117.409 128.734C111.57 128.734 108.207 125.306 108.207 119.402C108.207 113.498 111.824 100.549 122.931 100.549C127.438 100.549 129.912 102.771 129.912 106.833C129.912 112.546 125.024 117.498 118.679 118.512V118.956C118.679 121.304 119.123 121.368 120.519 121.368C123.502 121.368 125.407 119.844 127.881 117.052C128.197 116.67 128.642 116.48 129.086 116.48H130.737C131.308 116.48 131.879 116.798 132.133 117.306C132.45 117.814 132.387 118.448 132.069 118.956C128.007 125.558 123.247 128.732 117.409 128.732V128.734ZM120.9 104.041C118.108 104.613 115.822 106.453 114.11 109.501C112.207 112.928 111.508 116.992 111.508 119.404C111.508 123.53 113.413 125.434 117.411 125.434C118.933 125.434 120.331 125.18 121.663 124.608C121.283 124.672 120.902 124.672 120.457 124.672C116.966 124.672 115.317 122.832 115.317 118.958C115.317 118.324 115.382 117.624 115.444 116.926C115.508 116.418 115.76 115.974 116.143 115.72C115.888 115.338 115.762 114.894 115.826 114.45C116.587 111.148 118.238 106.071 120.904 104.039L120.9 104.041ZM122.867 106.579C122.042 107.151 120.772 109.18 119.82 112.228C121.597 111.086 122.867 108.926 122.867 106.707V106.579ZM125.597 104.421C125.914 104.929 126.106 105.691 126.106 106.769C126.106 108.482 125.597 110.132 124.774 111.592C125.916 110.196 126.551 108.608 126.551 106.83C126.615 105.943 126.486 104.991 125.599 104.419L125.597 104.421Z" fill="white"/>
<path d="M138.099 102.643L137.464 105.626C139.179 104.167 141.017 102.643 143.303 102.643C145.46 102.643 146.666 104.421 146.666 106.26C146.666 107.974 145.524 109.816 143.175 109.816C140.447 109.816 141.843 106.642 140.383 106.642C138.922 106.642 138.035 107.34 136.829 108.484L132.957 126.894H125.977L131.116 102.707H138.097V102.643H138.099Z" fill="#6D1D0E"/>
<path d="M132.958 128.481H125.977C125.468 128.481 125.026 128.227 124.707 127.847C124.391 127.465 124.262 126.959 124.391 126.451L129.53 102.264C129.721 101.502 130.356 100.994 131.117 100.994H138.097C138.606 100.994 139.049 101.184 139.367 101.628C139.494 101.756 139.558 101.882 139.622 102.072C140.701 101.5 141.907 101.056 143.303 101.056C146.16 101.056 148.253 103.342 148.253 106.326C148.253 108.802 146.476 111.468 143.113 111.468C140.385 111.468 139.812 109.436 139.622 108.42C139.241 108.548 138.861 108.864 138.29 109.372L134.546 127.209C134.42 127.907 133.721 128.479 132.96 128.479L132.958 128.481ZM128.008 125.181H131.626L135.243 108.104C135.307 107.786 135.497 107.47 135.752 107.216C135.942 107.026 136.132 106.898 136.323 106.708C135.942 106.326 135.814 105.756 135.942 105.248L136.132 104.232H132.515L128.008 125.181ZM142.985 108.168H143.175C144.952 108.168 145.016 106.454 145.016 106.264C145.016 106.074 144.952 104.296 143.303 104.296C142.478 104.296 141.653 104.614 140.892 105.058C142.352 105.376 142.668 106.962 142.797 107.534C142.861 107.724 142.923 108.042 142.987 108.168H142.985Z" fill="white"/>
<path d="M34.394 93.5054L31.792 104.805H32.1084C36.5512 104.805 40.1046 100.361 40.1046 96.5533C40.1046 93.6335 38.0094 91.0935 32.7434 91.0935C26.2054 91.0935 18.7801 95.0294 18.7801 103.409C18.7801 106.011 19.4792 106.393 19.5412 106.837C15.8596 106.837 13.5762 105.567 13.5762 102.139C13.5762 95.1553 23.287 88.6816 33.821 88.6816C42.0075 88.6816 45.6891 92.6175 45.6891 96.7433C45.6891 99.7272 43.7221 102.965 40.1046 104.805C44.8639 105.693 46.7047 109.185 46.7047 112.995C46.7047 117.882 43.7863 127.596 34.5201 127.596C32.1084 127.596 28.9997 126.962 28.9997 123.85C28.9997 123.024 29.2541 122.072 29.6968 120.93C31.0929 122.264 32.1726 122.77 33.4405 122.77C37.5027 122.77 38.9629 117.5 38.9629 113.629C38.9629 110.075 37.7571 107.153 33.6949 107.153C33.2502 107.153 32.1084 107.217 31.157 107.281L26.5881 126.832H18.5919L26.1434 94.5214L34.394 93.5054Z" fill="#411F1F"/>
<path d="M69.1155 102.645L65.6241 119.087C65.498 119.721 65.4338 120.229 65.4338 120.611C65.4338 121.945 66.0688 122.389 67.4008 122.389C69.3037 122.389 70.5737 120.549 71.3348 118.135H73.3659C70.6378 126.007 66.257 127.087 63.6551 127.087C61.0531 127.087 59.1482 125.499 58.8958 122.517C56.4842 126.453 53.756 127.087 51.7249 127.087C48.8044 127.087 46.521 125.373 46.521 121.311C46.521 120.423 46.6472 119.343 46.9016 118.137L50.2026 102.584H57.1833L53.6919 119.025C53.6278 119.533 53.5657 119.913 53.5657 120.359C53.5657 121.501 53.9463 122.327 55.026 122.327C56.9289 122.327 58.1988 120.487 58.8979 118.073L62.199 102.52H69.1176V102.648L69.1155 102.645Z" fill="#411F1F"/>
<path d="M81.6152 102.643L80.9802 105.626C82.6928 104.167 84.5336 102.643 86.8191 102.643C88.9764 102.643 90.1822 104.421 90.1822 106.26C90.1822 107.974 89.0405 109.816 86.6909 109.816C83.9627 109.816 85.3589 106.642 83.8986 106.642C82.4384 106.642 81.5511 107.34 80.3452 108.484L76.4733 126.894H69.4927L74.6325 102.707H81.6131V102.643H81.6152Z" fill="#411F1F"/>
<path d="M110.744 102.645L105.985 125.116C108.906 124.036 110.744 122.386 112.078 118.196H114.11C112.205 124.608 108.525 126.448 105.543 127.21L104.843 130.702C103.383 137.621 99.323 138.953 96.1482 138.953C93.1656 138.953 90.7539 137.429 90.7539 134.256C90.7539 130.194 95.0064 128.162 98.6239 127.018L99.1948 124.478C97.7987 126.002 95.8937 127.144 93.42 127.144C90.119 127.144 87.0103 125.112 87.0103 119.336C87.0103 112.798 91.0083 102.387 99.4492 102.387C102.177 102.387 103.383 103.467 103.383 104.863V105.181L103.892 102.641H110.746L110.744 102.645ZM95.0064 135.148C96.022 135.148 97.1637 133.688 97.7987 130.832L98.1151 129.436C95.6393 130.388 93.3559 131.594 93.3559 133.562C93.3559 134.26 93.9268 135.15 95.0064 135.15V135.148ZM94.1171 118.642C94.1171 122.388 95.6393 122.45 96.5287 122.45C97.8607 122.45 99.7015 121.116 100.401 118.642L102.876 107.153C102.812 106.645 102.432 105.375 100.909 105.375C96.7211 105.439 94.1191 114.134 94.1191 118.642H94.1171Z" fill="#411F1F"/>
<path d="M120.52 123.085C124.328 123.085 126.676 120.927 129.087 118.197H130.738C128.01 122.641 123.883 127.147 117.409 127.147C112.84 127.147 109.858 124.925 109.858 119.465C109.858 114.005 113.031 102.262 122.932 102.262C127.248 102.262 128.264 104.484 128.264 106.896C128.264 112.481 122.932 116.735 117.157 117.115C117.093 117.813 117.031 118.449 117.031 119.083C117.031 122.257 118.173 123.083 120.522 123.083L120.52 123.085ZM123.312 104.804C120.837 104.804 118.489 110.01 117.538 114.769C121.281 114.515 124.582 110.833 124.582 106.772C124.518 105.566 124.202 104.804 123.312 104.804Z" fill="#411F1F"/>
<path d="M138.099 102.643L137.464 105.626C139.179 104.167 141.017 102.643 143.303 102.643C145.46 102.643 146.666 104.421 146.666 106.26C146.666 107.974 145.524 109.816 143.175 109.816C140.447 109.816 141.843 106.642 140.383 106.642C138.922 106.642 138.035 107.34 136.829 108.484L132.957 126.894H125.977L131.116 102.707H138.097V102.643H138.099Z" fill="#411F1F"/>
<path d="M9.39232 120.42C11.4875 120.864 13.6448 123.022 16.1827 123.022C16.7535 123.022 17.2623 122.958 17.8952 122.704C17.705 124.672 16.8797 125.878 15.8 125.878C12.8816 125.878 10.3417 121.308 6.78829 121.308H6.34359L9.32613 107.278C7.54943 107.976 6.46976 109.5 6.46976 111.658C6.46976 112.674 6.72417 112.864 6.72417 113.054C5.32804 113.054 4.56689 112.546 4.56689 111.086C4.56689 108.42 8.31058 105.816 11.6758 105.816C11.9302 105.816 12.2466 105.816 12.501 105.88L9.39025 120.418L9.39232 120.42Z" fill="#6D1D0E"/>
<path d="M15.7332 127.467C13.7662 127.467 12.2419 126.197 10.7196 124.991C9.32346 123.911 8.0535 122.897 6.72149 122.897H6.46709C5.96035 122.961 5.38742 122.769 5.07096 122.389C4.69039 122.009 4.56422 121.437 4.69039 120.929L6.0224 114.646C3.23014 114.328 2.91162 112.106 2.91162 111.09C2.91162 107.916 6.71943 104.17 11.6069 104.17C11.9234 104.17 12.2419 104.17 12.4963 104.234C12.941 104.298 13.3857 104.488 13.7021 104.868C14.0186 105.25 14.0827 105.756 14.0186 106.202L11.2263 119.279C11.7331 119.533 12.2419 119.787 12.7486 120.041C13.8903 120.677 15.0341 121.311 16.1117 121.311C16.4923 121.311 16.8729 121.247 17.1914 121.121C17.6981 120.931 18.3331 120.993 18.7778 121.311C19.2225 121.629 19.4769 122.199 19.4128 122.771C19.1584 126.263 17.3176 127.469 15.7312 127.469L15.7332 127.467Z" fill="white"/>
<path d="M16.0534 119.022C16.8146 119.022 17.766 118.514 18.4652 117.942C18.0205 120.228 16.5602 120.926 14.9737 120.926C13.0687 120.926 11.8628 119.974 11.8628 117.688C11.8628 115.402 13.1949 110.514 17.3213 110.514C19.0981 110.514 19.5428 111.466 19.5428 112.482C19.5428 114.83 17.3213 116.608 14.9096 116.736C14.9096 116.926 14.8454 117.18 14.8454 117.37C14.8454 118.576 15.3522 119.02 16.0513 119.02L16.0534 119.022ZM17.4496 111.594C16.434 111.594 15.4184 113.816 15.0378 115.784C16.6243 115.72 17.9563 114.134 17.9563 112.482C17.9563 111.91 17.8302 111.594 17.4496 111.594Z" fill="#6D1D0E"/>
<path d="M14.9791 122.578C12.0606 122.578 10.2197 120.736 10.2197 117.754C10.2197 114.072 12.4412 108.93 17.3289 108.93C19.6765 108.93 21.2009 110.326 21.2009 112.486C21.2009 114.072 20.5018 115.47 19.36 116.548C19.9309 116.928 20.2495 117.564 20.1212 118.262C19.5503 120.992 17.7095 122.578 14.9812 122.578H14.9791Z" fill="white"/>
<path d="M9.39232 120.42C11.4875 120.864 13.6448 123.022 16.1827 123.022C16.7535 123.022 17.2623 122.958 17.8952 122.704C17.705 124.672 16.8797 125.878 15.8 125.878C12.8816 125.878 10.3417 121.308 6.78829 121.308H6.34359L9.32613 107.278C7.54943 107.976 6.46976 109.5 6.46976 111.658C6.46976 112.674 6.72417 112.864 6.72417 113.054C5.32804 113.054 4.56689 112.546 4.56689 111.086C4.56689 108.42 8.31058 105.816 11.6758 105.816C11.9302 105.816 12.2466 105.816 12.501 105.88L9.39025 120.418L9.39232 120.42Z" fill="#411F1F"/>
<path d="M16.0534 119.022C16.8146 119.022 17.766 118.514 18.4652 117.942C18.0205 120.228 16.5602 120.926 14.9737 120.926C13.0687 120.926 11.8628 119.974 11.8628 117.688C11.8628 115.402 13.1949 110.514 17.3213 110.514C19.0981 110.514 19.5428 111.466 19.5428 112.482C19.5428 114.83 17.3213 116.608 14.9096 116.736C14.9096 116.926 14.8454 117.18 14.8454 117.37C14.8454 118.576 15.3522 119.02 16.0513 119.02L16.0534 119.022ZM17.4496 111.594C16.434 111.594 15.4184 113.816 15.0378 115.784C16.6243 115.72 17.9563 114.134 17.9563 112.482C17.9563 111.91 17.8302 111.594 17.4496 111.594Z" fill="#411F1F"/>
<path d="M121.678 160.494H120.768V158.462C120.768 158.179 120.726 157.906 120.652 157.646C121.039 156.93 121.235 156.238 121.235 155.585C121.235 154.933 121.076 154.398 120.762 153.962C120.404 153.467 119.885 153.204 119.256 153.204C118.797 153.204 118.4 153.332 118.075 153.586C117.707 153.873 117.51 154.284 117.51 154.774C117.51 154.86 117.514 154.945 117.523 155.028L117.388 154.286H113.314L113.531 155.476H112.486C112.37 155.271 112.23 155.086 112.06 154.927C111.547 154.45 110.869 154.208 110.041 154.208C109.09 154.208 108.256 154.549 107.551 155.224C107.092 154.549 106.343 154.187 105.357 154.187C105.222 154.187 105.09 154.196 104.96 154.208C104.918 154.212 104.877 154.22 104.835 154.224C104.747 154.237 104.66 154.249 104.575 154.268C104.527 154.278 104.482 154.288 104.436 154.301C104.356 154.322 104.277 154.344 104.198 154.369C104.153 154.383 104.107 154.398 104.064 154.414C104.039 154.423 104.014 154.431 103.99 154.439L104.023 154.282H99.8818L99.6295 155.472H98.7815L99.6894 151.214L99.8859 150.297L98.8787 150.433L96.0885 150.809L95.6272 150.871L95.53 151.323L94.8764 154.386C94.5496 154.249 94.1463 154.183 93.6603 154.183C92.442 154.183 91.3789 154.613 90.4998 155.461C90.4978 155.463 90.4936 155.468 90.4916 155.47H89.0437C88.932 155.226 88.7811 155.005 88.5866 154.807C88.1295 154.342 87.4139 154.107 86.4583 154.107C85.0808 154.107 83.9246 154.565 83.0187 155.47C82.1686 156.32 81.5398 157.341 81.1551 158.503C80.7787 159.635 80.5884 160.694 80.5884 161.65C80.5884 162.893 80.9255 163.839 81.5915 164.461C82.2451 165.074 83.1469 165.384 84.27 165.384C85.3187 165.384 86.2908 165.123 87.1864 164.607H89.1368C89.7221 165.121 90.4337 165.384 91.261 165.384C92.0304 165.384 92.7171 165.173 93.3004 164.758C93.3686 164.71 93.4307 164.657 93.4969 164.607H94.229C94.2559 164.632 94.2787 164.659 94.3056 164.682C94.7565 165.07 95.3356 165.268 96.0244 165.268C96.5994 165.268 97.1268 165.167 97.6128 164.975L97.5508 165.268H101.692L101.832 164.607H102.473L102.333 165.268H106.474L106.614 164.607H108.66C108.678 164.628 108.695 164.646 108.714 164.667C108.732 164.686 108.747 164.706 108.765 164.723C108.811 164.766 108.863 164.805 108.912 164.845C108.935 164.861 108.954 164.882 108.976 164.898C109.024 164.931 109.076 164.962 109.125 164.991C109.154 165.01 109.181 165.028 109.212 165.047C109.258 165.072 109.307 165.092 109.355 165.113C109.394 165.132 109.431 165.152 109.473 165.169C109.512 165.185 109.555 165.196 109.597 165.21C109.651 165.229 109.702 165.249 109.758 165.264C109.785 165.272 109.816 165.276 109.845 165.282C109.917 165.301 109.99 165.318 110.066 165.332C110.124 165.342 110.188 165.346 110.248 165.355C110.298 165.361 110.346 165.369 110.397 165.373C110.513 165.382 110.631 165.388 110.753 165.388C111.498 165.388 112.308 165.132 113.227 164.611H115.837C116.292 165.117 116.927 165.388 117.686 165.388C118.54 165.388 119.399 165.099 120.236 164.529C121.095 163.944 121.769 162.91 122.3 161.365L122.6 160.492H121.674L121.678 160.494ZM117.624 155.48H117.607L117.591 155.387C117.599 155.42 117.614 155.449 117.624 155.48ZM119.868 163.988C119.138 164.483 118.412 164.731 117.69 164.731C117.084 164.731 116.613 164.525 116.277 164.112C115.942 163.699 115.657 163.017 115.425 162.063C114.716 162.811 113.926 163.443 113.053 163.957C112.18 164.471 111.417 164.729 110.759 164.729C109.984 164.729 109.429 164.523 109.094 164.11C108.759 163.697 108.592 163.176 108.592 162.544C108.592 162.274 108.623 161.968 108.689 161.625C108.753 161.285 108.821 160.952 108.891 160.63C108.962 160.308 109.011 160.101 109.036 160.011C109.14 159.56 109.237 159.114 109.326 158.677C109.417 158.239 109.462 157.884 109.462 157.613C109.462 156.956 109.231 156.628 108.765 156.628C108.43 156.628 108.132 156.793 107.874 157.122C107.615 157.45 107.408 157.879 107.253 158.408L105.936 164.613H103.148L104.56 157.943C104.6 157.789 104.618 157.628 104.618 157.46C104.618 156.892 104.424 156.61 104.037 156.61C103.675 156.61 103.363 156.775 103.098 157.103C102.833 157.431 102.624 157.867 102.469 158.408L101.152 164.613H98.3636L98.5994 163.504C97.9024 164.244 97.0441 164.613 96.0202 164.613C95.4907 164.613 95.0626 164.471 94.7317 164.188C94.4028 163.905 94.2001 163.492 94.1215 162.951C93.7864 163.467 93.3831 163.893 92.9115 164.227C92.4399 164.562 91.8877 164.729 91.2569 164.729C90.5205 164.729 89.9083 164.477 89.4181 163.975C89.0541 163.604 88.8266 163.073 88.7314 162.389C87.4677 163.948 85.9785 164.729 84.2659 164.729C83.3103 164.729 82.5678 164.481 82.0383 163.986C81.5088 163.49 81.244 162.714 81.244 161.656C81.244 160.766 81.4219 159.788 81.7756 158.718C82.1314 157.648 82.6981 156.723 83.4799 155.945C84.2617 155.164 85.2525 154.776 86.4521 154.776C87.2257 154.776 87.7779 154.943 88.1068 155.278C88.4356 155.612 88.6011 156.038 88.6011 156.554C88.6011 157.006 88.5039 157.353 88.3115 157.597C88.1171 157.842 87.8731 157.964 87.5752 157.964C87.356 157.964 87.1305 157.886 86.8968 157.733C87.0519 157.307 87.1285 156.928 87.1285 156.593C87.1285 156.349 87.083 156.155 86.9919 156.013C86.9009 155.87 86.7665 155.8 86.5845 155.8C86.1977 155.8 85.8089 156.116 85.4221 156.748C85.0353 157.38 84.7188 158.146 84.4727 159.048C84.2266 159.951 84.1045 160.762 84.1045 161.485C84.1045 162.117 84.2142 162.544 84.4334 162.771C84.6527 162.996 85.0084 163.11 85.4986 163.11C86.1956 163.11 86.7934 162.949 87.2898 162.627C87.7159 162.35 88.1792 161.947 88.6797 161.423C88.7045 160.529 88.8907 159.593 89.2464 158.615C89.627 157.564 90.1958 156.676 90.9507 155.947C91.7057 155.218 92.6054 154.854 93.652 154.854C94.1815 154.854 94.5745 154.945 94.833 155.125C95.0915 155.304 95.2198 155.544 95.2198 155.839V155.916L96.1691 151.47L99.0359 151.084L96.8083 161.522C96.7566 161.716 96.7297 161.923 96.7297 162.142C96.7297 162.4 96.7917 162.583 96.9137 162.693C97.0358 162.802 97.2405 162.858 97.5239 162.858C97.8859 162.858 98.1982 162.703 98.4629 162.394C98.7256 162.086 98.9345 161.675 99.0896 161.165L100.409 154.951H103.197L102.984 155.957C103.642 155.222 104.43 154.854 105.346 154.854C106.482 154.854 107.148 155.408 107.34 156.517C108.05 155.422 108.947 154.873 110.031 154.873C110.689 154.873 111.212 155.055 111.599 155.414C111.986 155.775 112.18 156.322 112.18 157.058C112.18 157.431 112.135 157.846 112.044 158.305C111.953 158.763 111.824 159.321 111.657 159.977C111.553 160.378 111.46 160.766 111.376 161.146C111.291 161.526 111.249 161.826 111.249 162.045C111.249 162.586 111.533 162.856 112.102 162.856C112.552 162.856 113.076 162.683 113.669 162.334C114.263 161.985 114.774 161.547 115.2 161.018L114.095 154.947H116.826L117.581 159.123C118.162 158.503 118.613 157.925 118.935 157.382C119.258 156.841 119.419 156.397 119.419 156.048C119.419 155.932 119.413 155.854 119.401 155.817C119.219 155.843 119.111 155.856 119.072 155.856C118.749 155.856 118.518 155.757 118.375 155.556C118.232 155.356 118.162 155.096 118.162 154.774C118.162 154.491 118.265 154.268 118.472 154.107C118.679 153.946 118.937 153.865 119.248 153.865C119.661 153.865 119.984 154.026 120.216 154.348C120.447 154.67 120.565 155.083 120.565 155.585C120.565 156.205 120.348 156.872 119.916 157.586C119.483 158.301 118.776 159.168 117.796 160.186L117.969 161.152C117.982 161.216 118.023 161.421 118.096 161.762C118.166 162.102 118.286 162.371 118.453 162.563C118.621 162.757 118.84 162.852 119.111 162.852C119.485 162.852 119.833 162.695 120.158 162.379C120.48 162.063 120.712 161.654 120.855 161.152H121.668C121.19 162.544 120.586 163.488 119.858 163.984L119.868 163.988Z" fill="white"/>
<path d="M94.2634 156.053C93.7463 156.053 93.283 156.352 92.8693 156.951C92.4557 157.55 92.133 158.273 91.9013 159.117C91.6697 159.962 91.5518 160.705 91.5518 161.35C91.5518 161.994 91.6448 162.407 91.8331 162.587C92.0192 162.768 92.2488 162.857 92.5198 162.857C92.83 162.857 93.1424 162.715 93.4588 162.432C93.7753 162.149 93.9904 161.754 94.1083 161.253V161.156L95.0577 156.728C94.9419 156.278 94.6771 156.051 94.2634 156.051V156.053Z" fill="white"/>
<path d="M120.166 162.385C119.843 162.701 119.494 162.858 119.12 162.858C118.849 162.858 118.629 162.761 118.462 162.569C118.294 162.375 118.174 162.109 118.104 161.768C118.034 161.427 117.99 161.223 117.978 161.159L117.804 160.192C118.784 159.174 119.492 158.307 119.924 157.592C120.356 156.878 120.574 156.211 120.574 155.592C120.574 155.09 120.458 154.677 120.224 154.355C119.992 154.032 119.67 153.871 119.256 153.871C118.946 153.871 118.687 153.952 118.48 154.113C118.274 154.274 118.17 154.497 118.17 154.78C118.17 155.102 118.24 155.362 118.383 155.563C118.526 155.763 118.758 155.862 119.08 155.862C119.12 155.862 119.229 155.85 119.409 155.823C119.421 155.862 119.428 155.938 119.428 156.054C119.428 156.403 119.266 156.847 118.944 157.388C118.621 157.929 118.168 158.509 117.589 159.129L116.834 154.953H114.104L115.208 161.024C114.782 161.553 114.271 161.991 113.678 162.34C113.084 162.687 112.561 162.862 112.11 162.862C111.541 162.862 111.258 162.592 111.258 162.051C111.258 161.832 111.299 161.532 111.384 161.152C111.469 160.773 111.562 160.382 111.665 159.984C111.833 159.327 111.963 158.769 112.052 158.311C112.143 157.855 112.189 157.438 112.189 157.064C112.189 156.329 111.994 155.781 111.607 155.42C111.221 155.059 110.697 154.879 110.04 154.879C108.956 154.879 108.058 155.426 107.349 156.523C107.154 155.414 106.49 154.86 105.355 154.86C104.438 154.86 103.65 155.228 102.993 155.963L103.206 154.958H100.418L99.098 161.171C98.9429 161.683 98.734 162.092 98.4713 162.4C98.2066 162.709 97.8943 162.864 97.5323 162.864C97.2489 162.864 97.0442 162.811 96.9221 162.699C96.8001 162.59 96.7381 162.406 96.7381 162.148C96.7381 161.929 96.7629 161.722 96.8167 161.528L99.0443 151.09L96.1775 151.476L95.2282 155.922V155.845C95.2282 155.548 95.0999 155.311 94.8414 155.131C94.5829 154.951 94.1899 154.86 93.6604 154.86C92.6159 154.86 91.7141 155.224 90.9591 155.953C90.2042 156.682 89.6354 157.57 89.2548 158.621C88.9011 159.6 88.7129 160.535 88.6881 161.429C88.1896 161.954 87.7263 162.356 87.2982 162.633C86.8018 162.955 86.204 163.116 85.507 163.116C85.0168 163.116 84.6611 163.005 84.4418 162.778C84.2226 162.553 84.113 162.123 84.113 161.491C84.113 160.768 84.235 159.957 84.4811 159.054C84.7272 158.152 85.0437 157.386 85.4305 156.754C85.8173 156.122 86.2061 155.806 86.5929 155.806C86.7728 155.806 86.9093 155.876 87.0003 156.019C87.0914 156.161 87.1369 156.353 87.1369 156.599C87.1369 156.934 87.0603 157.314 86.9052 157.739C87.1369 157.894 87.3623 157.97 87.5836 157.97C87.8815 157.97 88.1255 157.849 88.3199 157.603C88.5144 157.359 88.6095 157.01 88.6095 156.56C88.6095 156.044 88.444 155.618 88.1152 155.284C87.7863 154.949 87.2341 154.782 86.4605 154.782C85.2609 154.782 84.2681 155.172 83.4883 155.951C82.7065 156.731 82.1398 157.654 81.784 158.724C81.4283 159.794 81.2524 160.773 81.2524 161.663C81.2524 162.72 81.5172 163.496 82.0467 163.992C82.5762 164.487 83.3187 164.735 84.2743 164.735C85.9869 164.735 87.474 163.955 88.7398 162.396C88.835 163.079 89.0625 163.608 89.4265 163.982C89.9167 164.483 90.531 164.735 91.2652 164.735C91.8982 164.735 92.4504 164.568 92.9199 164.233C93.3915 163.899 93.7948 163.474 94.1299 162.957C94.2085 163.498 94.4112 163.911 94.7401 164.194C95.0689 164.477 95.4991 164.62 96.0286 164.62C97.0524 164.62 97.9108 164.25 98.6078 163.511L98.3721 164.62H101.16L102.478 158.414C102.633 157.873 102.842 157.438 103.106 157.109C103.371 156.781 103.684 156.616 104.045 156.616C104.432 156.616 104.627 156.899 104.627 157.466C104.627 157.634 104.608 157.795 104.569 157.95L103.156 164.62H105.944L107.262 158.414C107.417 157.886 107.624 157.458 107.882 157.128C108.141 156.8 108.437 156.634 108.774 156.634C109.239 156.634 109.471 156.963 109.471 157.619C109.471 157.89 109.425 158.245 109.334 158.683C109.243 159.121 109.146 159.567 109.045 160.017C109.02 160.108 108.97 160.314 108.9 160.636C108.83 160.958 108.761 161.291 108.697 161.632C108.633 161.972 108.6 162.28 108.6 162.55C108.6 163.182 108.768 163.705 109.103 164.116C109.438 164.529 109.994 164.735 110.768 164.735C111.425 164.735 112.191 164.477 113.061 163.963C113.932 163.449 114.724 162.817 115.434 162.069C115.665 163.023 115.951 163.707 116.286 164.118C116.621 164.531 117.093 164.737 117.699 164.737C118.42 164.737 119.146 164.489 119.877 163.994C120.607 163.498 121.209 162.555 121.686 161.163H120.873C120.731 161.665 120.499 162.076 120.176 162.389L120.166 162.385ZM94.103 161.157V161.254C93.9872 161.755 93.77 162.15 93.4536 162.433C93.1371 162.716 92.8248 162.858 92.5145 162.858C92.2436 162.858 92.014 162.767 91.8278 162.588C91.6396 162.408 91.5465 161.995 91.5465 161.351C91.5465 160.706 91.6624 159.963 91.8961 159.118C92.1277 158.274 92.4504 157.553 92.8641 156.952C93.2777 156.353 93.741 156.054 94.2581 156.054C94.6718 156.054 94.9365 156.279 95.0524 156.731L94.103 161.159V161.157Z" fill="#411F1F"/>
</g>
<defs>
<clipPath id="clip0_6753_1319">
<rect width="100.948" height="41.2741" fill="white" transform="translate(25.1416 0.0175781)"/>
</clipPath>
<clipPath id="clip1_6753_1319">
<rect width="149.969" height="116.642" fill="white" transform="translate(0.631348 48.75)"/>
</clipPath>
</defs>
</svg>
