<svg width="111" height="112" viewBox="0 0 111 112" fill="none" xmlns="http://www.w3.org/2000/svg">
    <g clip-path="url(#f8edyzou4a)">
        <ellipse cx="56.069" cy="56.355" rx="54.844" ry="55.343" fill="#fff"/>
        <path d="M54.86 27.734c0-.194-.113-.402-.363-.402h-.187v.81h.187c.252 0 .364-.205.364-.408zM81.546 84.827c-.636-.81-1.385-1.43-2.249-1.855-1.079-.538-1.974-.524-2.682.042-.728.582-.978 1.407-.747 2.474.172.847.575 1.676 1.21 2.487a6.2 6.2 0 0 0 2.239 1.813c1.057.507 1.942.472 2.66-.1.648-.517.903-1.263.762-2.237-.121-.889-.52-1.762-1.196-2.624h.003zM60.085 27.85c.16 0 .289-.133.289-.294a.291.291 0 0 0-.289-.294.291.291 0 0 0-.288.294c0 .161.128.294.288.294z" fill="#A6192E"/>
        <path d="M55.915 4.16c-28.479 0-51.566 23.3-51.566 52.038 0 28.737 23.087 52.036 51.569 52.036 28.48 0 51.568-23.296 51.568-52.036 0-28.74-23.09-52.037-51.571-52.037zm15.547 10.517.705-2.347c1.958.57 3.847 1.15 6.755 2.29l.041 2.297-6.597 5.944c.69.218 1.072.34 2.19.71.495.171 1.216.294 1.734.26.168-.01.192.12.141.217l-1.171 2.338c-1.89-.735-4.077-1.415-6.098-1.931l-.036-2.02 7.004-6.368c-.39-.146-2.27-.758-2.77-.908-.424-.127-1.243-.335-1.755-.315-.126.005-.172-.086-.146-.167h.003zm-12.477 7.981c.238-.482.34-1.177.396-1.627L60.4 12.1c.048-.449.138-1.08 0-1.636-.032-.11.029-.196.165-.183.953.08 2.093.203 2.806.3l2.418 7.815.967-5.377c.187-.827.224-1.272.144-1.728-.015-.083.019-.154.145-.134.74.132 1.858.37 2.653.546.083.017.1.1.032.17-.318.449-.386.862-.556 1.584l-1.748 8.862a4.5 4.5 0 0 0-.046 1.5c.014.074-.02.192-.163.16-.943-.2-1.668-.348-2.335-.468-.39-1.228-2.411-7.841-2.433-7.91l-.648 5.644c-.053.458-.133 1.16.025 1.691.029.115-.03.145-.117.135a50.053 50.053 0 0 0-2.653-.24c-.138-.007-.09-.144-.075-.174h.005zm6.488 6.009c-.3.01-.553-.076-.732-.25-.17-.167-.26-.401-.26-.683 0-.6.413-.972 1.072-.972.66 0 1.07.372 1.07.972-.005.23-.06.416-.192.627l-.788 1.258h-.778l.613-.952h-.005zm-1.804-.664c.172.167.264.404.264.686 0 .597-.412.966-1.074.966-.662 0-1.065-.37-1.065-.966 0-.201.068-.429.182-.612l.79-1.297h.78l-.588.974c.291-.01.536.076.713.25h-.002zm-4.44-.117a.682.682 0 0 1-.105-.377.69.69 0 0 1 .3-.575c.158-.115.367-.172.624-.172.342 0 .594.072.759.213a.688.688 0 0 1 .245.539.694.694 0 0 1-.097.352.875.875 0 0 1-.23.238.746.746 0 0 1 .31.288.875.875 0 0 1 .015.788.765.765 0 0 1-.216.282.807.807 0 0 1-.32.144 1.663 1.663 0 0 1-.408.047c-.272 0-.478-.034-.62-.105a.744.744 0 0 1-.328-.309.93.93 0 0 1-.112-.455.78.78 0 0 1 .105-.418c.07-.116.176-.201.322-.265a.703.703 0 0 1-.245-.218v.003zm-2.123-.504v-.583h1.072v2.817H57.5V27.38h-.395v.003zm-2.787-17.235c.769-.03 2.052-.051 2.974-.027.148.005.13.127.114.179-.197.648-.182 1.006-.204 1.58l-.012 8.944c-.005.553.026 1.37.184 1.794.027.073.02.151-.082.149a48.008 48.008 0 0 0-2.979.03c-.087.002-.116-.067-.075-.157.204-.529.204-1.178.206-1.811l-.012-8.87c-.01-.55-.06-1.116-.225-1.654-.015-.052-.032-.155.109-.16l.002.003zm-.543 16.652h.703c.6 0 .915.47.915.933a.957.957 0 0 1-.26.685.89.89 0 0 1-.655.26h-.703v-1.878zm.965 2.536a.32.32 0 0 1-.318.32.319.319 0 0 1-.317-.32c0-.179.143-.32.317-.32a.32.32 0 0 1 .318.32zM51.05 27.43v-.632h2.1v.632h-.708v2.185h-.684v-2.185h-.71.002zm-6.534-16.234c2.418-.436 4.739-.783 7.402-.97l.133 2.365c.005.071-.046.15-.162.105-.19-.058-.73-.171-1.661-.07-1.271.131-2.314.32-2.625.369l.35 2.574c.72-.093 1.464-.178 2.107-.244.677-.069.953-.154 1.13-.26.095-.056.187-.056.204.081l.206 2.49c.012.097-.058.185-.201.134-.204-.062-.555-.135-1.094-.081-.487.049-1.263.142-2.035.245l.413 3.044 2.607-.296a3.326 3.326 0 0 0 1.44-.482c.09-.066.175.022.175.098l.158 2.535c-2.154.118-4.524.416-6.648.786-.107.02-.218-.027-.192-.166.06-.475 0-1.018-.121-1.714l-1.264-8.676c-.104-.707-.191-1.25-.429-1.644-.058-.1-.036-.196.102-.223h.005zm4.977 17.357c-.565-.135-1-.296-1-.883 0-.517.39-.891 1.026-.891.452 0 .803.127 1.092.37l-.366.545c-.243-.179-.507-.274-.743-.274-.177 0-.264.088-.264.188 0 .128.092.184.458.272.61.14.99.355.99.876 0 .57-.427.908-1.072.908-.47 0-.917-.154-1.242-.46l.41-.514c.262.218.553.335.859.335.196 0 .303-.07.303-.19s-.088-.186-.447-.275l-.004-.007zm-1.885-.707v.636h-.99v.48h1.087v.656h-1.792v-2.817h1.763v.636H46.62v.411h.99v-.002zM32.87 14.665c.856-.333 2.03-.79 2.85-1.065.177-.053.158.147.158.147.012.543.087.972.315 1.6l.863 2.651c.794-.242 2.227-.673 2.996-.866l-.81-2.753c-.146-.617-.367-1.173-.592-1.547-.056-.105-.007-.176.085-.203.853-.25 2.154-.598 2.84-.764.058-.015.14.04.126.113-.051.548.044 1.138.17 1.644l2.408 8.432c.136.619.35 1.201.657 1.65.04.05.054.16-.063.188a54.282 54.282 0 0 0-2.837.687c-.095.027-.153-.056-.146-.12.046-.477.003-.922-.201-1.764l-.965-3.282c-1.138.306-1.725.48-2.93.844l1.12 3.446c.136.409.405 1.023.706 1.393.07.073.044.164-.034.188-.851.265-1.989.67-2.782.955-.133.051-.155-.074-.153-.125.017-.597-.16-1.121-.359-1.67l-2.687-8.058c-.18-.544-.4-1.043-.764-1.493-.078-.091-.078-.184.03-.226v-.002zM55.915 32.43c13.007 0 23.553 10.641 23.553 23.767 0 13.125-10.546 23.766-23.553 23.766-13.007 0-23.553-10.641-23.553-23.766 0-13.126 10.546-23.767 23.553-23.767zM14.247 56.198c0-1.479 1.189-2.678 2.654-2.678 1.465 0 2.653 1.2 2.653 2.678s-1.188 2.677-2.653 2.677-2.654-1.2-2.654-2.677zM20.19 81.39c-1.004-.26-1.804-.866-2.396-1.82a5.1 5.1 0 0 1-.742-2.12c-.078-.592-.058-1.016.056-1.273l2.544-1.605c-.55 1.246-.553 2.396-.005 3.453.597.962 1.29 1.197 2.076.7.34-.213.536-.646.59-1.295.002-.093 0-.746-.003-1.955-.012-1.713.667-3 2.035-3.862.863-.546 1.783-.69 2.753-.436.972.255 1.792.923 2.464 2.005.167.293.313.577.437.854.278.668.4 1.26.368 1.772l-2.641 1.666c.424-.912.342-1.904-.247-2.976-.493-.795-1.102-.979-1.827-.553a1.252 1.252 0 0 0-.584.771c-.097.345-.134.893-.11 1.647.035 1.084-.014 1.868-.142 2.347-.23.884-.767 1.589-1.608 2.12-1.007.634-2.014.822-3.018.563v-.003zm7.698 6.554c.12.12.248.22.386.301.313.218.6.35.866.395L26.976 90.3l-4.59-4.565c.365-.095.81-.401 1.335-.92l6.834-6.995c.163-.166.304-.33.42-.487.289-.37.456-.66.5-.873l4.574 4.552-1.625 2.276a2.604 2.604 0 0 0-.682-1.417l-1.777-1.77-2.038 2.086 1.24 1.233c.118.12.252.223.4.316.32.227.633.364.934.409l-2.12 2.168c-.085-.45-.335-.89-.747-1.32l-1.24-1.233-2.323 2.38 1.819 1.808-.003-.003zm8.116 5.715c.143.088.288.162.434.22.354.14.665.201.931.184l-1.727 2.117-5.51-3.373c.344-.17.715-.575 1.113-1.214l5.038-8.382c.121-.2.22-.392.298-.57.197-.428.286-.754.27-.977l2.813 1.723c-.328.194-.675.556-1.033 1.08l-4.747 7.897L36 93.663l.003-.003zm12.5-3.566a2.585 2.585 0 0 0-1.232-.966l-2.37-.793-.914 2.78 1.654.553c.16.054.325.088.495.105.388.061.725.044 1.016-.051l-.95 2.893c-.275-.365-.692-.649-1.25-.85l-1.654-.553-1.04 3.17 2.425.81c.158.054.318.085.478.098.376.056.691.046.948-.032l-1.215 2.455-6.117-2.046c.287-.248.551-.722.794-1.422l3.063-9.325a5.01 5.01 0 0 0 .165-.624c.097-.463.118-.796.065-1.006l6.098 2.041L48.5 90.1l.002-.005zm9.202 1.765c-.531-.906-1.557-1.434-3.078-1.591-.892-.054-1.63.392-2.217 1.336a5.587 5.587 0 0 0-.814 2.65c-.059.99.097 1.89.463 2.708.458 1.018 1.128 1.554 2.006 1.605a4.83 4.83 0 0 0 1.273-.159c.948-.257 1.659-.756 2.13-1.498l-.19 3.236c-.83.695-2.018 1.02-3.565.981-1.623-.095-2.865-.869-3.723-2.315-.764-1.285-1.096-2.785-.997-4.5.116-1.976.742-3.596 1.885-4.856 1.14-1.263 2.502-1.848 4.086-1.753.347.034.68.086 1 .157.764.188 1.406.467 1.928.84l-.185 3.156-.002.003zm8.334 6.153c.048.23.106.443.174.64.165.47.342.82.534 1.043l-3.258.693c.156-.46.158-1.072.013-1.838l-1.836-8.791-1.383.294c-.228.049-.432.11-.614.19-.438.174-.727.368-.865.583l-.158-2.741 7.63-1.623.934 2.575c-.306-.215-.859-.25-1.654-.108l-1.353.29 1.835 8.79v.003zm6.57-.275c.044-.477-.087-1.072-.39-1.791l-3.804-8.595a5.544 5.544 0 0 0-.303-.59c-.26-.426-.516-.737-.773-.935l3.005-1.353c-.02.465.126 1.069.44 1.81l3.804 8.596c.095.215.196.411.303.59.247.43.488.736.723.915l-3.005 1.353zm10.773-6.081c-1.295 1.035-2.796 1.292-4.508.766-1.507-.473-2.797-1.393-3.871-2.761-1.162-1.478-1.72-3.042-1.674-4.692.046-1.647.687-2.966 1.921-3.952 1.295-1.035 2.763-1.305 4.404-.808 1.456.448 2.724 1.36 3.806 2.739 1.099 1.397 1.688 2.885 1.775 4.461.09 1.772-.526 3.187-1.85 4.247h-.003zM93.7 79.76l-8.32-1.292 5.05 3.407c.16.108.316.198.466.269.366.189.696.308.985.357l-1.591 2.404c-.204-.372-.58-.752-1.13-1.138l-8.091-5.458a5.007 5.007 0 0 0-.537-.316c-.402-.21-.737-.316-.996-.32l1.452-2.193 8.072 1.312-4.826-3.258a5.007 5.007 0 0 0-.536-.316c-.405-.21-.738-.315-.997-.32l1.581-2.386c.233.376.628.76 1.191 1.155l8.091 5.46c.247.166.735.38 1.465.636l-1.324 1.997H93.7zm1.232-26.24c1.465 0 2.653 1.198 2.653 2.677 0 1.478-1.188 2.677-2.653 2.677s-2.654-1.2-2.654-2.677c0-1.479 1.189-2.678 2.654-2.678z" fill="#A6192E"/>
        <path d="M65.935 27.738c0-.2-.172-.364-.38-.364a.375.375 0 0 0-.381.364c0 .2.172.365.38.365.209 0 .381-.164.381-.365zM60.085 29.107c.187 0 .34-.157.34-.35a.345.345 0 0 0-.34-.35.345.345 0 0 0-.34.35c0 .193.154.35.34.35zM62.488 28.682c0 .2.17.364.38.364.212 0 .382-.164.382-.364 0-.201-.173-.365-.381-.365a.375.375 0 0 0-.381.365z" fill="#A6192E"/>
        <path d="M55.918.698c-30.327 0-55 24.897-55 55.5 0 30.602 24.673 55.5 55 55.5s55-24.898 55-55.5c0-30.603-24.671-55.5-55-55.5zm54.076 55.5c0 30.088-24.259 54.565-54.074 54.565-29.815 0-54.076-24.477-54.076-54.565 0-30.089 24.259-54.565 54.074-54.565 29.815 0 54.073 24.479 54.073 54.565h.003z" fill="#A6192E"/>
        <path d="M46.26 73.161h19.322l4.565-25.595h-4.534l2.009-5.2c-4.477-2.45-8.795-3.133-11.7-3.133-2.906 0-7.223.683-11.7 3.133l2.008 5.2h-4.533l4.565 25.595h-.003zm.998-25.883-1.739-4.34c1.892-.989 5.76-2.604 10.4-2.604 4.64 0 8.508 1.618 10.4 2.604l-1.739 4.34c-.06.163-.247.665.02 1.057.254.372.723.377.878.377h3.378L64.755 72.06H47.084l-4.102-23.348h3.379c.155 0 .623-.005.878-.377.27-.392.082-.891.02-1.057z" fill="#A6192E"/>
    </g>
    <defs>
        <clipPath id="f8edyzou4a">
            <path fill="#fff" transform="translate(.92 .698)" d="M0 0h110v111H0z"/>
        </clipPath>
    </defs>
</svg>
