<svg width="23" height="23" viewBox="0 0 23 23" fill="none" xmlns="http://www.w3.org/2000/svg">
<path d="M1 10.3333C1 5.93383 1 3.7335 2.36733 2.36733C3.73467 1.00117 5.93383 1 10.3333 1H12.6667C17.0662 1 19.2665 1 20.6327 2.36733C21.9988 3.73467 22 5.93383 22 10.3333V12.6667C22 17.0662 22 19.2665 20.6327 20.6327C19.2653 21.9988 17.0662 22 12.6667 22H10.3333C5.93383 22 3.7335 22 2.36733 20.6327C1.00117 19.2653 1 17.0662 1 12.6667V10.3333Z" stroke="#411F1F" stroke-width="2"/>
<path d="M18.001 6.24805C18.001 6.9384 17.4413 7.49805 16.751 7.49805C16.0606 7.49805 15.501 6.9384 15.501 6.24805C15.501 5.55769 16.0606 4.99805 16.751 4.99805C17.4413 4.99805 18.001 5.55769 18.001 6.24805Z" stroke="#411F1F"/>
<path d="M11.499 15.002C13.432 15.002 14.999 13.435 14.999 11.502C14.999 9.56896 13.432 8.00195 11.499 8.00195C9.56603 8.00195 7.99902 9.56896 7.99902 11.502C7.99902 13.435 9.56603 15.002 11.499 15.002Z" stroke="#411F1F" stroke-width="2"/>
</svg>
