<svg width="89" height="98" viewBox="0 0 89 98" fill="none" xmlns="http://www.w3.org/2000/svg">
<g clip-path="url(#clip0_6728_1034)">
<mask id="mask0_6728_1034" style="mask-type:luminance" maskUnits="userSpaceOnUse" x="14" y="0" width="60" height="25">
<path d="M14.9248 0.476562H73.9258V24.6006H14.9248V0.476562Z" fill="white"/>
</mask>
<g mask="url(#mask0_6728_1034)">
<path d="M34.85 23.8757H35.985V24.5557H34.111V21.6317H35.953V22.2917H34.85V22.7177H35.883V23.3777H34.85V23.8757ZM39.48 22.2877H40.222V24.5547H40.936V22.2877H41.675V21.6327H39.479L39.48 22.2877ZM38.06 22.7497C37.677 22.6597 37.582 22.6017 37.582 22.4697C37.582 22.3667 37.672 22.2757 37.859 22.2757C38.104 22.2757 38.381 22.3747 38.635 22.5607L39.019 21.9947C38.718 21.7427 38.349 21.6107 37.879 21.6107C37.214 21.6107 36.806 21.9987 36.806 22.5357C36.806 23.1457 37.261 23.3117 37.851 23.4517C38.227 23.5427 38.318 23.6167 38.318 23.7367C38.318 23.8567 38.207 23.9347 38.001 23.9347C37.681 23.9347 37.376 23.8147 37.103 23.5877L36.675 24.1207C37.015 24.4387 37.483 24.5997 37.974 24.5997C38.646 24.5997 39.094 24.2487 39.094 23.6577C39.094 23.1177 38.698 22.8947 38.06 22.7497ZM43.064 21.6327C43.69 21.6327 44.018 22.1187 44.018 22.5987C44.0255 22.8617 43.9284 23.117 43.748 23.3087C43.6583 23.3977 43.5514 23.4676 43.4338 23.514C43.3162 23.5604 43.1904 23.5824 43.064 23.5787H42.329V21.6317L43.064 21.6327ZM42.886 23.0257H43.081C43.344 23.0257 43.461 22.8127 43.461 22.6017C43.461 22.3917 43.343 22.1847 43.081 22.1847H42.886V23.0257ZM42.676 24.2627C42.676 24.3061 42.6845 24.3492 42.701 24.3894C42.7176 24.4296 42.7419 24.4661 42.7726 24.4969C42.8033 24.5277 42.8398 24.5521 42.8799 24.5688C42.92 24.5855 42.9631 24.5941 43.0065 24.5942C43.05 24.5942 43.0931 24.5857 43.1332 24.5692C43.1734 24.5526 43.2099 24.5283 43.2407 24.4976C43.2715 24.4669 43.296 24.4304 43.3126 24.3903C43.3293 24.3502 43.338 24.3071 43.338 24.2637C43.338 24.1758 43.3031 24.0914 43.2409 24.0293C43.1788 23.9671 43.0945 23.9322 43.0065 23.9322C42.9186 23.9322 42.8343 23.9671 42.7721 24.0293C42.71 24.0914 42.675 24.1758 42.675 24.2637L42.676 24.2627ZM45.809 21.6327V22.2357H46.222V24.5557H46.928V21.6317H45.81L45.809 21.6327ZM50.02 23.6967C50.0205 23.8292 49.9923 23.9603 49.9375 24.0809C49.8826 24.2016 49.8023 24.3089 49.702 24.3957C49.612 24.4647 49.502 24.5147 49.368 24.5467C49.2285 24.58 49.0855 24.5964 48.942 24.5957C48.659 24.5957 48.442 24.5587 48.292 24.4857C48.1478 24.4175 48.0288 24.3055 47.952 24.1657C47.8731 24.0206 47.8328 23.8578 47.835 23.6927C47.8298 23.5408 47.868 23.3906 47.945 23.2597C48.0258 23.1352 48.1437 23.0393 48.282 22.9857C48.18 22.9317 48.0923 22.8542 48.026 22.7597C47.9522 22.6424 47.9143 22.5062 47.917 22.3677C47.916 22.2498 47.9443 22.1334 47.9995 22.0292C48.0547 21.925 48.1349 21.8361 48.233 21.7707C48.397 21.6517 48.613 21.5927 48.883 21.5927C49.241 21.5927 49.505 21.6667 49.676 21.8147C49.847 21.9627 49.933 22.1487 49.933 22.3727C49.9336 22.5021 49.8983 22.6291 49.831 22.7397C49.7677 22.8368 49.6858 22.9204 49.59 22.9857C49.722 23.0506 49.8327 23.1519 49.9089 23.2778C49.9851 23.4036 50.0237 23.5486 50.02 23.6957V23.6967ZM48.621 22.4167C48.621 22.5837 48.757 22.7197 48.923 22.7197C48.9627 22.7195 49.0019 22.7116 49.0385 22.6963C49.0751 22.681 49.1083 22.6587 49.1363 22.6305C49.1642 22.6024 49.1864 22.569 49.2014 22.5323C49.2165 22.4956 49.2242 22.4563 49.224 22.4167C49.2243 22.3769 49.2167 22.3375 49.2017 22.3007C49.1867 22.2639 49.1646 22.2304 49.1366 22.2022C49.1087 22.1739 49.0754 22.1515 49.0388 22.1361C49.0021 22.1208 48.9628 22.1128 48.923 22.1127C48.8832 22.1128 48.8439 22.1208 48.8072 22.1361C48.7704 22.1515 48.7371 22.1739 48.7091 22.2021C48.681 22.2304 48.6588 22.2638 48.6437 22.3006C48.6286 22.3375 48.6209 22.3769 48.621 22.4167ZM49.277 23.6627C49.2781 23.5675 49.2415 23.4758 49.1751 23.4076C49.1088 23.3394 49.0182 23.3003 48.923 23.2987C48.8279 23.3003 48.7373 23.3394 48.6709 23.4076C48.6046 23.4758 48.568 23.5675 48.569 23.6627C48.568 23.7578 48.6046 23.8495 48.6709 23.9177C48.7373 23.9859 48.8279 24.0251 48.923 24.0267C49.0182 24.0251 49.1088 23.9859 49.1751 23.9177C49.2415 23.8495 49.2781 23.7578 49.277 23.6627ZM52.944 23.5907C52.944 24.2107 52.514 24.5947 51.823 24.5947C51.131 24.5947 50.709 24.2097 50.709 23.5907C50.709 23.3837 50.779 23.1467 50.899 22.9577L51.724 21.6117H52.537L51.923 22.6217C52.229 22.6117 52.483 22.7017 52.669 22.8817C52.849 23.0547 52.944 23.2997 52.944 23.5907ZM52.222 23.5827C52.2189 23.4798 52.1752 23.3823 52.1004 23.3114C52.0257 23.2406 51.926 23.2023 51.823 23.2047C51.603 23.2047 51.424 23.3747 51.424 23.5837C51.4272 23.6868 51.471 23.7844 51.546 23.8553C51.621 23.9261 51.7209 23.9644 51.824 23.9617C52.044 23.9617 52.222 23.7907 52.222 23.5827ZM55.755 22.6007C55.7529 22.8325 55.6826 23.0585 55.553 23.2507L54.731 24.5547H53.918L54.558 23.5687H54.554C54.24 23.5777 53.974 23.4887 53.787 23.3087C53.61 23.1367 53.516 22.8917 53.516 22.6007C53.516 21.9787 53.946 21.5927 54.637 21.5927C55.329 21.5927 55.755 21.9787 55.755 22.6007ZM55.036 22.6057C55.0329 22.5026 54.989 22.4049 54.9141 22.3341C54.8391 22.2632 54.7391 22.225 54.636 22.2277C54.416 22.2277 54.238 22.3977 54.238 22.6057C54.238 22.8147 54.417 22.9837 54.637 22.9837C54.857 22.9837 55.036 22.8147 55.036 22.6057ZM40.637 13.4007C40.638 13.3047 40.531 13.1907 40.415 13.2757C40.125 13.4577 39.488 13.7977 38.576 13.8867L35.244 14.2627L34.717 10.4027C35.7 10.2727 36.693 10.1537 37.315 10.0917C38.002 10.0227 38.45 10.1177 38.712 10.1947C38.896 10.2617 38.984 10.1487 38.97 10.0247L38.706 6.86868C38.684 6.69568 38.566 6.69668 38.446 6.76768C38.22 6.90068 37.866 7.00868 37 7.09668C36.178 7.17968 35.228 7.28668 34.308 7.40668L33.86 4.13968C34.258 4.07668 35.591 3.83968 37.215 3.67068C38.403 3.54368 39.096 3.68568 39.338 3.76068C39.483 3.81668 39.548 3.71568 39.543 3.62568L39.373 0.627678C35.973 0.862678 33.005 1.30168 29.917 1.85568C29.738 1.88768 29.71 2.00968 29.785 2.13668C30.088 2.63668 30.201 3.32468 30.334 4.22268L31.948 15.2267C32.103 16.1107 32.182 16.7967 32.103 17.4007C32.069 17.5807 32.213 17.6367 32.348 17.6127C35.061 17.1427 38.087 16.7657 40.84 16.6167L40.637 13.3997V13.4007ZM42.439 16.5647C43.707 16.5117 44.9763 16.4983 46.245 16.5247C46.374 16.5277 46.383 16.4297 46.349 16.3357C46.145 15.7987 46.107 14.7627 46.112 14.0607L46.128 2.72068C46.156 1.99068 46.138 1.53768 46.388 0.714678C46.408 0.648678 46.43 0.494678 46.241 0.488678C44.975 0.465013 43.7085 0.476018 42.443 0.521678C42.265 0.529678 42.286 0.661678 42.305 0.725678C42.517 1.41068 42.581 2.12568 42.593 2.82568L42.608 14.0707C42.603 14.8737 42.604 15.6957 42.344 16.3667C42.292 16.4797 42.328 16.5687 42.439 16.5647ZM61.428 4.72168C61.643 3.80568 61.729 3.28168 62.136 2.71468C62.222 2.62268 62.199 2.52068 62.095 2.49768C60.969 2.24842 59.8388 2.01805 58.705 1.80668C58.544 1.78168 58.499 1.87068 58.519 1.97668C58.622 2.55368 58.577 3.11868 58.337 4.16768L57.1 10.9847L54.01 1.07468C52.8184 0.921006 51.6234 0.793974 50.426 0.693678C50.251 0.678678 50.174 0.785678 50.214 0.926678C50.39 1.63268 50.276 2.43368 50.214 3.00168L48.91 14.3267C48.839 14.8967 48.709 15.7777 48.404 16.3897C48.386 16.4257 48.323 16.5997 48.5 16.6097C49.6325 16.6825 50.7629 16.7845 51.89 16.9157C51.998 16.9287 52.073 16.8897 52.036 16.7447C51.834 16.0697 51.937 15.1807 52.006 14.5997L52.833 7.44368C52.863 7.52868 55.441 15.9167 55.942 17.4737C56.792 17.6237 57.718 17.8117 58.924 18.0657C59.107 18.1037 59.15 17.9557 59.132 17.8627C59.0442 17.2295 59.0645 16.586 59.192 15.9597C59.192 15.9597 61.43 4.71868 61.428 4.72168ZM70.518 17.8727C69.853 17.9187 68.934 17.7627 68.302 17.5457C66.872 17.0767 66.384 16.9237 65.503 16.6457L73.93 9.10968L73.877 6.19768C70.163 4.75168 67.746 4.01768 65.246 3.29368L64.345 6.26968C64.31 6.37468 64.372 6.48868 64.532 6.48268C65.188 6.45568 66.234 6.71968 66.776 6.88268C67.414 7.07268 69.815 7.84768 70.315 8.03268L61.365 16.1087L61.412 18.6687C63.993 19.3237 66.79 20.1857 69.202 21.1167L70.7 18.1497C70.763 18.0257 70.732 17.8607 70.518 17.8727ZM30.451 17.7167C30.058 17.1467 29.787 16.4087 29.613 15.6247L26.535 4.93168C26.375 4.28968 26.255 3.54268 26.319 2.84668C26.337 2.75268 26.232 2.68668 26.157 2.70468C25.281 2.91468 23.618 3.35468 22.529 3.67068C22.412 3.70568 22.349 3.79568 22.421 3.93068C22.711 4.40268 22.991 5.10868 23.179 5.89068L24.213 9.38168C23.23 9.62868 21.399 10.1727 20.386 10.4817L19.283 7.11868C18.993 6.32268 18.896 5.77868 18.879 5.08968C18.879 5.08968 18.902 4.83268 18.678 4.90268C17.629 5.25068 16.131 5.83268 15.037 6.25368C14.899 6.30668 14.897 6.42368 14.998 6.54068C15.462 7.11368 15.743 7.74368 15.974 8.43368L19.406 18.6537C19.66 19.3507 19.885 20.0147 19.864 20.7717C19.862 20.8387 19.89 20.9967 20.06 20.9317C21.074 20.5697 22.528 20.0517 23.616 19.7187C23.716 19.6887 23.749 19.5737 23.66 19.4807C23.277 19.0137 22.932 18.2327 22.76 17.7157L21.326 13.3457C22.866 12.8827 23.616 12.6637 25.07 12.2757L26.303 16.4367C26.563 17.5037 26.617 18.0687 26.56 18.6747C26.5577 18.6982 26.5612 18.722 26.5703 18.7439C26.5793 18.7658 26.5936 18.7851 26.6119 18.8001C26.6302 18.8151 26.6519 18.8254 26.6751 18.8301C26.6984 18.8347 26.7224 18.8335 26.745 18.8267C27.786 18.5437 29.085 18.2267 30.37 17.9547C30.52 17.9227 30.501 17.7827 30.451 17.7167Z" fill="white"/>
</g>
<mask id="mask1_6728_1034" style="mask-type:luminance" maskUnits="userSpaceOnUse" x="0" y="28" width="89" height="70">
<path d="M0.600098 28.96H88.2531V97.134H0.600098V28.96Z" fill="white"/>
</mask>
<g mask="url(#mask1_6728_1034)">
<path d="M83.9102 66.953C86.3962 66.953 88.2502 65.06 88.2502 62.573C88.2502 60.087 86.4322 58.121 83.9842 58.121C83.3172 58.121 82.6862 58.232 82.1302 58.456C81.7722 58.2379 81.3613 58.1221 80.9422 58.121H79.9042C79.9016 57.7455 79.8515 57.3719 79.7552 57.009C79.8672 56.749 79.9042 56.489 79.9042 56.193V54.523C79.9042 54.375 79.9042 54.189 79.8672 54.041C79.9042 53.892 79.9042 53.744 79.9042 53.558V52.074C79.9042 46.174 76.6402 40.35 70.9642 36.119C64.6592 31.446 55.9412 28.959 45.7412 28.959C23.2992 28.959 11.1692 40.869 11.1692 52.075V52.409C7.90517 54.339 5.93917 57.159 5.90217 60.126C3.19417 60.609 0.597168 62.723 0.597168 65.394C0.597168 66.73 1.19117 67.768 2.19217 68.362L1.63617 70.885C1.48717 71.627 1.67317 72.369 2.19217 72.925C2.67417 73.482 3.41717 73.741 4.12217 73.668H4.15917C4.45517 73.668 5.19717 74.262 5.64217 74.596C6.16217 75.004 6.75617 75.449 7.42217 75.82C7.20017 76.19 7.05217 76.673 7.08917 77.156L7.12717 78.158C6.97817 78.492 6.86717 78.9 6.90417 79.27L6.97817 80.977C7.01517 81.608 7.27417 82.165 7.75717 82.573C7.98116 82.779 8.24443 82.9377 8.53121 83.0396C8.81799 83.1415 9.12239 83.1845 9.42617 83.166L10.5392 83.091H10.6882C10.8732 83.091 10.9112 83.091 11.1702 83.24V83.5C11.1702 95.706 21.8902 95.706 31.3132 95.706H59.7272C69.1852 95.706 79.8692 95.706 79.8692 83.499V82.015C79.8692 81.57 79.7582 81.162 79.5352 80.791C80.2782 80.421 80.8342 80.011 81.2782 79.678C81.6992 79.381 82.0332 79.221 82.2812 79.195L83.3932 79.121C84.0232 79.083 84.5802 78.824 84.9872 78.341C85.3985 77.8849 85.6121 77.2843 85.5812 76.671L85.5072 74.965C85.4752 74.5751 85.3618 74.1963 85.1742 73.853L85.1362 72.851C85.0992 72.219 84.8402 71.663 84.3582 71.255C83.9022 70.8435 83.3016 70.6298 82.6882 70.661L81.8722 70.699C81.6122 70.699 81.3522 70.736 81.0942 70.774L82.0212 66.394C82.6512 66.878 83.3932 66.951 83.9132 66.951L83.9102 66.953Z" fill="white"/>
<path d="M77.5722 52.0749C77.5722 42.2049 66.8142 31.2979 45.7462 31.2979C24.6772 31.2979 13.5112 42.2419 13.5112 52.0749V53.5588H77.5722V52.0749Z" fill="#AB7029"/>
<path d="M38.8421 34.1924H36.7651C36.6541 34.1924 36.5801 34.2664 36.5431 34.3404C36.5051 34.4144 36.4691 34.5624 36.4691 34.7864C36.4691 35.0094 36.5071 35.1564 36.5431 35.2314C36.5801 35.3424 36.6911 35.3804 36.7651 35.3804H38.8421C38.9531 35.3804 39.0271 35.3064 39.0651 35.2314C39.1021 35.1574 39.1381 35.0094 39.1381 34.7864C39.1381 34.5624 39.1011 34.4164 39.0651 34.3404C39.0271 34.2304 38.9151 34.1924 38.8421 34.1924ZM46.6281 34.1924H44.5511C44.4411 34.1924 44.3671 34.2664 44.3291 34.3404C44.2911 34.4144 44.2551 34.5624 44.2551 34.7864C44.2551 35.0094 44.2931 35.1564 44.3291 35.2314C44.3671 35.3424 44.4781 35.3804 44.5511 35.3804H46.6281C46.7401 35.3804 46.8131 35.3064 46.8511 35.2314C46.8881 35.1574 46.9251 35.0094 46.9251 34.7864C46.9251 34.5624 46.8871 34.4164 46.8511 34.3404C46.8131 34.2304 46.7021 34.1924 46.6281 34.1924ZM54.3831 34.1924H52.3061C52.1951 34.1924 52.1211 34.2664 52.0831 34.3404C52.0461 34.4144 52.0101 34.5624 52.0101 34.7864C52.0101 35.0094 52.0471 35.1564 52.0831 35.2314C52.1211 35.3424 52.2331 35.3804 52.3061 35.3804H54.3831C54.4941 35.3804 54.5681 35.3064 54.6051 35.2314C54.6431 35.1574 54.6791 35.0094 54.6791 34.7864C54.6791 34.5624 54.6421 34.4164 54.6051 34.3404C54.6051 34.2304 54.4951 34.1924 54.3831 34.1924ZM34.9041 38.8294H32.8271C32.7171 38.8294 32.6431 38.9024 32.6051 38.9774C32.5681 39.0514 32.5311 39.1994 32.5311 39.4224C32.5311 39.6464 32.5691 39.7934 32.6051 39.8684C32.6431 39.9784 32.7541 40.0164 32.8281 40.0164H34.9041C35.0161 40.0164 35.0891 39.9434 35.1271 39.8684C35.1641 39.7944 35.2011 39.6464 35.2011 39.4224C35.2011 39.1994 35.1631 39.0524 35.1271 38.9774C35.1271 38.9034 35.0161 38.8294 34.9041 38.8294ZM42.7031 38.8294H40.6261C40.5161 38.8294 40.4421 38.9024 40.4041 38.9774C40.3671 39.0514 40.3301 39.1994 40.3301 39.4224C40.3301 39.6464 40.3681 39.7934 40.4041 39.8684C40.4411 39.9784 40.5531 40.0164 40.6261 40.0164H42.7041C42.8141 40.0164 42.8881 39.9434 42.9261 39.8684C42.9631 39.7944 43.0001 39.6464 43.0001 39.4224C43.0001 39.1994 42.9621 39.0524 42.9261 38.9774C42.8881 38.9034 42.8151 38.8294 42.7031 38.8294ZM27.1631 38.8294H25.0861C24.9751 38.8294 24.9011 38.9024 24.8631 38.9774C24.8261 39.0514 24.7901 39.1994 24.7901 39.4224C24.7901 39.6464 24.8271 39.7934 24.8631 39.8684C24.9011 39.9784 25.0131 40.0164 25.0861 40.0164H27.1631C27.2741 40.0164 27.3481 39.9434 27.3851 39.8684C27.4231 39.7944 27.4591 39.6464 27.4591 39.4224C27.4591 39.1994 27.4221 39.0524 27.3851 38.9774C27.3851 38.9034 27.2741 38.8294 27.1631 38.8294ZM50.4961 38.8294H48.4201C48.3091 38.8294 48.2351 38.9024 48.1981 38.9774C48.1601 39.0514 48.1241 39.1994 48.1241 39.4224C48.1241 39.6464 48.1611 39.7934 48.1981 39.8684C48.2351 39.9784 48.3461 40.0164 48.4201 40.0164H50.4971C50.6081 40.0164 50.6821 39.9434 50.7191 39.8684C50.7571 39.7944 50.7931 39.6464 50.7931 39.4224C50.7931 39.1994 50.7561 39.0524 50.7191 38.9774C50.6821 38.9034 50.6091 38.8294 50.4971 38.8294H50.4961ZM58.2821 38.8294H56.2051C56.0951 38.8294 56.0201 38.9024 55.9831 38.9774C55.9461 39.0514 55.9091 39.1994 55.9091 39.4224C55.9091 39.6464 55.9471 39.7934 55.9831 39.8684C56.0201 39.9784 56.1321 40.0164 56.2051 40.0164H58.2821C58.3941 40.0164 58.4671 39.9434 58.5051 39.8684C58.5421 39.7944 58.5781 39.6464 58.5781 39.4224C58.5781 39.1994 58.5411 39.0524 58.5051 38.9774C58.486 38.934 58.4548 38.8969 58.4153 38.8707C58.3758 38.8445 58.3296 38.8301 58.2821 38.8294ZM66.0691 38.8294H63.9921C63.8801 38.8294 63.8071 38.9024 63.7691 38.9774C63.7321 39.0514 63.6961 39.1994 63.6961 39.4224C63.6961 39.6464 63.7331 39.7934 63.7691 39.8684C63.8071 39.9784 63.9181 40.0164 63.9921 40.0164H66.0691C66.1791 40.0164 66.2541 39.9434 66.2911 39.8684C66.3291 39.7944 66.3651 39.6464 66.3651 39.4224C66.3651 39.1994 66.3271 39.0524 66.2911 38.9774C66.2541 38.9034 66.1801 38.8294 66.0691 38.8294ZM38.8421 43.6884H36.7651C36.6541 43.6884 36.5801 43.7634 36.5431 43.8364C36.5051 43.9104 36.4691 44.0584 36.4691 44.2824C36.4691 44.5054 36.5071 44.6524 36.5431 44.7274C36.5801 44.8384 36.6911 44.8754 36.7651 44.8754H38.8421C38.9531 44.8754 39.0271 44.8014 39.0651 44.7274C39.1021 44.6534 39.1381 44.5054 39.1381 44.2824C39.1381 44.0584 39.1011 43.9104 39.0651 43.8364C39.0271 43.7264 38.9151 43.6884 38.8421 43.6884ZM46.6281 43.6884H44.5511C44.4411 43.6884 44.3671 43.7634 44.3291 43.8364C44.2911 43.9104 44.2551 44.0584 44.2551 44.2824C44.2551 44.5054 44.2931 44.6524 44.3291 44.7274C44.3671 44.8384 44.4781 44.8754 44.5511 44.8754H46.6281C46.7401 44.8754 46.8131 44.8014 46.8511 44.7274C46.8881 44.6534 46.9251 44.5054 46.9251 44.2824C46.9251 44.0584 46.8871 43.9104 46.8511 43.8364C46.8131 43.7264 46.7021 43.6884 46.6281 43.6884ZM54.3831 43.6884H52.3061C52.1951 43.6884 52.1211 43.7634 52.0831 43.8364C52.0461 43.9104 52.0101 44.0584 52.0101 44.2824C52.0101 44.5054 52.0471 44.6524 52.0831 44.7274C52.1211 44.8384 52.2331 44.8754 52.3061 44.8754H54.3831C54.4941 44.8754 54.5681 44.8014 54.6051 44.7274C54.6431 44.6534 54.6791 44.5054 54.6791 44.2824C54.6791 44.0584 54.6421 43.9104 54.6051 43.8364C54.6051 43.7264 54.4951 43.6884 54.3831 43.6884ZM42.7031 48.3284H40.6261C40.5161 48.3284 40.4421 48.4034 40.4041 48.4764C40.3671 48.5504 40.3301 48.6984 40.3301 48.9224C40.3301 49.1454 40.3681 49.2924 40.4041 49.3674C40.4411 49.4774 40.5531 49.5154 40.6261 49.5154H42.7041C42.8141 49.5154 42.8881 49.4404 42.9261 49.3674C42.9631 49.2924 43.0001 49.1454 43.0001 48.9224C43.0001 48.6984 42.9621 48.5514 42.9261 48.4764C42.8881 48.4014 42.8151 48.3284 42.7031 48.3284ZM50.4961 48.3284H48.4201C48.3091 48.3284 48.2351 48.4034 48.1981 48.4764C48.1601 48.5504 48.1241 48.6984 48.1241 48.9224C48.1241 49.1454 48.1611 49.2924 48.1981 49.3674C48.2351 49.4774 48.3461 49.5154 48.4201 49.5154H50.4971C50.6081 49.5154 50.6821 49.4404 50.7191 49.3674C50.7571 49.2924 50.7931 49.1454 50.7931 48.9224C50.7931 48.6984 50.7561 48.5514 50.7191 48.4764C50.6821 48.4014 50.6091 48.3284 50.4971 48.3284H50.4961ZM62.1401 43.6884H60.1371C60.0261 43.6884 59.9521 43.7634 59.9141 43.8364C59.8771 43.9104 59.8401 44.0584 59.8401 44.2824C59.8401 44.5054 59.8781 44.6524 59.9141 44.7274C59.9521 44.8384 60.0631 44.8754 60.1371 44.8754H62.1401C62.2511 44.8754 62.3251 44.8014 62.3621 44.7274C62.4001 44.6534 62.4361 44.5054 62.4361 44.2824C62.4361 44.0584 62.3991 43.9104 62.3621 43.8364C62.3251 43.7264 62.2141 43.6884 62.1401 43.6884ZM70.1521 43.8364C70.1151 43.7264 70.0041 43.6884 69.9301 43.6884H67.8531C67.7421 43.6884 67.6681 43.7634 67.6311 43.8364C67.5931 43.9104 67.5571 44.0584 67.5571 44.2824C67.5571 44.5054 67.5941 44.6524 67.6301 44.7274C67.6681 44.8384 67.7801 44.8754 67.8531 44.8754H69.9301C70.0411 44.8754 70.1151 44.8014 70.1521 44.7274C70.1901 44.6534 70.2261 44.5054 70.2261 44.2824C70.2261 44.0584 70.1891 43.9104 70.1521 43.8364ZM66.0741 48.3284H63.9221C63.8111 48.3284 63.7371 48.4034 63.6991 48.4764C63.6621 48.5504 63.6261 48.6984 63.6261 48.9224C63.6261 49.1454 63.6631 49.2924 63.6991 49.3674C63.7371 49.4774 63.8481 49.5154 63.9221 49.5154H66.0741C66.1841 49.5154 66.2581 49.4404 66.2961 49.3674C66.3331 49.2924 66.3701 49.1454 66.3701 48.9224C66.3701 48.6984 66.3321 48.5514 66.2961 48.4764C66.2581 48.4014 66.1851 48.3284 66.0741 48.3284ZM58.2461 48.3284H56.2061C56.0941 48.3284 56.0201 48.4034 55.9831 48.4764C55.9461 48.5504 55.9091 48.6984 55.9091 48.9224C55.9091 49.1454 55.9471 49.2924 55.9831 49.3674C56.0201 49.4774 56.1321 49.5154 56.2051 49.5154H58.2461C58.3571 49.5154 58.4311 49.4404 58.4681 49.3674C58.5061 49.2924 58.5421 49.1454 58.5421 48.9224C58.5421 48.6984 58.5051 48.5514 58.4681 48.4764C58.4681 48.4014 58.3581 48.3284 58.2461 48.3284ZM23.2631 43.6884H21.1861C21.0761 43.6884 21.0011 43.7634 20.9641 43.8364C20.9261 43.9104 20.8901 44.0584 20.8901 44.2824C20.8901 44.5054 20.9281 44.6524 20.9641 44.7274C21.0011 44.8384 21.1131 44.8754 21.1861 44.8754H23.2631C23.3741 44.8754 23.4481 44.8014 23.4861 44.7274C23.5231 44.6534 23.5591 44.5054 23.5591 44.2824C23.5591 44.0584 23.5221 43.9104 23.4861 43.8364C23.4481 43.7264 23.3371 43.6884 23.2631 43.6884ZM31.0501 43.6884H28.9731C28.8611 43.6884 28.7881 43.7634 28.7501 43.8364C28.7131 43.9104 28.6761 44.0584 28.6761 44.2824C28.6761 44.5054 28.7141 44.6524 28.7501 44.7274C28.7881 44.8384 28.8991 44.8754 28.9731 44.8754H31.0491C31.1611 44.8754 31.2351 44.8014 31.2721 44.7274C31.3091 44.6534 31.3461 44.5054 31.3461 44.2824C31.3461 44.0584 31.3081 43.9104 31.2721 43.8364C31.2351 43.7264 31.1241 43.6884 31.0501 43.6884ZM27.1201 48.3284H25.0801C24.9681 48.3284 24.8951 48.4034 24.8571 48.4764C24.8201 48.5504 24.7831 48.6984 24.7831 48.9224C24.7831 49.1454 24.8211 49.2924 24.8571 49.3674C24.8951 49.4774 25.0061 49.5154 25.0791 49.5154H27.1201C27.2311 49.5154 27.3051 49.4404 27.3431 49.3674C27.3801 49.2924 27.4161 49.1454 27.4161 48.9224C27.4161 48.6984 27.3791 48.5514 27.3431 48.4764C27.3051 48.4014 27.2311 48.3284 27.1201 48.3284ZM35.0531 48.3654C35.0161 48.3284 34.9421 48.3284 34.9051 48.3284H32.8271C32.7171 48.3284 32.6431 48.4034 32.6051 48.4764C32.5681 48.5504 32.5311 48.6984 32.5311 48.9224C32.5311 49.1454 32.5691 49.2924 32.6051 49.3674C32.6431 49.4774 32.7541 49.5154 32.8281 49.5154H34.9041C35.0161 49.5154 35.0891 49.4404 35.1271 49.3674C35.1641 49.2924 35.2011 49.1454 35.2011 48.9224C35.2011 48.6984 35.1631 48.5514 35.1271 48.4764C35.1271 48.4394 35.0891 48.4004 35.0531 48.3654Z" fill="#9C6226"/>
<path d="M77.5722 60.4232C77.5722 61.0552 77.5722 61.5362 76.9422 61.5362H14.1422C13.5112 61.5362 13.5112 61.0532 13.5112 60.4232V58.2722C13.5112 57.6402 13.5112 57.1592 14.1422 57.1592H76.9422C77.5732 57.1592 77.5732 57.6422 77.5732 58.2722L77.5722 60.4232Z" fill="#B32029"/>
<path d="M77.6103 54.4863H13.5103V56.1563H77.6103V54.4863Z" fill="#FAA21E"/>
<path d="M54.9801 55.0801L45.7071 60.6451L36.1001 55.0801H54.9801Z" fill="#FAA21E"/>
<path d="M13.5113 82.0527V83.5367C13.5113 93.4067 21.4863 93.4437 31.3533 93.4437H59.7673C69.6333 93.4437 77.6093 93.4057 77.6093 83.5367V82.0527H13.5113Z" fill="#AB7029"/>
<path d="M16.6969 83.8697C16.6969 85.4277 16.8079 86.5047 18.9599 85.4277C21.1119 84.3527 23.7089 82.9416 29.1979 83.0536C27.1579 83.6476 24.7849 84.7237 24.5609 86.1337C24.3389 87.5807 25.7479 88.1746 28.8629 87.4326C29.2349 88.7306 30.5329 90.1777 33.2769 87.8027C36.0219 85.4287 37.5799 84.4627 38.8769 83.9827C40.1769 83.4987 40.5469 84.2036 39.0999 85.0576C37.6529 85.8726 36.3549 86.3556 36.1319 87.3196C35.9099 88.2846 36.1319 89.8066 38.5069 89.1016C38.5069 90.7716 38.9889 92.1816 40.9919 92.1816C42.9949 92.1816 43.8489 91.1066 43.8489 89.1016C45.1469 89.8066 47.0769 90.2896 47.1879 87.6546C47.2989 85.0196 48.4859 83.8336 49.6729 83.2396C50.8599 82.6456 51.0829 83.7586 50.2669 84.0556C49.1909 84.4636 48.7459 85.2426 48.7079 86.0956C48.6709 87.1716 50.5259 88.7677 52.4179 86.8017C52.5659 87.9517 54.6799 88.6936 55.3849 86.3186C56.0899 83.9446 56.3119 82.4597 58.4649 82.3847C56.9809 82.9417 56.0899 85.1306 57.9819 85.8356C59.8739 86.5406 60.8389 84.7606 61.0609 84.1656C61.2829 83.5726 61.8769 82.2737 63.6949 82.3857C62.1369 83.0897 62.1369 85.4656 63.6949 85.6136C65.2529 85.7246 65.8469 85.2436 67.0339 84.1666C68.2209 83.0906 70.5949 81.9037 73.5999 82.3847C73.0059 83.9437 74.0819 84.5746 75.0469 84.3886C76.2339 84.1656 76.1229 82.8686 76.4939 82.0146H15.4359V82.0517C14.4719 82.6827 13.8039 85.1687 16.6969 83.8697Z" fill="#A9AE38"/>
<path d="M10.2803 78.5272C11.4303 78.4522 11.9123 78.7492 12.7653 79.2322C13.7683 79.8262 15.1403 80.6052 17.5883 80.4562C20.0363 80.3082 21.2973 79.3812 22.2613 78.7122C23.0403 78.1562 23.4863 77.8222 24.6363 77.7482C25.7863 77.6732 26.2673 77.9702 27.1213 78.4522C28.1233 79.0462 29.4953 79.8252 31.9433 79.6762C34.3913 79.5282 35.6533 78.6012 36.6173 77.9322C37.3953 77.3762 37.8413 77.0422 39.0293 76.9682C40.1793 76.8932 40.6983 77.1902 41.5143 77.6732C42.5163 78.2672 43.8883 79.0452 46.3363 78.8972C48.7843 78.7482 50.0463 77.8212 51.0103 77.1532C51.7883 76.5962 52.2343 76.2622 53.3843 76.1882C54.5343 76.1132 55.0543 76.4102 55.8703 76.8932C56.8723 77.4872 58.2443 78.2662 60.6923 78.1172C63.1403 77.9692 64.4013 77.0422 65.3653 76.3732C66.1443 75.8172 66.5903 75.4832 67.7403 75.4092C68.8903 75.3342 69.4093 75.6312 70.2253 76.1132C71.2263 76.7072 72.5993 77.4862 75.0473 77.3372C77.4953 77.1892 78.7573 76.2622 79.7213 75.5932C80.4993 75.0372 80.9453 74.7032 82.1323 74.6292L82.9483 74.5922L82.8753 73.0332L82.0593 73.0712C79.5373 73.2192 78.2013 74.1842 77.2373 74.8882C76.4943 75.4452 76.0493 75.7422 75.0113 75.8172C73.9353 75.8912 73.4913 75.6312 72.6743 75.1492C71.6363 74.5552 70.2263 73.7392 67.7043 73.8882C65.1803 74.0362 63.8463 75.0012 62.8813 75.7062C62.1393 76.2622 61.6943 76.5592 60.6563 76.6342C59.5803 76.7092 59.1353 76.4482 58.3193 75.9662C57.2803 75.3732 55.8713 74.5562 53.3483 74.7052C50.8253 74.8532 49.4903 75.8182 48.5263 76.5232C47.7833 77.0792 47.3383 77.3762 46.3003 77.4512C45.2243 77.5242 44.7803 77.2652 43.9633 76.7832C42.9253 76.1902 41.5153 75.3732 38.9933 75.5232C36.4703 75.6712 35.1353 76.6352 34.1703 77.3402C33.4283 77.8962 32.9833 78.1932 31.9443 78.2682C30.8693 78.3412 30.4243 78.0822 29.6083 77.6002C28.5693 77.0072 27.1603 76.1902 24.6373 76.3402C22.1143 76.4882 20.7793 77.4522 19.8143 78.1572C19.0723 78.7132 18.6273 79.0102 17.5893 79.0842C16.5133 79.1592 16.0693 78.8982 15.2523 78.4162C14.2143 77.8232 12.8043 77.0062 10.2823 77.1562L9.46533 77.1922L9.53933 78.7512L10.2813 78.5292L10.2803 78.5272Z" fill="#B32029"/>
<path d="M80.0162 76.08C79.0132 76.823 77.6412 77.787 75.0452 77.935C72.4482 78.084 70.9652 77.23 69.9262 76.637C69.1482 76.191 68.7392 75.969 67.7742 76.005C66.8102 76.043 66.4392 76.34 65.6982 76.859C64.6952 77.601 63.3232 78.565 60.7272 78.714C58.1302 78.862 56.6472 78.009 55.6082 77.415C54.8302 76.97 54.4212 76.748 53.4562 76.784C52.4922 76.821 52.1202 77.118 51.3792 77.637C50.3772 78.379 49.0052 79.344 46.4092 79.492C43.8122 79.641 42.3292 78.787 41.2902 78.194C40.5122 77.748 40.1032 77.526 39.1382 77.562C38.1742 77.6 37.8032 77.897 37.0612 78.416C36.0592 79.158 34.6872 80.122 32.0912 80.271C29.4942 80.419 28.0112 79.566 26.9722 78.972C26.1932 78.527 25.7852 78.305 24.8202 78.341C23.8562 78.378 23.4842 78.675 22.7432 79.194C21.7412 79.936 20.3692 80.901 17.7732 81.049C15.1762 81.198 13.6932 80.344 12.6542 79.75C11.8762 79.305 11.4672 79.083 10.5022 79.12L9.38916 79.194L9.46316 80.901L10.5762 80.826C11.6522 80.751 12.0962 81.012 12.9132 81.493C13.9512 82.087 15.3612 82.903 17.8832 82.754C20.4072 82.606 21.7412 81.642 22.7062 80.937C23.4482 80.381 23.8932 80.084 24.9322 80.009C26.0072 79.934 26.4522 80.195 27.2682 80.676C28.3072 81.27 29.7162 82.086 32.2392 81.937C34.7622 81.789 36.0972 80.825 37.0612 80.12C37.8042 79.563 38.2492 79.266 39.2872 79.192C40.3632 79.117 40.8072 79.378 41.6242 79.859C42.6622 80.453 44.0722 81.269 46.5942 81.12C49.1162 80.972 50.4522 80.008 51.4172 79.303C52.1592 78.746 52.6042 78.449 53.6422 78.375C54.7182 78.301 55.1632 78.561 55.9792 79.042C57.0182 79.636 58.4272 80.452 60.9502 80.303C63.4732 80.155 64.8082 79.191 65.7722 78.486C66.5152 77.929 66.9602 77.632 67.9982 77.558C69.0742 77.484 69.5182 77.743 70.3352 78.225C71.3732 78.819 72.7832 79.635 75.3052 79.486C77.8292 79.338 79.1632 78.373 80.1282 77.668C80.8702 77.112 81.3152 76.815 82.3532 76.742L83.4662 76.667L83.3552 74.96L82.2422 75.035C81.0922 75.257 80.7592 75.518 80.0172 76.075L80.0162 76.08Z" fill="#B32029"/>
<path d="M27.263 82.6482L29.711 75.5242H31.231V82.6482L33.754 75.5242H34.571L31.343 84.2062H29.636V78.2692L27.336 84.2062H25.631V76.2292C24.37 76.6372 23.739 77.5282 23.739 78.8262C23.739 79.4202 23.888 79.5312 23.888 79.6062C23.072 79.6062 22.627 79.3092 22.627 78.4932C22.627 76.9352 24.779 75.4512 26.707 75.4512C26.855 75.4512 27.004 75.4512 27.189 75.4882L27.263 82.6482Z" fill="#6D1D0E"/>
<path d="M31.3174 85.1694H29.6104C29.3558 85.165 29.1129 85.0619 28.9328 84.8819C28.7528 84.7019 28.6497 84.4589 28.6454 84.2044V83.3514L28.2014 84.5394C28.1324 84.7181 28.0098 84.871 27.8505 84.9774C27.6911 85.0837 27.5029 85.1382 27.3114 85.1334H25.6044C25.3498 85.129 25.1069 85.0259 24.9268 84.8459C24.7468 84.6659 24.6437 84.4229 24.6394 84.1684V80.1614L24.5654 80.2354C24.3786 80.4227 24.1259 80.5294 23.8614 80.5324C21.8584 80.5324 21.6724 79.0854 21.6724 78.4544C21.6724 76.2284 24.3814 74.4844 26.7174 74.4844C26.9024 74.4844 27.0884 74.4844 27.2734 74.5214C27.7564 74.5594 28.1634 74.9674 28.1634 75.4494L28.2014 77.1564L28.8684 75.1904C29.0174 74.8204 29.3504 74.5594 29.7584 74.5594H31.2784C31.7984 74.5594 32.2434 75.0044 32.2434 75.5234V77.0434L32.9104 75.1894C33.0594 74.8194 33.3934 74.5584 33.8004 74.5584H34.6164C34.7713 74.5588 34.9238 74.5968 35.0608 74.6692C35.1978 74.7416 35.3151 74.8462 35.4027 74.974C35.4902 75.1018 35.5454 75.249 35.5635 75.4029C35.5816 75.5568 35.562 75.7128 35.5064 75.8574L32.2784 84.5374C32.0564 84.9084 31.7224 85.1694 31.3134 85.1694H31.3174ZM30.0554 77.4144C30.1382 77.465 30.213 77.5277 30.2774 77.6004V76.7844L30.0554 77.4144Z" fill="white"/>
<path d="M35.3233 83.2774C36.2503 83.2774 36.8063 82.7584 37.4003 82.0894H37.8073C37.1403 83.1654 36.1373 84.2414 34.6173 84.2414C33.5033 84.2414 32.7983 83.7224 32.7983 82.3864C32.7983 81.0504 33.5413 78.2314 35.9513 78.2314C36.9903 78.2314 37.2503 78.7504 37.2503 79.3444C37.2503 80.6804 35.9513 81.7184 34.5803 81.7934C34.5803 81.9414 34.5423 82.1274 34.5423 82.2754C34.5043 83.0914 34.7643 83.2774 35.3203 83.2774H35.3233ZM36.0283 78.8994C35.4343 78.8994 34.8783 80.1614 34.6183 81.3114C35.5083 81.2364 36.3243 80.3464 36.3243 79.3814C36.3243 79.0844 36.2503 78.8994 36.0283 78.8994Z" fill="#6D1D0E"/>
<path d="M34.575 85.2066C32.832 85.2066 31.793 84.1666 31.793 82.3866C31.793 80.2726 33.054 77.2666 35.911 77.2666C37.283 77.2666 38.137 78.0466 38.137 79.3456C38.1409 79.9826 37.9466 80.605 37.581 81.1266H37.765C38.099 81.1266 38.433 81.3126 38.582 81.6096C38.766 81.9066 38.73 82.2776 38.544 82.5746C37.544 84.3556 36.17 85.2086 34.575 85.2086V85.2066Z" fill="white"/>
<path d="M39.814 83.2774C40.741 83.2774 41.297 82.7584 41.891 82.0894H42.298C41.631 83.1654 40.628 84.2414 39.108 84.2414C37.994 84.2414 37.29 83.7224 37.29 82.3864C37.29 81.0504 38.032 78.2314 40.443 78.2314C41.481 78.2314 41.741 78.7504 41.741 79.3444C41.741 80.6804 40.443 81.7184 39.071 81.7934C39.071 81.9414 39.033 82.1274 39.033 82.2754C38.959 83.0914 39.255 83.2774 39.811 83.2774H39.814ZM40.482 78.8994C39.889 78.8994 39.332 80.1614 39.072 81.3114C39.962 81.2364 40.78 80.3464 40.78 79.3814C40.78 79.0844 40.706 78.8984 40.484 78.8984L40.482 78.8994Z" fill="#6D1D0E"/>
<path d="M39.0662 85.2066C37.3232 85.2066 36.2842 84.1666 36.2842 82.3866C36.2842 80.2726 37.5452 77.2666 40.4022 77.2666C41.7742 77.2666 42.6282 78.0466 42.6282 79.3456C42.6282 79.9766 42.4052 80.6066 42.0342 81.1266H42.2572C42.5902 81.1266 42.9242 81.3126 43.0732 81.6096C43.2582 81.9066 43.2212 82.2776 43.0352 82.5746C41.9972 84.3556 40.6612 85.2086 39.0662 85.2086V85.2066Z" fill="white"/>
<path d="M47.38 78.3792L45.043 80.0122C45.154 79.9752 45.303 79.9752 45.414 79.9752C46.268 79.9752 46.713 80.6052 46.713 81.3472C46.713 81.4952 46.713 81.6442 46.675 81.7922L46.565 82.3862C46.5221 82.5053 46.4968 82.6299 46.49 82.7562C46.49 82.9792 46.601 83.2022 46.935 83.2022C47.233 83.2022 47.269 83.1652 47.344 83.1272C47.27 83.9432 46.565 84.3152 46.268 84.3152C45.303 84.3152 44.785 83.8322 44.785 82.9792C44.785 82.7932 44.822 82.6092 44.858 82.3852L44.969 81.9402C45.007 81.7912 45.007 81.6432 45.007 81.4942C45.007 81.1602 44.896 80.9382 44.598 80.9382C44.338 80.9382 44.078 81.0862 43.745 81.3832L43.151 84.2782H41.481L43.189 76.3372L44.932 76.1152L44.042 80.2332L46.305 78.4512H47.381V78.3772L47.38 78.3792Z" fill="#6D1D0E"/>
<path d="M46.2612 85.2071C45.2592 85.2071 44.4812 84.7991 44.1092 84.0941L44.0362 84.3911C43.9889 84.6019 43.8712 84.7902 43.7025 84.9251C43.5338 85.06 43.3242 85.1334 43.1082 85.1331H41.4402C41.1442 85.1331 40.8842 84.9851 40.6982 84.7631C40.5132 84.5401 40.4382 84.2431 40.5132 83.9471L42.2202 76.0071C42.2554 75.8107 42.3544 75.6314 42.502 75.497C42.6495 75.3627 42.8373 75.2808 43.0362 75.2641L44.7792 75.0421C45.0752 75.0051 45.4102 75.1171 45.5952 75.3391C45.8172 75.5621 45.8922 75.8951 45.8172 76.1921L45.4842 77.7131L45.6692 77.5651C45.8338 77.4224 46.0443 77.3436 46.2622 77.3431H47.4122C47.8192 77.3431 48.1912 77.6021 48.3392 78.0101C48.4512 78.4181 48.3022 78.8261 47.9692 79.0851L47.1522 79.6421C47.4862 80.0501 47.7082 80.6061 47.7082 81.2371C47.7082 81.4601 47.6712 81.6831 47.6352 81.9051L47.5972 82.0911C47.7082 82.1281 47.8202 82.1641 47.9312 82.2391C48.1912 82.4251 48.3392 82.7591 48.3392 83.0921C48.1912 84.4651 47.0402 85.2071 46.2612 85.2071Z" fill="white"/>
<path d="M27.263 82.6482L29.711 75.5242H31.231V82.6482L33.754 75.5242H34.571L31.343 84.2062H29.636V78.2692L27.336 84.2062H25.631V76.2292C24.37 76.6372 23.739 77.5282 23.739 78.8262C23.739 79.4202 23.888 79.5312 23.888 79.6062C23.072 79.6062 22.627 79.3092 22.627 78.4932C22.627 76.9352 24.779 75.4512 26.707 75.4512C26.855 75.4512 27.004 75.4512 27.189 75.4882L27.263 82.6482ZM35.323 83.2772C36.25 83.2772 36.806 82.7582 37.4 82.0892H37.807C37.14 83.1652 36.137 84.2412 34.617 84.2412C33.503 84.2412 32.798 83.7222 32.798 82.3862C32.798 81.0502 33.541 78.2312 35.951 78.2312C36.99 78.2312 37.25 78.7502 37.25 79.3442C37.25 80.6802 35.951 81.7182 34.58 81.7932C34.58 81.9412 34.542 82.1272 34.542 82.2752C34.504 83.0912 34.764 83.2772 35.32 83.2772H35.323ZM36.028 78.8992C35.434 78.8992 34.878 80.1612 34.618 81.3112C35.508 81.2362 36.324 80.3462 36.324 79.3812C36.324 79.0842 36.25 78.8992 36.028 78.8992Z" fill="#411F1F"/>
<path d="M39.814 83.2774C40.741 83.2774 41.297 82.7584 41.891 82.0894H42.298C41.631 83.1654 40.628 84.2414 39.108 84.2414C37.994 84.2414 37.29 83.7224 37.29 82.3864C37.29 81.0504 38.032 78.2314 40.443 78.2314C41.481 78.2314 41.741 78.7504 41.741 79.3444C41.741 80.6804 40.443 81.7184 39.071 81.7934C39.071 81.9414 39.033 82.1274 39.033 82.2754C38.959 83.0914 39.255 83.2774 39.811 83.2774H39.814ZM40.482 78.8994C39.889 78.8994 39.332 80.1614 39.072 81.3114C39.962 81.2364 40.78 80.3464 40.78 79.3814C40.78 79.0844 40.706 78.8984 40.484 78.8984L40.482 78.8994Z" fill="#411F1F"/>
<path d="M47.38 78.3802L45.043 80.0132C45.154 79.9762 45.303 79.9762 45.414 79.9762C46.268 79.9762 46.713 80.6072 46.713 81.3482C46.713 81.4972 46.713 81.6452 46.675 81.7932L46.565 82.3872C46.5221 82.5063 46.4968 82.6309 46.49 82.7572C46.49 82.9812 46.601 83.2032 46.935 83.2032C47.233 83.2032 47.269 83.1662 47.344 83.1282C47.27 83.9442 46.565 84.3162 46.268 84.3162C45.303 84.3162 44.785 83.8332 44.785 82.9802C44.785 82.7942 44.822 82.6102 44.858 82.3862L44.969 81.9412C45.007 81.7922 45.007 81.6442 45.007 81.4952C45.007 81.1612 44.896 80.9392 44.598 80.9392C44.338 80.9392 44.078 81.0882 43.745 81.3842L43.151 84.2792H41.481L43.189 76.3382L44.932 76.1152L44.042 80.2332L46.305 78.4512H47.381V78.3782L47.38 78.3802Z" fill="#411F1F"/>
<path d="M20.3281 55.1169L18.8081 61.7219H18.9931C21.5891 61.7219 23.6661 59.1238 23.6661 56.8988C23.6661 55.1918 22.4421 53.7079 19.3641 53.7079C15.5431 53.7079 11.2031 56.0078 11.2031 60.9058C11.2031 62.4258 11.6111 62.6499 11.6481 62.9089C9.49613 62.9089 8.16113 62.1668 8.16113 60.1628C8.16113 56.0818 13.8371 52.2979 19.9941 52.2979C24.7781 52.2979 26.9301 54.5978 26.9301 57.0098C26.9301 58.7538 25.7801 60.6459 23.6661 61.7219C26.4481 62.2399 27.5241 64.2819 27.5241 66.5079C27.5241 69.3649 25.8181 75.0419 20.4021 75.0419C18.9921 75.0419 17.1761 74.6718 17.1761 72.8528C17.1761 72.3698 17.3251 71.8129 17.5831 71.1459C18.3991 71.9259 19.0301 72.2219 19.7711 72.2219C22.1451 72.2219 22.9991 69.1418 22.9991 66.8788C22.9991 64.8018 22.2941 63.0939 19.9191 63.0939C19.6601 63.0939 18.9931 63.1308 18.4371 63.1688L15.7671 74.5959H11.0931L15.5061 55.7108L20.3281 55.1169Z" fill="#6D1D0E"/>
<path d="M20.4453 76.1917C18.8123 76.1917 17.5883 75.7457 16.8473 74.9307C16.7708 75.1458 16.6302 75.3322 16.4444 75.4649C16.2586 75.5976 16.0366 75.6701 15.8083 75.6727H11.0983C10.7643 75.6727 10.4303 75.5237 10.2083 75.2647C10.1001 75.1314 10.0237 74.9752 9.9851 74.808C9.94645 74.6407 9.94651 74.4669 9.98528 74.2997L12.4713 63.6897C12.3712 63.7957 12.2504 63.88 12.1164 63.9375C11.9824 63.9949 11.8381 64.0243 11.6923 64.0237C7.68629 64.0237 7.09229 61.6117 7.09229 60.1647C7.09229 55.4907 13.2873 51.2227 20.0383 51.2227C24.0453 51.2227 28.0883 53.0407 28.0883 57.0477C28.0883 58.6807 27.3453 60.2377 26.0473 61.4617C27.7163 62.4637 28.6433 64.2457 28.6433 66.5457C28.6433 68.1037 28.1983 70.4417 26.9363 72.4827C25.4893 74.8937 23.2273 76.1917 20.4453 76.1917ZM18.3303 73.0377C18.4043 73.6687 19.1093 73.9657 20.4453 73.9657C25.3403 73.9657 26.4543 68.4747 26.4543 66.5457C26.4543 65.0987 25.9343 63.3167 23.5243 62.8727C23.0413 62.7977 22.7083 62.4277 22.6343 61.9447C22.5963 61.7217 22.6343 61.5367 22.7083 61.3507C22.3363 61.6857 21.8923 62.0187 21.4093 62.2417C23.8573 62.9837 24.1553 65.6547 24.1553 66.9167C24.1553 70.0327 22.7823 73.3717 19.8153 73.3717C19.2953 73.3347 18.8113 73.2617 18.3303 73.0377ZM12.5073 73.4457H14.9193L17.4043 62.9457C17.4783 62.6487 17.6643 62.4257 17.8873 62.2777C17.8154 62.1559 17.7685 62.021 17.7493 61.8809C17.7301 61.7408 17.7389 61.5983 17.7753 61.4617L18.8893 56.4157L16.4413 56.7127L12.5083 73.4457H12.5073ZM17.9973 70.1057C18.1453 70.1437 18.2943 70.2547 18.4053 70.3657C19.1473 71.0707 19.4813 71.1457 19.8153 71.1457C21.3353 71.1457 21.9293 68.5477 21.9293 66.9157C21.9293 64.5777 20.9643 64.2807 19.9633 64.2807C19.8533 64.2807 19.6303 64.2807 19.3703 64.3177L17.9973 70.1057ZM14.1393 56.7127C13.1013 57.6777 12.3593 59.0507 12.3593 60.8687C12.3593 61.6847 12.5073 61.9437 12.5813 62.1287C12.6183 62.2407 12.6913 62.3527 12.7663 62.4997L14.1383 56.7117L14.1393 56.7127ZM11.5053 56.3037C10.1693 57.4167 9.31729 58.7897 9.31729 60.1627C9.31729 60.6077 9.31729 61.2377 10.1333 61.5347C10.1333 61.3487 10.0953 61.0897 10.0953 60.8667C10.1333 59.1607 10.6153 57.6027 11.5053 56.3037ZM23.8203 54.1517C24.5243 54.9317 24.8223 55.9337 24.8223 56.8977C24.8223 58.1957 24.2283 59.6437 23.2643 60.7557C24.8583 59.9027 25.8603 58.4927 25.8603 57.0457C25.8603 55.7857 25.1183 54.7827 23.8203 54.1517ZM21.4473 55.1917C21.4473 55.2657 21.4473 55.3017 21.4093 55.3767L20.2593 60.3117C21.5953 59.6807 22.5593 58.1977 22.5593 56.9367C22.5963 56.0077 22.0763 55.4877 21.4473 55.1917Z" fill="white"/>
<path d="M40.623 60.4597L38.583 70.0697C38.5181 70.3623 38.4806 70.6602 38.471 70.9597C38.471 71.7397 38.842 71.9997 39.621 71.9997C40.733 71.9997 41.475 70.9237 41.92 69.5127H43.107C41.512 74.1127 38.952 74.7447 37.431 74.7447C35.911 74.7447 34.797 73.8167 34.65 72.0747C33.24 74.3747 31.645 74.7447 30.458 74.7447C28.752 74.7447 27.417 73.7427 27.417 71.3687C27.417 70.8497 27.491 70.2187 27.639 69.5137L29.569 60.4237H33.649L31.608 70.0337C31.571 70.3297 31.534 70.5517 31.534 70.8127C31.534 71.4797 31.757 71.9627 32.388 71.9627C33.5 71.9627 34.242 70.8877 34.651 69.4767L36.581 60.3867H40.624V60.4607L40.623 60.4597Z" fill="#6D1D0E"/>
<path d="M37.4303 75.7082C36.0213 75.7082 34.9083 75.1152 34.2783 74.0762C33.2023 75.1522 31.9413 75.7082 30.4573 75.7082C28.5273 75.7082 26.4883 74.5582 26.4883 71.3682C26.4883 70.8112 26.5623 70.1432 26.7483 69.3262L28.6783 60.2362C28.7253 60.0254 28.8428 59.8369 29.0113 59.7019C29.1798 59.5668 29.3893 59.4932 29.6053 59.4932H33.6853C33.9813 59.4932 34.2413 59.6422 34.4273 59.8632C34.6123 60.0872 34.6873 60.3832 34.6123 60.6802L32.5723 70.2902C32.5343 70.5132 32.4973 70.6972 32.4973 70.8832V71.0692C33.1653 70.9212 33.5733 69.7332 33.7223 69.3252L35.6523 60.2722C35.6995 60.0616 35.8171 59.8734 35.9856 59.7385C36.1541 59.6036 36.3635 59.5302 36.5793 59.5302H40.6593C40.9553 59.5302 41.2153 59.6782 41.4013 59.9002C41.5863 60.1232 41.6613 60.4202 41.5863 60.7162L39.5463 70.3262C39.4713 70.6232 39.4343 70.8452 39.4343 71.0302V71.1052H39.6193C40.3983 71.1052 40.8793 69.7332 40.9913 69.2882C41.1023 68.8802 41.4733 68.6202 41.9183 68.6202H43.1053C43.4023 68.6202 43.6993 68.7692 43.8843 69.0282C44.0693 69.2882 44.1063 69.6222 43.9953 69.8812C42.3253 74.7042 39.5073 75.7062 37.4303 75.7062V75.7082ZM34.9823 71.1832C35.1406 71.25 35.2787 71.3573 35.3828 71.4941C35.4868 71.631 35.5532 71.7927 35.5753 71.9632C35.6863 73.2232 36.2803 73.7802 37.4303 73.7802C38.3203 73.7802 39.1353 73.4832 39.8413 72.9272H39.6193C37.7653 72.9272 37.5053 71.6652 37.5053 70.9232C37.5053 70.5892 37.5423 70.2182 37.6533 69.8102L39.4343 61.3502H37.3203L35.5773 69.6622C35.5773 69.6872 35.5643 69.7122 35.5393 69.7372C35.3903 70.3672 35.2053 70.8122 34.9833 71.1842L34.9823 71.1832ZM30.3463 61.4242L28.6023 69.7352C28.4543 70.4032 28.3803 70.9232 28.3803 71.3682C28.3803 73.0012 29.0853 73.8182 30.4573 73.8182C31.0873 73.8182 31.9043 73.7062 32.7203 72.9642C32.6093 72.9642 32.4973 73.0012 32.3863 73.0012C31.5703 73.0012 30.5693 72.4452 30.5693 70.8872C30.5693 70.5902 30.6073 70.2562 30.6803 69.9222L32.4613 61.4632H30.3473V61.4262L30.3463 61.4242Z" fill="white"/>
<path d="M47.9302 60.458L47.5602 62.202C48.5602 61.349 49.6372 60.458 50.9722 60.458C52.2332 60.458 52.9382 61.498 52.9382 62.572C52.9382 63.574 52.2712 64.651 50.8982 64.651C49.3032 64.651 50.1182 62.796 49.2652 62.796C48.4122 62.796 47.8932 63.204 47.1892 63.872L44.9262 74.632H40.8462L43.8502 60.495H47.9302V60.458Z" fill="#6D1D0E"/>
<path d="M44.9274 75.5601H40.8474C40.5504 75.5601 40.2914 75.4111 40.1054 75.1891C39.9204 74.9661 39.8454 74.6701 39.9204 74.3731L42.9244 60.2361C42.9716 60.0256 43.0892 59.8373 43.2577 59.7025C43.4262 59.5676 43.6356 59.4941 43.8514 59.4941H47.9314C48.2284 59.4941 48.4874 59.6051 48.6744 59.8641C48.7445 59.9372 48.7953 60.0266 48.8224 60.1241C49.4534 59.7901 50.1584 59.5301 50.9744 59.5301C52.6444 59.5301 53.8674 60.8661 53.8674 62.6101C53.8674 64.0581 52.8294 65.6161 50.8634 65.6161C49.2694 65.6161 48.9334 64.4281 48.8234 63.8341C48.6004 63.9091 48.3774 64.0941 48.0434 64.3911L45.8564 74.8161C45.7454 75.2241 45.3734 75.5581 44.9294 75.5581L44.9274 75.5601ZM42.0334 73.6301H44.1484L46.2624 63.6501C46.2994 63.4641 46.4114 63.2801 46.5594 63.1301C46.6714 63.0201 46.7824 62.9451 46.8934 62.8341C46.6714 62.6101 46.5964 62.2771 46.6714 61.9801L46.7814 61.3871H44.6674L42.0334 73.6301ZM50.7884 63.6871H50.8994C51.9384 63.6871 51.9754 62.7601 51.9754 62.5741C51.9754 62.4641 51.9384 61.4241 50.9734 61.4241C50.4914 61.4241 50.0084 61.6101 49.5634 61.8691C50.4174 62.0551 50.6024 62.9821 50.6764 63.3161C50.7134 63.4271 50.7494 63.6131 50.7864 63.6871H50.7884Z" fill="white"/>
<path d="M64.9531 60.4596L62.1701 73.5916C63.8771 72.9606 64.9521 71.9956 65.7321 69.5476H66.9191C65.8051 73.2946 63.6551 74.3696 61.9121 74.8156L61.5031 76.8556C60.6501 80.9006 58.2771 81.6796 56.4211 81.6796C54.6781 81.6796 53.2681 80.7886 53.2681 78.9336C53.2681 76.5596 55.7541 75.3716 57.8681 74.7036L58.2021 73.2186C57.3851 74.1086 56.2721 74.7766 54.8261 74.7766C52.8961 74.7766 51.0801 73.5896 51.0801 70.2136C51.0801 66.3926 53.4171 60.3066 58.3501 60.3066C59.9451 60.3066 60.6501 60.9386 60.6501 61.7536V61.9396L60.9471 60.4556H64.9531L64.9521 60.4576L64.9531 60.4596ZM55.7541 79.4556C56.3481 79.4556 57.0151 78.6026 57.3871 76.9336L57.5711 76.1176C56.1241 76.6736 54.7901 77.3786 54.7901 78.5286C54.7901 78.9366 55.1231 79.4556 55.7541 79.4556ZM55.2341 69.8086C55.2341 71.9986 56.1241 72.0346 56.6441 72.0346C57.4231 72.0346 58.4991 71.2546 58.9071 69.8086L60.3541 63.0936C60.3171 62.7966 60.0941 62.0536 59.2041 62.0536C56.7571 62.0916 55.2361 67.1736 55.2361 69.8086H55.2341Z" fill="#6D1D0E"/>
<path d="M56.426 82.6098C53.978 82.6098 52.309 81.1248 52.309 78.8998C52.309 77.6378 52.829 76.5248 53.904 75.6348C51.938 75.2998 50.082 73.7418 50.082 70.2178C50.082 65.6538 52.939 59.3838 58.317 59.3838C59.133 59.3838 59.8 59.5328 60.283 59.7918C60.468 59.6438 60.69 59.5328 60.913 59.5328H64.993C65.291 59.5328 65.55 59.6808 65.736 59.9028C65.921 60.1258 65.996 60.4228 65.921 60.7188L63.584 71.7008C64.067 71.1818 64.474 70.4398 64.845 69.2898C64.956 68.8818 65.328 68.6218 65.772 68.6218H66.96C67.257 68.6218 67.553 68.7708 67.738 68.9918C67.923 69.2518 67.96 69.5488 67.887 69.8458C66.737 73.7048 64.547 75.0028 62.768 75.5968L62.472 77.0818C61.47 81.6448 58.614 82.6088 56.425 82.6088L56.426 82.6098ZM54.461 79.8998C54.943 80.6048 55.908 80.7158 56.391 80.7158C59.358 80.7158 60.174 78.4158 60.545 76.6718L60.954 74.6308C60.9741 74.5175 61.0172 74.4095 61.0809 74.3137C61.1446 74.2178 61.2273 74.1362 61.324 74.0738C61.214 73.8878 61.176 73.6288 61.214 73.4068L63.773 61.4588H61.658L61.51 62.1638C61.4807 62.3683 61.3749 62.5541 61.214 62.6838C61.2562 62.8029 61.2808 62.9276 61.287 63.0538V63.3508L59.84 70.0658V70.1028C59.6009 70.9681 59.1101 71.7428 58.43 72.3288C58.505 72.3288 58.58 72.3658 58.653 72.4038C59.024 72.5898 59.247 73.0348 59.136 73.4428L58.802 74.9268C58.728 75.1868 58.58 75.4098 58.357 75.5588C58.542 75.7818 58.58 76.0418 58.542 76.3388L58.357 77.1538C57.912 79.2328 56.947 80.4188 55.797 80.4188C55.242 80.4188 54.797 80.2328 54.462 79.8998H54.461ZM55.759 78.4898C55.759 78.5148 55.759 78.5148 55.759 78.4898ZM56.018 78.0078C55.833 78.1928 55.758 78.3038 55.758 78.4148C55.832 78.3408 55.943 78.2298 56.018 78.0078ZM58.281 61.2748C53.904 61.3118 52.011 67.2118 52.011 70.2168C52.011 72.5548 52.976 73.8158 54.831 73.8158C55.684 73.8158 56.463 73.5188 57.13 72.9258C56.981 72.9628 56.796 72.9628 56.648 72.9628C55.089 72.9628 54.273 71.8868 54.273 69.8088C54.273 68.2508 54.718 66.2088 55.423 64.5788C56.202 62.7968 57.166 61.6838 58.28 61.2758L58.281 61.2748ZM59.171 63.0188C57.762 63.0188 56.168 67.0628 56.168 69.8088C56.168 70.8108 56.39 71.0328 56.39 71.0328H56.613C56.91 71.0328 57.651 70.5868 57.948 69.5478L59.358 63.0548C59.321 63.0178 59.247 63.0178 59.173 63.0178L59.171 63.0188Z" fill="white"/>
<path d="M70.6709 72.4063C72.8969 72.4063 74.2689 71.1454 75.6789 69.5494H76.6429C75.0489 72.1464 72.6369 74.7803 68.8529 74.7803C66.1829 74.7803 64.4399 73.4814 64.4399 70.2904C64.4399 67.1004 66.2939 60.2354 72.0809 60.2354C74.6039 60.2354 75.1979 61.5344 75.1979 62.9444C75.1979 66.2084 72.0809 68.6944 68.7059 68.9174C68.6679 69.3254 68.6319 69.6974 68.6319 70.0674C68.6319 71.9224 69.2989 72.4053 70.6719 72.4053L70.6709 72.4063ZM72.3029 61.7214C70.8559 61.7214 69.4839 64.7643 68.9279 67.5463C71.1159 67.3973 73.0459 65.2463 73.0459 62.8713C73.0079 62.1663 72.8229 61.7214 72.3029 61.7214Z" fill="#6D1D0E"/>
<path d="M68.8511 75.7074C65.4391 75.7074 63.4731 73.7044 63.4731 70.2534C63.4731 66.8034 65.5871 59.2344 72.0791 59.2344C74.7131 59.2344 76.1591 60.5334 76.1591 62.9074C76.1591 66.2474 73.3021 69.1414 69.5931 69.7334V69.9934C69.5931 71.3654 69.8531 71.4034 70.6691 71.4034C72.4121 71.4034 73.5261 70.5124 74.9721 68.8804C75.0575 68.7759 75.1651 68.6918 75.287 68.634C75.409 68.5762 75.5422 68.5463 75.6771 68.5464H76.6411C76.9751 68.5464 77.3081 68.7314 77.4571 69.0284C77.6421 69.3254 77.6061 69.6964 77.4201 69.9934C75.0461 73.8514 72.2641 75.7074 68.8511 75.7074ZM70.8911 61.2754C69.2601 61.6094 67.9241 62.6854 66.9231 64.4664C65.8111 66.4704 65.4031 68.8454 65.4031 70.2554C65.4031 72.6664 66.5161 73.7794 68.8531 73.7794C69.7431 73.7794 70.5591 73.6304 71.3381 73.2964C71.1151 73.3334 70.8931 73.3334 70.6331 73.3334C68.5931 73.3334 67.6291 72.2584 67.6291 69.9934C67.6291 69.6234 67.6661 69.2144 67.7031 68.8064C67.7168 68.6665 67.7603 68.5312 67.8307 68.4096C67.9011 68.288 67.9967 68.1829 68.1111 68.1014C67.9598 67.8854 67.8939 67.6211 67.9261 67.3594C68.3711 65.4294 69.3361 62.4614 70.8941 61.2744L70.8911 61.2754ZM72.0411 62.7584C71.5591 63.0934 70.8171 64.2794 70.2611 66.0614C71.2991 65.3934 72.0411 64.1314 72.0411 62.8334V62.7584ZM73.6371 61.4984C73.8221 61.7944 73.9341 62.2394 73.9341 62.8694C73.9341 63.8714 73.6371 64.8354 73.1561 65.6894C73.8231 64.8734 74.1941 63.9454 74.1941 62.9064C74.2321 62.3864 74.1571 61.8304 73.6381 61.4964V61.4974L73.6371 61.4984Z" fill="white"/>
<path d="M80.9463 60.458L80.5753 62.202C81.5773 61.349 82.6523 60.458 83.9883 60.458C85.2483 60.458 85.9533 61.498 85.9533 62.572C85.9533 63.574 85.2863 64.651 83.9133 64.651C82.3183 64.651 83.1343 62.796 82.2813 62.796C81.4273 62.796 80.9093 63.204 80.2043 63.872L77.9413 74.632H73.8613L76.8653 60.495H80.9453L80.9463 60.458Z" fill="#6D1D0E"/>
<path d="M77.9362 75.5601H73.8562C73.5592 75.5601 73.3002 75.4111 73.1142 75.1891C72.9292 74.9661 72.8542 74.6701 72.9292 74.3731L75.9332 60.2361C75.9804 60.0256 76.098 59.8373 76.2665 59.7025C76.435 59.5676 76.6444 59.4941 76.8602 59.4941H80.9402C81.2382 59.4941 81.4962 59.6051 81.6832 59.8641C81.7533 59.9372 81.8042 60.0265 81.8312 60.1241C82.4622 59.7901 83.1672 59.5301 83.9832 59.5301C85.6532 59.5301 86.8762 60.8661 86.8762 62.6101C86.8762 64.0581 85.8382 65.6161 83.8722 65.6161C82.2772 65.6161 81.9422 64.4281 81.8322 63.8341C81.6092 63.9091 81.3862 64.0941 81.0522 64.3911L78.8652 74.8161C78.7912 75.2241 78.3822 75.5581 77.9382 75.5581L77.9362 75.5601ZM75.0432 73.6301H77.1582L79.2722 63.6501C79.3102 63.4641 79.4212 63.2801 79.5692 63.1301C79.6812 63.0201 79.7922 62.9451 79.9032 62.8341C79.6812 62.6101 79.6062 62.2771 79.6812 61.9801L79.7912 61.3871H77.6782L75.0432 73.6301ZM83.7972 63.6871H83.9082C84.9472 63.6871 84.9842 62.6851 84.9842 62.5741C84.9842 62.4641 84.9472 61.4241 83.9842 61.4241C83.5012 61.4241 83.0182 61.6101 82.5742 61.8691C83.4272 62.0551 83.6122 62.9821 83.6872 63.3161C83.7242 63.4271 83.7602 63.6131 83.7972 63.6871Z" fill="white"/>
<path d="M20.3281 55.1169L18.8081 61.7219H18.9931C21.5891 61.7219 23.6661 59.1238 23.6661 56.8988C23.6661 55.1918 22.4421 53.7079 19.3641 53.7079C15.5431 53.7079 11.2031 56.0078 11.2031 60.9058C11.2031 62.4258 11.6111 62.6499 11.6481 62.9089C9.49613 62.9089 8.16113 62.1668 8.16113 60.1628C8.16113 56.0818 13.8371 52.2979 19.9941 52.2979C24.7781 52.2979 26.9301 54.5978 26.9301 57.0098C26.9301 58.7538 25.7801 60.6459 23.6661 61.7219C26.4481 62.2399 27.5241 64.2819 27.5241 66.5079C27.5241 69.3649 25.8181 75.0419 20.4021 75.0419C18.9921 75.0419 17.1761 74.6718 17.1761 72.8528C17.1761 72.3698 17.3251 71.8129 17.5831 71.1459C18.3991 71.9259 19.0301 72.2219 19.7711 72.2219C22.1451 72.2219 22.9991 69.1418 22.9991 66.8788C22.9991 64.8018 22.2941 63.0939 19.9191 63.0939C19.6601 63.0939 18.9931 63.1308 18.4371 63.1688L15.7671 74.5959H11.0931L15.5061 55.7108L20.3281 55.1169ZM40.6231 60.4599L38.5831 70.0699C38.5182 70.3624 38.4807 70.6603 38.4711 70.9599C38.4711 71.7399 38.8421 71.9999 39.6211 71.9999C40.7331 71.9999 41.4751 70.9239 41.9201 69.5129H43.1071C41.5121 74.1129 38.9521 74.7449 37.4311 74.7449C35.9111 74.7449 34.7971 73.8168 34.6501 72.0748C33.2401 74.3748 31.6451 74.7449 30.4581 74.7449C28.7521 74.7449 27.4171 73.7429 27.4171 71.3689C27.4171 70.8499 27.4911 70.2189 27.6391 69.5139L29.5691 60.4239H33.6491L31.6081 70.0338C31.5711 70.3298 31.5341 70.5519 31.5341 70.8129C31.5341 71.4799 31.7571 71.9628 32.3881 71.9628C33.5001 71.9628 34.2421 70.8878 34.6511 69.4768L36.5811 60.3869H40.6241V60.4608L40.6231 60.4599Z" fill="#411F1F"/>
<path d="M47.9302 60.458L47.5602 62.202C48.5602 61.349 49.6372 60.458 50.9722 60.458C52.2332 60.458 52.9382 61.498 52.9382 62.572C52.9382 63.574 52.2712 64.651 50.8982 64.651C49.3032 64.651 50.1182 62.796 49.2652 62.796C48.4122 62.796 47.8932 63.204 47.1892 63.872L44.9262 74.632H40.8462L43.8502 60.495H47.9302V60.458Z" fill="#411F1F"/>
<path d="M64.9531 60.4596L62.1701 73.5916C63.8771 72.9606 64.9521 71.9956 65.7321 69.5476H66.9191C65.8051 73.2946 63.6551 74.3696 61.9121 74.8156L61.5031 76.8556C60.6501 80.9006 58.2771 81.6796 56.4211 81.6796C54.6781 81.6796 53.2681 80.7886 53.2681 78.9336C53.2681 76.5596 55.7541 75.3716 57.8681 74.7036L58.2021 73.2186C57.3851 74.1086 56.2721 74.7766 54.8261 74.7766C52.8961 74.7766 51.0801 73.5896 51.0801 70.2136C51.0801 66.3926 53.4171 60.3066 58.3501 60.3066C59.9451 60.3066 60.6501 60.9386 60.6501 61.7536V61.9396L60.9471 60.4556H64.9531L64.9521 60.4576L64.9531 60.4596ZM55.7541 79.4556C56.3481 79.4556 57.0151 78.6026 57.3871 76.9336L57.5711 76.1176C56.1241 76.6736 54.7901 77.3786 54.7901 78.5286C54.7901 78.9366 55.1241 79.4566 55.7551 79.4566L55.7541 79.4556ZM55.2341 69.8086C55.2341 71.9986 56.1241 72.0346 56.6441 72.0346C57.4231 72.0346 58.4991 71.2546 58.9071 69.8086L60.3541 63.0936C60.3171 62.7966 60.0941 62.0536 59.2041 62.0536C56.7571 62.0916 55.2361 67.1736 55.2361 69.8086H55.2341Z" fill="#411F1F"/>
<path d="M70.6709 72.4063C72.8969 72.4063 74.2689 71.1454 75.6789 69.5494H76.6429C75.0489 72.1464 72.6369 74.7803 68.8529 74.7803C66.1829 74.7803 64.4399 73.4814 64.4399 70.2904C64.4399 67.1004 66.2939 60.2354 72.0809 60.2354C74.6039 60.2354 75.1979 61.5344 75.1979 62.9444C75.1979 66.2084 72.0809 68.6944 68.7059 68.9174C68.6679 69.3254 68.6319 69.6974 68.6319 70.0674C68.6319 71.9224 69.2989 72.4053 70.6719 72.4053L70.6709 72.4063ZM72.3029 61.7214C70.8559 61.7214 69.4839 64.7643 68.9279 67.5463C71.1159 67.3973 73.0459 65.2463 73.0459 62.8713C73.0079 62.1663 72.8229 61.7214 72.3029 61.7214Z" fill="#411F1F"/>
<path d="M80.9463 60.458L80.5753 62.202C81.5773 61.349 82.6523 60.458 83.9883 60.458C85.2483 60.458 85.9533 61.498 85.9533 62.572C85.9533 63.574 85.2863 64.651 83.9133 64.651C82.3183 64.651 83.1343 62.796 82.2813 62.796C81.4273 62.796 80.9093 63.204 80.2043 63.872L77.9413 74.632H73.8613L76.8653 60.495H80.9453L80.9463 60.458Z" fill="#411F1F"/>
<path d="M5.72039 70.8475C6.94539 71.1075 8.20639 72.3675 9.69039 72.3675C10.0234 72.3675 10.3204 72.3305 10.6904 72.1825C10.5804 73.3325 10.0974 74.0365 9.46639 74.0365C7.76039 74.0365 6.27639 71.3665 4.19939 71.3665H3.93939L5.68239 63.1665C4.64439 63.5745 4.01239 64.4645 4.01239 65.7265C4.01239 66.3195 4.16239 66.4305 4.16239 66.5425C3.34539 66.5425 2.90039 66.2455 2.90039 65.3925C2.90039 63.8335 5.08839 62.3125 7.05539 62.3125C7.20439 62.3125 7.38939 62.3125 7.53839 62.3495L5.71939 70.8455L5.72139 70.8475H5.72039Z" fill="#6D1D0E"/>
<path d="M9.42711 74.9666C8.27711 74.9666 7.38711 74.2236 6.49711 73.5186C5.68111 72.8886 4.93911 72.2956 4.16011 72.2956H4.01111C3.71511 72.3326 3.38111 72.2206 3.19511 71.9986C2.97311 71.7766 2.89911 71.4416 2.97311 71.1456L3.75211 67.4726C2.12011 67.2866 1.93311 65.9876 1.93311 65.3936C1.93311 63.5386 4.15911 61.3496 7.01611 61.3496C7.20011 61.3496 7.38611 61.3496 7.53611 61.3876C7.79611 61.4246 8.05611 61.5356 8.24011 61.7576C8.42511 61.9806 8.46311 62.2766 8.42511 62.5376L6.79311 70.1796L7.68311 70.6246C8.35011 70.9966 9.01911 71.3676 9.64811 71.3676C9.87111 71.3676 10.0931 71.3296 10.2801 71.2566C10.5761 71.1456 10.9471 71.1816 11.2071 71.3666C11.4671 71.5536 11.6151 71.8866 11.5771 72.2206C11.4291 74.2616 10.3531 74.9666 9.42611 74.9666H9.42711Z" fill="white"/>
<path d="M9.61211 70.0316C10.0571 70.0316 10.6121 69.7346 11.0221 69.3996C10.7621 70.7356 9.90811 71.1436 8.98111 71.1436C7.86711 71.1436 7.16211 70.5876 7.16211 69.2516C7.16211 67.9156 7.94111 65.0586 10.3521 65.0586C11.3921 65.0586 11.6521 65.6146 11.6521 66.2086C11.6521 67.5806 10.3521 68.6206 8.94311 68.6946C8.94311 68.8066 8.90611 68.9546 8.90611 69.0656C8.90611 69.7706 9.20211 70.0296 9.61011 70.0296L9.61211 70.0316ZM10.4281 65.6896C9.83411 65.6896 9.24111 66.9886 9.01811 68.1386C9.94511 68.1016 10.7241 67.1746 10.7241 66.2086C10.7241 65.8746 10.6501 65.6896 10.4281 65.6896Z" fill="#6D1D0E"/>
<path d="M8.98415 72.1098C7.27815 72.1098 6.20215 71.0328 6.20215 69.2898C6.20215 67.1378 7.50015 64.1318 10.3571 64.1318C11.7291 64.1318 12.6201 64.9478 12.6201 66.2108C12.6201 67.1378 12.2111 67.9548 11.5441 68.5848C11.8781 68.8068 12.0641 69.1788 11.9891 69.5868C11.6551 71.1818 10.5791 72.1088 8.98515 72.1088L8.98415 72.1098Z" fill="white"/>
<path d="M5.72039 70.8475C6.94539 71.1075 8.20639 72.3675 9.69039 72.3675C10.0234 72.3675 10.3204 72.3305 10.6904 72.1825C10.5804 73.3325 10.0974 74.0365 9.46639 74.0365C7.76039 74.0365 6.27639 71.3665 4.19939 71.3665H3.93939L5.68239 63.1665C4.64439 63.5745 4.01239 64.4645 4.01239 65.7265C4.01239 66.3195 4.16239 66.4305 4.16239 66.5425C3.34539 66.5425 2.90039 66.2455 2.90039 65.3925C2.90039 63.8335 5.08839 62.3125 7.05539 62.3125C7.20439 62.3125 7.38939 62.3125 7.53839 62.3495L5.71939 70.8455L5.72139 70.8475H5.72039Z" fill="#411F1F"/>
<path d="M9.61211 70.0316C10.0571 70.0316 10.6121 69.7346 11.0221 69.3996C10.7621 70.7356 9.90811 71.1436 8.98111 71.1436C7.86711 71.1436 7.16211 70.5876 7.16211 69.2516C7.16211 67.9156 7.94111 65.0586 10.3521 65.0586C11.3921 65.0586 11.6521 65.6146 11.6521 66.2086C11.6521 67.5806 10.3521 68.6206 8.94311 68.6946C8.94311 68.8066 8.90611 68.9546 8.90611 69.0656C8.90611 69.7706 9.20211 70.0296 9.61011 70.0296L9.61211 70.0316ZM10.4281 65.6896C9.83411 65.6896 9.24111 66.9886 9.01811 68.1386C9.94511 68.1016 10.7241 67.1746 10.7241 66.2086C10.7241 65.8746 10.6501 65.6896 10.4281 65.6896Z" fill="#411F1F"/>
<path d="M71.3441 94.2695H70.8121V93.0826C70.8121 92.9176 70.7871 92.7576 70.7441 92.6056C70.9701 92.1876 71.0841 91.7826 71.0841 91.4016C71.0841 91.0206 70.9921 90.7076 70.8081 90.4526C70.7093 90.3119 70.5773 90.1979 70.4237 90.1206C70.2702 90.0433 70.1 90.0052 69.9281 90.0096C69.6591 90.0096 69.4281 90.0846 69.2381 90.2336C69.1324 90.3151 69.0474 90.4205 68.9901 90.5411C68.9328 90.6617 68.9047 90.7941 68.9081 90.9276C68.9081 90.9776 68.9101 91.0275 68.9151 91.0755L68.8361 90.6425H66.4551L66.5821 91.3375H65.9721C65.9055 91.2185 65.8212 91.1103 65.7221 91.0165C65.4221 90.7375 65.0261 90.5965 64.5421 90.5965C63.9861 90.5965 63.4991 90.7966 63.0871 91.1906C62.8181 90.7956 62.3811 90.5845 61.8041 90.5845C61.7261 90.5845 61.6481 90.5895 61.5721 90.5965C61.5481 90.5985 61.5241 90.6036 61.4991 90.6066C61.3454 90.6258 61.1944 90.6627 61.0491 90.7166L61.0051 90.7316L61.0251 90.6395H58.6051L58.4571 91.3355H57.9611L58.4911 88.8456L58.6071 88.3105L58.0171 88.3905L56.3871 88.6105L56.1171 88.6466L56.0611 88.9106L55.6791 90.7005C55.4522 90.615 55.2106 90.5749 54.9681 90.5826C54.2561 90.5826 53.6341 90.8326 53.1211 91.3296C53.1191 91.3296 53.1171 91.3325 53.1161 91.3335H52.2701C52.2041 91.1899 52.1134 91.0589 52.0021 90.9465C51.7351 90.6745 51.3171 90.5366 50.7591 90.5366C49.9531 90.5366 49.2781 90.8055 48.7491 91.3335C48.2514 91.8306 47.8779 92.438 47.6591 93.1066C47.4391 93.7686 47.3281 94.3865 47.3281 94.9465C47.3281 95.6725 47.5251 96.2255 47.9141 96.5885C48.2961 96.9475 48.8241 97.1285 49.4801 97.1285C50.0931 97.1285 50.6601 96.9766 51.1841 96.6746H52.3241C52.6661 96.9746 53.0821 97.1285 53.5661 97.1285C54.0161 97.1285 54.4161 97.0056 54.7581 96.7626C54.7981 96.7346 54.8341 96.7036 54.8721 96.6746H55.3001C55.3161 96.6886 55.3301 96.7046 55.3451 96.7186C55.6091 96.9446 55.9471 97.0605 56.3501 97.0605C56.6861 97.0605 56.9941 97.0015 57.2781 96.8895L57.2421 97.0605H59.6621L59.7441 96.6746H60.1191L60.0371 97.0605H62.4571L62.5391 96.6746H63.7351L63.7661 96.7095C63.7771 96.7195 63.7861 96.7325 63.7961 96.7425C63.8231 96.7675 63.8531 96.7906 63.8821 96.8126C63.8961 96.8226 63.9061 96.8346 63.9201 96.8446C63.9471 96.8646 63.9781 96.8826 64.0071 96.8996L64.0571 96.9315C64.0841 96.9465 64.1131 96.9586 64.1411 96.9706C64.1641 96.9806 64.1861 96.9935 64.2101 97.0025C64.2331 97.0125 64.2581 97.0186 64.2821 97.0266C64.3141 97.0376 64.3441 97.0495 64.3771 97.0585C64.3921 97.0635 64.4111 97.0656 64.4271 97.0686C64.4701 97.0796 64.5121 97.0895 64.5571 97.0985C64.5911 97.1045 64.6281 97.1065 64.6631 97.1115C64.6931 97.1155 64.7201 97.1196 64.7501 97.1216C64.8181 97.1276 64.8871 97.1316 64.9581 97.1316C65.3931 97.1316 65.8681 96.9816 66.4041 96.6766H67.9301C68.1951 96.9726 68.5671 97.1305 69.0101 97.1305C69.5101 97.1305 70.0111 96.9615 70.5001 96.6285C71.0031 96.2875 71.3971 95.6825 71.7071 94.7795L71.8831 94.2695H71.3411H71.3441ZM68.9741 91.3395H68.9641L68.9541 91.2856C68.9601 91.3056 68.9681 91.3215 68.9741 91.3395ZM70.2861 96.3126C69.8591 96.6026 69.4351 96.7466 69.0131 96.7466C68.6591 96.7466 68.3831 96.6266 68.1871 96.3846C67.9911 96.1436 67.8241 95.7446 67.6891 95.1876C67.281 95.6197 66.8141 95.9924 66.3021 96.2945C65.7921 96.5945 65.3461 96.7456 64.9621 96.7456C64.5081 96.7456 64.1841 96.6256 63.9891 96.3836C63.7931 96.1426 63.6951 95.8386 63.6951 95.4686C63.6951 95.3106 63.7131 95.1325 63.7521 94.9315C63.8124 94.6153 63.8801 94.3006 63.9551 93.9875C64.0151 93.7245 64.0721 93.4646 64.1241 93.2076C64.1771 92.9526 64.2041 92.7445 64.2041 92.5875C64.2041 92.2025 64.0681 92.0116 63.7961 92.0116C63.6011 92.0116 63.4261 92.1076 63.2761 92.2996C63.1086 92.525 62.9854 92.7801 62.9131 93.0516L62.1431 96.6786H60.5131L61.3391 92.7795C61.3621 92.6895 61.3731 92.5956 61.3731 92.4976C61.3731 92.1656 61.2591 92.0005 61.0331 92.0005C60.8211 92.0005 60.6391 92.0966 60.4841 92.2886C60.3291 92.4806 60.2071 92.7356 60.1171 93.0516L59.3471 96.6786H57.7171L57.8551 96.0305C57.6644 96.2397 57.4312 96.4057 57.1711 96.5174C56.9111 96.6292 56.6301 96.6841 56.3471 96.6786C56.0371 96.6786 55.7871 96.5946 55.5941 96.4296C55.4021 96.2646 55.2841 96.0226 55.2371 95.7066C55.0421 96.0086 54.8061 96.2566 54.5301 96.4526C54.247 96.6502 53.9084 96.7528 53.5631 96.7456C53.3632 96.7509 53.1644 96.7145 52.9793 96.6387C52.7942 96.563 52.6269 96.4495 52.4881 96.3055C52.2761 96.0875 52.1431 95.7775 52.0881 95.3785C51.3481 96.2895 50.4781 96.7456 49.4781 96.7456C48.9181 96.7456 48.4851 96.6005 48.1751 96.3115C47.8651 96.0215 47.7111 95.5675 47.7111 94.9495C47.7111 94.4295 47.8151 93.8576 48.0211 93.2326C48.2203 92.6209 48.5621 92.0653 49.0181 91.6115C49.4751 91.1555 50.0541 90.9286 50.7551 90.9286C51.2071 90.9286 51.5301 91.0265 51.7221 91.2215C51.9141 91.4175 52.0111 91.6656 52.0111 91.9676C52.0111 92.2316 51.9541 92.4346 51.8411 92.5776C51.7916 92.6449 51.7268 92.6994 51.652 92.7366C51.5772 92.7738 51.4947 92.7927 51.4111 92.7915C51.2687 92.7863 51.131 92.7394 51.0151 92.6565C51.1051 92.4085 51.1501 92.1865 51.1501 91.9905C51.1563 91.8719 51.1285 91.754 51.0701 91.6506C51.0451 91.6106 51.0098 91.5781 50.968 91.5565C50.9261 91.5348 50.8792 91.5248 50.8321 91.5275C50.6061 91.5275 50.3791 91.7116 50.1521 92.0806C49.9271 92.4506 49.7421 92.8986 49.5981 93.4256C49.464 93.8887 49.3917 94.3675 49.3831 94.8495C49.3831 95.2195 49.4471 95.4695 49.5751 95.6015C49.7031 95.7335 49.9111 95.7996 50.1981 95.7996C50.6051 95.7996 50.9541 95.7055 51.2451 95.5175C51.4941 95.3555 51.7651 95.1206 52.0571 94.8136C52.0711 94.2906 52.1801 93.7435 52.3881 93.1725C52.5951 92.5826 52.936 92.0486 53.3841 91.6125C53.5916 91.4062 53.8383 91.2434 54.1096 91.1338C54.381 91.0242 54.6715 90.9701 54.9641 90.9745C55.2731 90.9745 55.5021 91.0276 55.6541 91.1326C55.7241 91.1771 55.7815 91.2388 55.8209 91.3118C55.8603 91.3848 55.8803 91.4666 55.8791 91.5496V91.5946L56.4341 88.9966L58.1101 88.7706L56.8081 94.8706C56.7781 94.9846 56.7621 95.1056 56.7621 95.2336C56.7621 95.3836 56.7981 95.4915 56.8701 95.5555C56.9401 95.6195 57.0601 95.6525 57.2261 95.6525C57.4381 95.6525 57.6201 95.5625 57.7751 95.3805C57.9291 95.2005 58.0511 94.9606 58.1411 94.6626L58.9131 91.0305H60.5431L60.4181 91.6186C60.8021 91.1886 61.2631 90.9745 61.7981 90.9745C62.4621 90.9745 62.8511 91.2975 62.9641 91.9455C63.3781 91.3055 63.9031 90.9855 64.5361 90.9855C64.9211 90.9855 65.2261 91.0916 65.4531 91.3016C65.6791 91.5126 65.7931 91.8316 65.7931 92.2616C65.7931 92.4806 65.7661 92.7235 65.7131 92.9915C65.6591 93.2585 65.5841 93.5846 65.4861 93.9686C65.4261 94.2026 65.3721 94.4296 65.3221 94.6516C65.2721 94.8736 65.2481 95.0486 65.2481 95.1766C65.2481 95.4926 65.4141 95.6506 65.7461 95.6506C66.0101 95.6506 66.3161 95.5506 66.6631 95.3456C67.0101 95.1416 67.3081 94.8856 67.5571 94.5766L66.9121 91.0285H68.5071L68.9491 93.4686C69.2891 93.1066 69.5521 92.7686 69.7401 92.4516C69.9301 92.1356 70.0231 91.8755 70.0231 91.6715C70.0256 91.6263 70.0222 91.5809 70.0131 91.5366C69.9061 91.5526 69.8431 91.5595 69.8201 91.5595C69.6321 91.5595 69.4961 91.5016 69.4131 91.3846C69.3245 91.2491 69.2807 91.0892 69.2881 90.9276C69.2881 90.7616 69.3481 90.6316 69.4701 90.5376C69.6007 90.4404 69.7605 90.3907 69.9231 90.3966C70.1651 90.3966 70.3531 90.4906 70.4891 90.6786C70.6241 90.8666 70.6931 91.1086 70.6931 91.4016C70.6931 91.7636 70.5661 92.1535 70.3131 92.5715C70.0611 92.9885 69.6471 93.4956 69.0741 94.0906L69.1761 94.6555C69.1831 94.6925 69.2071 94.8126 69.2501 95.0116C69.2901 95.2106 69.3601 95.3676 69.4591 95.4796C69.5062 95.535 69.5652 95.579 69.6317 95.6085C69.6982 95.6379 69.7705 95.6519 69.8431 95.6496C70.0631 95.6496 70.2651 95.5566 70.4551 95.3726C70.6441 95.1876 70.7791 94.9485 70.8621 94.6555H71.3371C71.0581 95.4685 70.7051 96.0205 70.2801 96.3095L70.2861 96.3126Z" fill="white"/>
<path d="M55.3252 91.6748C55.0232 91.6748 54.7522 91.8498 54.5102 92.1998C54.2682 92.5498 54.0802 92.9718 53.9442 93.4658C53.8092 93.9598 53.7402 94.3938 53.7402 94.7708C53.7402 95.1468 53.7942 95.3888 53.9042 95.4938C53.9572 95.5458 54.0201 95.5866 54.0891 95.6138C54.1582 95.6409 54.232 95.6539 54.3062 95.6518C54.4872 95.6518 54.6702 95.5688 54.8552 95.4028C55.0402 95.2378 55.1652 95.0068 55.2352 94.7138V94.6578L55.7892 92.0698C55.7212 91.8068 55.5672 91.6748 55.3252 91.6748Z" fill="white"/>
<path d="M70.4603 95.3764C70.2713 95.5614 70.0673 95.6534 69.8483 95.6534C69.7757 95.6556 69.7035 95.6414 69.637 95.612C69.5705 95.5826 69.5115 95.5386 69.4643 95.4834C69.3556 95.3478 69.2833 95.1867 69.2543 95.0154L69.1813 94.6594L69.0793 94.0944C69.6523 93.5004 70.0663 92.9934 70.3193 92.5754C70.5713 92.1574 70.6983 91.7684 70.6983 91.4054C70.6983 91.1124 70.6303 90.8714 70.4943 90.6834C70.4314 90.5924 70.3466 90.5187 70.2476 90.4693C70.1487 90.4198 70.0388 90.3961 69.9283 90.4004C69.7657 90.3945 69.6059 90.4442 69.4753 90.5414C69.4159 90.587 69.3684 90.6463 69.3367 90.7142C69.305 90.782 69.2901 90.8566 69.2933 90.9314C69.2933 91.1204 69.3343 91.2714 69.4183 91.3894C69.5013 91.5064 69.6363 91.5644 69.8253 91.5644C69.8483 91.5644 69.9123 91.5564 70.0173 91.5414C70.0266 91.5857 70.0303 91.6311 70.0283 91.6764C70.0283 91.8804 69.9343 92.1394 69.7453 92.4564C69.5181 92.8222 69.253 93.1631 68.9543 93.4734L68.5123 91.0334H66.9173L67.5623 94.5814C67.3136 94.89 67.0106 95.1506 66.6683 95.3504C66.3213 95.5534 66.0153 95.6554 65.7513 95.6554C65.4193 95.6554 65.2533 95.4974 65.2533 95.1814C65.2533 95.0534 65.2773 94.8784 65.3273 94.6564C65.3773 94.4344 65.4313 94.2064 65.4913 93.9734C65.5893 93.5894 65.6653 93.2634 65.7173 92.9954C65.7703 92.7284 65.7973 92.4854 65.7973 92.2664C65.7973 91.8364 65.6833 91.5164 65.4573 91.3064C65.2313 91.0944 64.9263 90.9894 64.5413 90.9894C63.9083 90.9894 63.3833 91.3094 62.9683 91.9494C62.8553 91.3024 62.4673 90.9794 61.8033 90.9794C61.2673 90.9794 60.8073 91.1934 60.4233 91.6234L60.5473 91.0354H58.9173L58.1473 94.6674C58.0553 94.9664 57.9333 95.2054 57.7803 95.3854C57.6253 95.5654 57.4433 95.6564 57.2313 95.6564C57.0653 95.6564 56.9463 95.6254 56.8743 95.5604C56.8033 95.4964 56.7673 95.3884 56.7673 95.2374C56.7673 95.1104 56.7813 94.9894 56.8133 94.8754L58.1153 88.7754L56.4393 89.0004L55.8843 91.5994V91.5544C55.8857 91.4712 55.8656 91.389 55.826 91.3158C55.7864 91.2426 55.7287 91.1808 55.6583 91.1364C55.5083 91.0314 55.2783 90.9784 54.9683 90.9784C54.3583 90.9784 53.8303 91.1914 53.3893 91.6174C52.9413 92.0535 52.6003 92.5874 52.3933 93.1774C52.1962 93.7029 52.0844 94.2566 52.0623 94.8174C51.8195 95.0827 51.5466 95.319 51.2493 95.5214C50.9593 95.7094 50.6093 95.8034 50.2023 95.8034C49.9163 95.8034 49.7083 95.7384 49.5803 95.6064C49.4523 95.4744 49.3883 95.2234 49.3883 94.8544C49.3883 94.4314 49.4593 93.9574 49.6033 93.4304C49.7473 92.9024 49.9323 92.4544 50.1583 92.0854C50.3843 91.7154 50.6113 91.5314 50.8383 91.5314C50.9423 91.5314 51.0223 91.5724 51.0753 91.6554C51.1283 91.7394 51.1553 91.8514 51.1553 91.9954C51.1553 92.1904 51.1103 92.4124 51.0203 92.6614C51.1553 92.7514 51.2873 92.7964 51.4163 92.7964C51.4999 92.7974 51.5826 92.7784 51.6574 92.741C51.7322 92.7036 51.7969 92.6489 51.8463 92.5814C51.9603 92.4394 52.0163 92.2354 52.0163 91.9714C52.0163 91.6704 51.9193 91.4214 51.7263 91.2264C51.5353 91.0304 51.2123 90.9324 50.7603 90.9324C50.0593 90.9324 49.4783 91.1604 49.0233 91.6154C48.5675 92.0693 48.2259 92.6249 48.0263 93.2364C47.8193 93.8624 47.7163 94.4344 47.7163 94.9544C47.7163 95.5724 47.8713 96.0264 48.1803 96.3154C48.4903 96.6054 48.9233 96.7504 49.4823 96.7504C50.4833 96.7504 51.3523 96.2944 52.0923 95.3824C52.1483 95.7824 52.2813 96.0914 52.4933 96.3094C52.7803 96.6034 53.1393 96.7494 53.5683 96.7494C53.9383 96.7494 54.2613 96.6524 54.5353 96.4574C54.8113 96.2614 55.0473 96.0124 55.2423 95.7114C55.2883 96.0274 55.4073 96.2684 55.5993 96.4344C55.7913 96.5994 56.0433 96.6824 56.3523 96.6824C56.9513 96.6824 57.4523 96.4664 57.8603 96.0344L57.7223 96.6824H59.3523L60.1223 93.0554C60.2123 92.7394 60.3343 92.4854 60.4893 92.2934C60.6443 92.1014 60.8263 92.0044 61.0383 92.0044C61.2643 92.0044 61.3783 92.1694 61.3783 92.5014C61.3783 92.5994 61.3673 92.6934 61.3443 92.7844L60.5183 96.6824H62.1483L62.9183 93.0554C63.0083 92.7464 63.1293 92.4974 63.2803 92.3034C63.4313 92.1124 63.6043 92.0154 63.8013 92.0154C64.0733 92.0154 64.2093 92.2074 64.2093 92.5914C64.2093 92.7494 64.1823 92.9564 64.1293 93.2124C64.0763 93.4684 64.0193 93.7294 63.9593 93.9924C63.8843 94.3054 63.8166 94.6202 63.7563 94.9364C63.7193 95.1354 63.7003 95.3154 63.7003 95.4734C63.7003 95.8434 63.7983 96.1474 63.9933 96.3884C64.1893 96.6294 64.5143 96.7504 64.9673 96.7504C65.3513 96.7504 65.7983 96.5994 66.3073 96.2984C66.8173 95.9984 67.2793 95.6284 67.6943 95.1924C67.8293 95.7494 67.9963 96.1494 68.1923 96.3894C68.3883 96.6304 68.6633 96.7514 69.0183 96.7514C69.4393 96.7514 69.8643 96.6064 70.2913 96.3174C70.7173 96.0274 71.0693 95.4754 71.3483 94.6624H70.8733C70.8035 94.9332 70.663 95.1806 70.4663 95.3794L70.4603 95.3764ZM55.2273 94.6584V94.7154C55.1593 95.0084 55.0323 95.2394 54.8473 95.4054C54.6623 95.5694 54.4803 95.6534 54.2983 95.6534C54.2243 95.655 54.1508 95.6419 54.0819 95.6147C54.0131 95.5876 53.9503 95.547 53.8973 95.4954C53.7873 95.3904 53.7323 95.1484 53.7323 94.7724C53.7323 94.3954 53.8003 93.9614 53.9373 93.4674C54.0723 92.9734 54.2613 92.5524 54.5033 92.2014C54.7443 91.8514 55.0153 91.6764 55.3173 91.6764C55.5593 91.6764 55.7143 91.8074 55.7823 92.0724L55.2273 94.6584Z" fill="#411F1F"/>
</g>
</g>
<defs>
<clipPath id="clip0_6728_1034">
<rect width="89" height="98" fill="white"/>
</clipPath>
</defs>
</svg>
